<svg width="20" height="18" viewBox="0 0 20 18" fill="none" xmlns="http://www.w3.org/2000/svg">
<g clip-path="url(#clip0_6_2)">
<path d="M2.50195 11.502C1.80273 11.502 1.21094 11.2598 0.726562 10.7754C0.242188 10.291 0 9.69922 0 9C0 8.30078 0.242188 7.70898 0.726562 7.22461C1.21094 6.74023 1.80273 6.49805 2.50195 6.49805V4.30664C2.50195 3.81055 2.67773 3.38672 3.0293 3.03516C3.38477 2.67969 3.8125 2.50195 4.3125 2.50195H7.5C7.5 1.80273 7.74219 1.21094 8.22656 0.726562C8.71094 0.242188 9.30273 0 10.002 0C10.7012 0 11.293 0.242188 11.7773 0.726562C12.2617 1.21094 12.5039 1.80273 12.5039 2.50195H15.6914C16.1914 2.50195 16.6172 2.67969 16.9688 3.03516C17.3242 3.38672 17.502 3.81055 17.502 4.30664V6.49805C18.2012 6.49805 18.793 6.74023 19.2773 7.22461C19.7617 7.70898 20.0039 8.30078 20.0039 9C20.0039 9.69922 19.7617 10.291 19.2773 10.7754C18.793 11.2598 18.2012 11.502 17.502 11.502V15.6914C17.502 16.1875 17.3242 16.6133 16.9688 16.9688C16.6172 17.3242 16.1914 17.502 15.6914 17.502H4.3125C3.8125 17.502 3.38477 17.3242 3.0293 16.9688C2.67773 16.6133 2.50195 16.1875 2.50195 15.6914V11.502ZM7.00195 9.75C7.34961 9.75 7.64453 9.62891 7.88672 9.38672C8.12891 9.14453 8.25 8.84961 8.25 8.50195C8.25 8.1543 8.12891 7.85938 7.88672 7.61719C7.64453 7.37109 7.34961 7.24805 7.00195 7.24805C6.6543 7.24805 6.35938 7.37109 6.11719 7.61719C5.875 7.85938 5.75391 8.15234 5.75391 8.49609C5.75391 8.84375 5.875 9.14062 6.11719 9.38672C6.35938 9.62891 6.6543 9.75 7.00195 9.75ZM13.002 9.75C13.3496 9.75 13.6445 9.62891 13.8867 9.38672C14.1289 9.14453 14.25 8.84961 14.25 8.50195C14.25 8.1543 14.1289 7.85938 13.8867 7.61719C13.6445 7.37109 13.3496 7.24805 13.002 7.24805C12.6543 7.24805 12.3594 7.37109 12.1172 7.61719C11.875 7.85938 11.7539 8.15234 11.7539 8.49609C11.7539 8.84375 11.875 9.14062 12.1172 9.38672C12.3594 9.62891 12.6543 9.75 13.002 9.75ZM6.25195 13.752H13.752V12.252H6.25195V13.752ZM4.3125 16.002H15.6914C15.7812 16.002 15.8555 15.9727 15.9141 15.9141C15.9727 15.8555 16.002 15.7812 16.002 15.6914V4.30664C16.002 4.2168 15.9727 4.14453 15.9141 4.08984C15.8555 4.03125 15.7812 4.00195 15.6914 4.00195H4.3125C4.22266 4.00195 4.14844 4.03125 4.08984 4.08984C4.03125 4.14453 4.00195 4.2168 4.00195 4.30664V15.6914C4.00195 15.7812 4.03125 15.8555 4.08984 15.9141C4.14844 15.9727 4.22266 16.002 4.3125 16.002Z" fill="#FF725E"/>
</g>
<defs>
<clipPath id="clip0_6_2">
<rect width="20.0039" height="17.502" fill="white"/>
</clipPath>
</defs>
</svg>
