<svg width="15" height="19" viewBox="0 0 15 19" fill="none" xmlns="http://www.w3.org/2000/svg">
<g clip-path="url(#clip0_6_6)">
<path d="M3.75 15.2461H11.25V13.7461H3.75V15.2461ZM3.75 11.25H11.25V9.75H3.75V11.25ZM1.81055 18.9961C1.30273 18.9961 0.873047 18.8223 0.521484 18.4746C0.173828 18.123 0 17.6953 0 17.1914V1.80469C0 1.30078 0.173828 0.875 0.521484 0.527344C0.873047 0.175781 1.30273 0 1.81055 0H9.75L15 5.25V17.1914C15 17.6953 14.8242 18.123 14.4727 18.4746C14.125 18.8223 13.6973 18.9961 13.1895 18.9961H1.81055ZM9 6V1.5H1.81055C1.73242 1.5 1.66016 1.53125 1.59375 1.59375C1.53125 1.65625 1.5 1.72656 1.5 1.80469V17.1914C1.5 17.2695 1.53125 17.3398 1.59375 17.4023C1.66016 17.4648 1.73242 17.4961 1.81055 17.4961H13.1895C13.2676 17.4961 13.3379 17.4648 13.4004 17.4023C13.4668 17.3398 13.5 17.2695 13.5 17.1914V6H9ZM1.5 6V17.1914V1.80469V1.59375" fill="#FF725E"/>
</g>
<defs>
<clipPath id="clip0_6_6">
<rect width="15" height="18.9961" fill="white"/>
</clipPath>
</defs>
</svg>
