<?xml version="1.0" encoding="utf-8" ?>
<svg xmlns="http://www.w3.org/2000/svg" xmlns:xlink="http://www.w3.org/1999/xlink" width="19.5" height="19.5" viewBox="0 0 19.5 19.5">
	<path transform="matrix(1 0 0 1 4.76837e-07 0)" d="M2.25 19.5L11.1138 19.5L11.1138 11.0295L8.7684 11.0295L8.7684 9.8133L11.1138 9.8133L11.1138 7.059C11.1138 6.12804 11.3627 5.41668 11.8604 4.92489C12.3373 4.45363 13.0033 4.218 13.8585 4.218C14.2816 4.218 14.7087 4.23122 15.1397 4.25765C15.1618 4.25901 15.1834 4.26036 15.2046 4.26171L15.2046 5.2551L14.5164 5.2551C13.1188 5.2551 12.42 5.9461 12.42 7.3281L12.42 9.8124L15.0069 9.8124L14.8498 11.0286L12.4191 11.0286L12.4191 19.5L17.25 19.5C17.5548 19.5 17.8469 19.441 18.126 19.3229C18.3953 19.209 18.6336 19.0483 18.841 18.841C19.0484 18.6336 19.209 18.3953 19.3229 18.126C19.441 17.8468 19.5 17.5548 19.5 17.25L19.5 2.25C19.5 1.94516 19.441 1.65315 19.3229 1.37397C19.209 1.10469 19.0484 0.866371 18.841 0.65901C18.6336 0.451647 18.3953 0.291018 18.126 0.177124C17.8469 0.0590415 17.5548 7.94729e-08 17.25 1.19209e-07L2.25 0C1.94516 0 1.65315 0.0590414 1.37397 0.177124C1.10469 0.291018 0.866373 0.451647 0.65901 0.65901C0.451647 0.866373 0.291018 1.10469 0.177124 1.37397C0.0590412 1.65315 -1.19209e-07 1.94516 0 2.25L3.09944e-06 17.25C3.17891e-06 17.5548 0.0590446 17.8468 0.177127 18.126C0.291023 18.3953 0.451651 18.6336 0.659013 18.841C0.866376 19.0483 1.1047 19.209 1.37397 19.3229C1.65315 19.441 1.94516 19.5 2.25 19.5ZM9.6138 18L2.25 18C2.0429 18 1.86612 17.9268 1.71967 17.7803C1.57323 17.6339 1.5 17.4571 1.5 17.25L1.5 2.25C1.5 2.04289 1.57322 1.86612 1.71967 1.71967C1.86612 1.57322 2.04289 1.5 2.25 1.5L17.25 1.5C17.4571 1.5 17.6339 1.57322 17.7803 1.71967C17.9268 1.86612 18 2.04289 18 2.25L18 17.25C18 17.4571 17.9268 17.6339 17.7803 17.7803C17.6339 17.9268 17.4571 18 17.25 18L13.9191 18L13.9191 12.5286L16.1684 12.5286L16.7133 8.3124L13.92 8.3124L13.92 7.3281C13.92 7.07089 13.9446 6.913 13.9939 6.85443C14.0067 6.83925 14.0345 6.82419 14.0772 6.80924C14.1806 6.77314 14.3269 6.7551 14.5164 6.7551L16.7046 6.7551L16.7046 2.91862L16.0539 2.8317C15.862 2.80607 15.5879 2.78232 15.2316 2.76047C14.77 2.73216 14.3123 2.718 13.8585 2.718C13.2505 2.718 12.6911 2.81115 12.1803 2.99746C11.6483 3.19149 11.1902 3.47831 10.8061 3.8579C10.0112 4.64329 9.6138 5.71032 9.6138 7.059L9.6138 8.3133L7.2684 8.3133L7.2684 12.5295L9.6138 12.5295L9.6138 18Z" fill-rule="evenodd" fill="rgb(25, 50, 56)"/>
</svg>
