<svg width="500" height="500" viewBox="0 0 500 500" fill="none" xmlns="http://www.w3.org/2000/svg">
<path d="M52.928 237.072L54.816 271.794C54.883 273.031 55.901 274.002 57.14 274.011L119.621 274.469C120.916 274.479 121.973 273.437 121.982 272.142L122.18 245.114C122.189 243.813 121.139 242.754 119.838 242.753L81.411 242.719C80.79 242.718 80.195 242.472 79.756 242.033L73.126 235.406C72.691 234.971 72.102 234.724 71.486 234.72L55.286 234.6C53.935 234.591 52.855 235.722 52.928 237.072Z" fill="#EBEBEB"/>
<path d="M122.238 238.672L53.9676 238.173L53.6697 278.968L121.94 279.467L122.238 238.672Z" fill="#F5F5F5"/>
<path d="M48.502 241.789L53.403 284.368C53.49 285.125 54.128 285.697 54.889 285.703L121.42 286.19C122.207 286.196 122.866 285.596 122.933 284.812L126.594 242.296C126.669 241.42 125.982 240.666 125.103 240.659L50.01 240.109C49.105 240.102 48.398 240.889 48.502 241.789Z" fill="#EBEBEB"/>
<path d="M336.6 243.067L338.225 272.965C338.283 274.03 339.159 274.866 340.226 274.874L394.026 275.268C395.141 275.276 396.051 274.379 396.059 273.264L396.229 249.991C396.237 248.871 395.332 247.959 394.212 247.958L361.124 247.929C360.589 247.928 360.077 247.716 359.699 247.338L353.99 241.632C353.615 241.257 353.108 241.045 352.578 241.041L338.63 240.939C337.467 240.93 336.537 241.905 336.6 243.067Z" fill="#EBEBEB"/>
<path d="M396.289 244.438L337.504 244.009L337.248 279.136L396.033 279.565L396.289 244.438Z" fill="#F5F5F5"/>
<path d="M332.789 247.128L337.009 283.791C337.084 284.443 337.633 284.936 338.289 284.941L395.577 285.361C396.254 285.366 396.822 284.849 396.88 284.174L400.033 247.565C400.098 246.811 399.506 246.161 398.749 246.156L334.089 245.682C333.309 245.676 332.7 246.354 332.789 247.128Z" fill="#EBEBEB"/>
<path d="M444.017 47.144H348.409V205.403H444.017V47.144Z" fill="#E0E0E0"/>
<path d="M440.838 47.144H345.23V205.403H440.838V47.144Z" fill="#EBEBEB"/>
<path d="M436.767 50.354H349.301V202.194H436.767V50.354Z" fill="white"/>
<path d="M419.736 70.084H365.952V182.463H419.736V70.084Z" fill="#EBEBEB"/>
<path d="M365.952 142.696C365.828 132.198 375.266 121.95 385.662 120.484C390.619 119.785 395.886 120.769 400.518 118.87C408.785 115.48 411.416 104.495 419.737 101.237L420.117 182.463H365.953V142.696H365.952Z" fill="#E0E0E0"/>
<path d="M438.493 249.903C438.493 249.903 430.574 249.333 431.303 267.097C432.032 284.861 433.844 294.323 433.844 294.323C433.844 294.323 433.611 298.262 430.561 297.489C427.51 296.716 421.772 292.883 418.938 295.748C415.999 298.72 417.044 303.278 420.943 308.647C424.842 314.016 432.952 326.092 433.682 327.186C434.398 328.261 434.685 330.276 432.523 330.082C430.36 329.888 415.765 324.941 413.832 332.008C411.899 339.074 425.219 352.246 426.647 353.714C428.075 355.182 428.152 356.109 427.573 356.997C426.993 357.885 422.244 355.76 418.035 354.523C413.826 353.286 408.729 352.59 407.955 356.76C407.182 360.93 413.048 373.135 435.018 385.962L445.587 391.239L455.591 384.858C476.167 369.898 480.784 357.168 479.597 353.096C478.41 349.024 473.408 350.227 469.344 351.878C465.28 353.53 460.767 356.119 460.102 355.294C459.437 354.468 459.421 353.539 460.695 351.935C461.97 350.332 473.905 335.893 471.275 329.056C468.645 322.218 454.617 328.601 452.485 329.01C450.352 329.419 450.437 327.385 451.042 326.244C451.658 325.082 458.52 312.255 461.862 306.523C465.204 300.791 465.788 296.152 462.566 293.489C459.459 290.921 454.133 295.309 451.175 296.384C448.217 297.458 447.592 293.563 447.592 293.563C447.592 293.563 448.449 283.968 447.397 266.22C446.345 248.472 438.333 249.905 438.333 249.905" fill="#EBEBEB"/>
<path d="M439.119 265.813C439.119 265.813 439.14 265.938 439.162 266.184C439.182 266.447 439.21 266.809 439.246 267.274C439.312 268.252 439.408 269.662 439.531 271.469C439.773 275.112 440.085 280.387 440.445 286.905C441.17 299.942 442.016 317.96 442.886 337.862C443.755 357.771 444.557 375.79 445.209 388.83C445.54 395.336 445.808 400.607 445.994 404.271C446.084 406.08 446.154 407.491 446.203 408.47C446.222 408.936 446.236 409.299 446.247 409.562C446.255 409.808 446.248 409.935 446.248 409.935C446.248 409.935 446.227 409.81 446.206 409.564C446.186 409.301 446.158 408.939 446.122 408.474C446.056 407.496 445.96 406.086 445.838 404.28C445.595 400.637 445.284 395.363 444.924 388.845C444.199 375.808 443.353 357.788 442.483 337.88C441.614 317.978 440.812 299.96 440.161 286.921C439.83 280.415 439.562 275.144 439.375 271.479C439.285 269.67 439.215 268.259 439.166 267.28C439.147 266.814 439.132 266.451 439.122 266.187C439.112 265.94 439.119 265.813 439.119 265.813Z" fill="#E0E0E0"/>
<path d="M426.75 301.433C426.77 301.413 427.003 301.609 427.408 301.98C427.815 302.349 428.386 302.902 429.085 303.591C430.48 304.973 432.356 306.932 434.385 309.132C436.371 311.304 438.166 313.268 439.554 314.788C440.171 315.457 440.696 316.026 441.127 316.494C441.5 316.896 441.697 317.128 441.678 317.148C441.659 317.168 441.424 316.974 441.016 316.606C440.61 316.235 440.039 315.683 439.347 314.986C437.965 313.59 436.116 311.608 434.087 309.407C432.087 307.25 430.278 305.3 428.879 303.791C428.258 303.125 427.73 302.558 427.296 302.092C426.926 301.687 426.73 301.453 426.75 301.433Z" fill="#E0E0E0"/>
<path d="M442.726 316.8C442.646 316.721 446.512 312.674 451.358 307.76C456.206 302.845 460.2 298.925 460.279 299.003C460.358 299.081 456.494 303.128 451.646 308.044C446.8 312.958 442.805 316.878 442.726 316.8Z" fill="#E0E0E0"/>
<path d="M442.682 347.427C442.669 347.402 442.932 347.236 443.419 346.958C443.983 346.641 444.674 346.254 445.486 345.798C447.23 344.818 449.635 343.456 452.234 341.858C454.838 340.266 457.145 338.744 458.807 337.631C459.582 337.114 460.241 336.675 460.779 336.316C461.247 336.008 461.514 335.849 461.53 335.871C461.546 335.894 461.311 336.096 460.871 336.443C460.43 336.79 459.783 337.279 458.97 337.866C457.346 339.042 455.057 340.606 452.445 342.203C449.838 343.806 447.403 345.132 445.621 346.05C444.728 346.505 444.001 346.865 443.491 347.098C442.982 347.334 442.695 347.452 442.682 347.427Z" fill="#E0E0E0"/>
<path d="M425.173 336.709C425.187 336.685 425.447 336.808 425.904 337.052C426.361 337.296 427.016 337.66 427.82 338.117C429.429 339.031 431.638 340.318 434.064 341.761C436.491 343.204 438.677 344.531 440.248 345.508C441.034 345.997 441.666 346.398 442.098 346.683C442.53 346.968 442.762 347.137 442.748 347.161C442.734 347.185 442.474 347.062 442.017 346.818C441.56 346.574 440.905 346.21 440.101 345.753C438.492 344.839 436.283 343.551 433.856 342.108C431.43 340.665 429.244 339.339 427.673 338.362C426.887 337.873 426.255 337.472 425.823 337.187C425.391 336.902 425.158 336.733 425.173 336.709Z" fill="#E0E0E0"/>
<path d="M421.699 363.743C421.713 363.719 422.043 363.88 422.629 364.193C423.28 364.552 424.105 365.007 425.089 365.55C427.157 366.711 430 368.339 433.128 370.159C436.256 371.979 439.077 373.647 441.108 374.871C442.066 375.458 442.869 375.95 443.503 376.339C444.064 376.693 444.367 376.901 444.353 376.925C444.339 376.949 444.009 376.788 443.423 376.475C442.772 376.116 441.947 375.661 440.963 375.118C438.895 373.957 436.052 372.329 432.923 370.509C429.796 368.689 426.975 367.022 424.944 365.798C423.986 365.211 423.183 364.719 422.549 364.33C421.989 363.974 421.685 363.767 421.699 363.743Z" fill="#E0E0E0"/>
<path d="M443.9 376.456C443.886 376.432 444.214 376.214 444.819 375.84C445.491 375.431 446.354 374.905 447.388 374.276C449.556 372.955 452.545 371.12 455.788 369.004C459.036 366.892 461.926 364.905 464.009 363.454C465.003 362.763 465.833 362.187 466.479 361.738C467.065 361.336 467.396 361.124 467.413 361.146C467.43 361.168 467.13 361.423 466.572 361.865C466.015 362.307 465.198 362.932 464.175 363.687C462.132 365.2 459.262 367.228 456.008 369.344C452.759 371.464 449.74 373.263 447.532 374.523C446.426 375.15 445.526 375.648 444.896 375.977C444.268 376.309 443.914 376.481 443.9 376.456Z" fill="#E0E0E0"/>
<path d="M459.785 394.697H430.545L440.089 466.938H450.242L459.785 394.697Z" fill="#E0E0E0"/>
<path d="M432.063 403.577C432.052 403.584 432.095 403.679 432.219 403.834C432.343 403.987 432.573 404.187 432.924 404.339C433.617 404.641 434.835 404.665 436.012 403.96C437.193 403.309 438.221 402.029 439.804 401.464C441.373 400.865 443.317 400.972 445.181 401.571C447.066 402.154 448.704 403.108 450.188 403.997C451.675 404.882 453.037 405.671 454.26 406.182C455.473 406.712 456.531 406.956 457.263 407.05C457.63 407.099 457.916 407.113 458.111 407.107C458.305 407.107 458.407 407.099 458.408 407.082C458.425 406.987 456.753 407.001 454.397 405.873C453.217 405.333 451.89 404.526 450.415 403.62C448.947 402.714 447.27 401.717 445.323 401.115C443.399 400.496 441.331 400.384 439.648 401.053C438.807 401.373 438.101 401.876 437.512 402.374C436.915 402.868 436.38 403.333 435.838 403.671C434.769 404.362 433.645 404.391 432.99 404.165C432.316 403.931 432.1 403.536 432.063 403.577Z" fill="#F5F5F5"/>
<path d="M433.13 416.882C433.169 416.906 433.362 416.584 433.819 416.107C434.284 415.643 435.047 415.036 436.154 414.626C437.251 414.205 438.661 413.955 440.22 414.014C441.786 414.068 443.493 414.412 445.308 414.707C447.12 415.012 448.915 415.148 450.518 414.923C452.121 414.717 453.513 414.256 454.617 413.753C455.724 413.248 456.544 412.695 457.082 412.288C457.622 411.879 457.879 411.604 457.863 411.585C457.808 411.506 456.679 412.517 454.482 413.444C453.386 413.896 452.022 414.312 450.465 414.487C448.908 414.68 447.184 414.538 445.383 414.236C443.583 413.944 441.849 413.606 440.233 413.575C438.615 413.539 437.156 413.833 436.027 414.314C434.888 414.783 434.118 415.465 433.681 415.983C433.47 416.253 433.317 416.469 433.239 416.631C433.153 416.788 433.116 416.874 433.13 416.882Z" fill="#F5F5F5"/>
<path d="M456.473 424.005C456.484 423.983 456.213 423.801 455.667 423.587C455.123 423.372 454.292 423.151 453.244 423.067C452.197 422.984 450.942 423.051 449.58 423.277C448.216 423.498 446.755 423.875 445.219 424.201C443.685 424.524 442.205 424.742 440.865 424.693C439.525 424.646 438.333 424.353 437.408 423.945C435.526 423.119 434.856 421.917 434.786 421.993C434.768 422.004 434.901 422.305 435.281 422.756C435.658 423.206 436.316 423.781 437.266 424.251C438.215 424.718 439.451 425.059 440.846 425.132C442.244 425.208 443.766 424.995 445.318 424.668C446.87 424.338 448.321 423.951 449.655 423.711C450.988 423.466 452.206 423.367 453.225 423.405C455.277 423.472 456.443 424.093 456.473 424.005Z" fill="#F5F5F5"/>
<path d="M435.713 434.024C435.727 434.101 436.757 433.373 438.552 433.738C439.432 433.897 440.416 434.343 441.522 434.845C442.624 435.359 443.952 435.798 445.377 435.908C448.25 436.184 450.805 435.256 452.372 434.287C453.175 433.811 453.734 433.299 454.113 432.948C454.469 432.569 454.651 432.351 454.628 432.329C454.564 432.259 453.796 433.123 452.203 433.995C450.638 434.862 448.171 435.698 445.42 435.433C442.652 435.275 440.527 433.624 438.608 433.406C437.672 433.266 436.89 433.4 436.402 433.597C435.908 433.789 435.699 434.007 435.713 434.024Z" fill="#F5F5F5"/>
<path d="M437.342 447.89C437.342 447.945 438.323 447.938 439.78 447.406C441.25 446.915 443.069 445.788 445.194 444.944C446.26 444.538 447.329 444.288 448.301 444.293C449.274 444.298 450.142 444.535 450.799 444.863C452.142 445.532 452.531 446.482 452.605 446.422C452.626 446.413 452.567 446.174 452.328 445.806C452.092 445.439 451.644 444.96 450.958 444.566C450.274 444.175 449.353 443.884 448.307 443.854C447.258 443.823 446.128 444.078 445.024 444.499C442.822 445.377 441.061 446.536 439.657 447.093C438.27 447.69 437.331 447.814 437.342 447.89Z" fill="#F5F5F5"/>
<path d="M438.776 454.341C438.76 454.401 439.461 454.653 440.627 454.942C441.792 455.232 443.428 455.541 445.255 455.722C447.082 455.9 448.747 455.915 449.947 455.858C451.148 455.802 451.883 455.691 451.88 455.629C451.873 455.485 448.917 455.611 445.302 455.247C441.686 454.901 438.811 454.202 438.776 454.341Z" fill="#F5F5F5"/>
<path d="M133.512 64.459H37.946V202.978H133.512V64.459Z" fill="#E0E0E0"/>
<path d="M128.725 64.459H33.159V202.978H128.725V64.459Z" fill="#F5F5F5"/>
<path d="M116.852 79.462H45.032V187.976H116.852V79.462Z" fill="white"/>
<path d="M116.852 187.976C116.852 187.976 116.843 187.792 116.838 187.445C116.835 187.087 116.83 186.575 116.824 185.906C116.817 184.542 116.808 182.546 116.795 179.954C116.78 174.753 116.758 167.174 116.731 157.601C116.702 138.466 116.662 111.37 116.614 79.462L116.852 79.7C94.91 79.707 70.596 79.714 45.041 79.721H45.032L45.292 79.461C45.272 120.397 45.254 158.14 45.239 187.975L45.032 187.768C66.904 187.814 84.832 187.851 97.307 187.877C103.547 187.9 108.421 187.918 111.749 187.93C113.403 187.94 114.671 187.948 115.54 187.953C116.399 187.961 116.852 187.976 116.852 187.976C116.852 187.976 116.429 187.991 115.585 187.998C114.725 188.003 113.47 188.011 111.833 188.021C108.515 188.033 103.657 188.051 97.437 188.074C84.931 188.1 66.959 188.137 45.033 188.183H44.826V187.975C44.811 158.14 44.793 120.397 44.773 79.461V79.201H45.033H45.042C70.597 79.209 94.911 79.216 116.853 79.222H117.092V79.46C117.044 111.433 117.003 138.583 116.975 157.756C116.948 167.307 116.926 174.867 116.911 180.055C116.899 182.626 116.889 184.606 116.882 185.959C116.876 186.617 116.871 187.119 116.868 187.471C116.861 187.811 116.852 187.976 116.852 187.976Z" fill="#E0E0E0"/>
<path d="M128.993 64.459C129.049 64.502 128.4 65.449 127.29 66.934C126.18 68.419 124.604 70.438 122.806 72.622C121.007 74.806 119.327 76.739 118.082 78.113C116.838 79.487 116.033 80.305 115.979 80.259C115.924 80.211 116.631 79.308 117.803 77.873C119.084 76.319 120.661 74.406 122.404 72.291C124.146 70.175 125.72 68.262 127.001 66.706C128.184 65.282 128.936 64.415 128.993 64.459Z" fill="#E0E0E0"/>
<path d="M117.217 187.627C120.784 193.299 124.995 198.566 129.744 203.293Z" fill="white"/>
<path d="M129.744 203.293C129.697 203.341 128.844 202.601 127.56 201.306C126.276 200.012 124.574 198.15 122.835 195.977C121.097 193.801 119.654 191.732 118.675 190.194C117.695 188.657 117.161 187.662 117.217 187.627C117.282 187.586 117.925 188.51 118.979 189.988C120.032 191.467 121.513 193.489 123.241 195.652C124.97 197.812 126.617 199.701 127.828 201.054C129.038 202.408 129.798 203.238 129.744 203.293Z" fill="#E0E0E0"/>
<path d="M33.145 202.869C37.318 197.721 41.49 192.573 45.663 187.425Z" fill="white"/>
<path d="M45.663 187.425C45.774 187.515 43.062 191.046 39.606 195.31C36.149 199.576 33.256 202.959 33.145 202.869C33.034 202.779 35.745 199.249 39.202 194.983C42.658 190.719 45.551 187.334 45.663 187.425Z" fill="#E0E0E0"/>
<path d="M33.159 64.459C33.272 64.37 35.992 67.622 39.235 71.722C42.479 75.823 45.016 79.219 44.903 79.308C44.79 79.397 42.07 76.146 38.827 72.044C35.584 67.945 33.046 64.548 33.159 64.459Z" fill="#E0E0E0"/>
<path d="M94.476 101.495H70.428V169.774H94.476V101.495Z" fill="#E0E0E0"/>
<path d="M253.294 41.294H178.18V119.594H253.294V41.294Z" fill="#E0E0E0"/>
<path d="M248.208 41.294H173.094V119.594H248.208V41.294Z" fill="#FAFAFA"/>
<path d="M248.231 119.618H173.07V41.271H248.231V119.618ZM173.117 119.571H248.184V41.317H173.117V119.571Z" fill="#E0E0E0"/>
<path d="M238.11 51.82H183.191V109.068H238.11V51.82Z" fill="white"/>
<path d="M183.191 109.449C183.234 109.5 182.713 110.099 181.836 111.025C180.959 111.95 179.727 113.203 178.345 114.564C176.963 115.925 175.693 117.138 174.757 117.998C173.821 118.858 173.217 119.368 173.17 119.32C173.123 119.272 173.641 118.676 174.518 117.751C175.395 116.826 176.631 115.57 178.017 114.205C179.403 112.84 180.675 111.625 181.611 110.765C182.547 109.904 183.148 109.398 183.191 109.449Z" fill="#E0E0E0"/>
<path d="M238.11 109.309C238.161 109.266 238.76 109.787 239.686 110.664C240.611 111.541 241.864 112.774 243.225 114.155C244.586 115.537 245.799 116.807 246.659 117.743C247.52 118.68 248.029 119.283 247.981 119.33C247.933 119.377 247.337 118.859 246.412 117.982C245.487 117.105 244.231 115.869 242.866 114.483C241.502 113.098 240.286 111.825 239.426 110.889C238.565 109.952 238.059 109.352 238.11 109.309Z" fill="#E0E0E0"/>
<path d="M237.96 51.973C237.917 51.922 238.438 51.323 239.315 50.397C240.192 49.471 241.424 48.219 242.806 46.858C244.188 45.496 245.458 44.284 246.394 43.423C247.331 42.562 247.934 42.053 247.981 42.101C248.028 42.149 247.51 42.744 246.633 43.67C245.756 44.595 244.52 45.851 243.134 47.216C241.749 48.581 240.476 49.796 239.539 50.656C238.604 51.518 238.003 52.024 237.96 51.973Z" fill="#E0E0E0"/>
<path d="M183.041 52.113C182.99 52.156 182.391 51.635 181.465 50.758C180.539 49.881 179.287 48.648 177.926 47.267C176.565 45.885 175.352 44.615 174.492 43.679C173.631 42.742 173.122 42.139 173.17 42.092C173.218 42.044 173.813 42.563 174.739 43.44C175.665 44.317 176.92 45.553 178.285 46.939C179.65 48.325 180.865 49.597 181.725 50.534C182.586 51.47 183.092 52.07 183.041 52.113Z" fill="#E0E0E0"/>
<path d="M237.96 109.068C237.956 109.064 237.952 108.97 237.948 108.79C237.945 108.595 237.941 108.332 237.936 107.991C237.93 107.273 237.922 106.241 237.911 104.901C237.898 102.189 237.879 98.243 237.856 93.233C237.83 83.206 237.793 68.922 237.748 51.82L237.96 52.032C221.972 52.041 203.197 52.052 183.197 52.063H183.192L183.435 51.82C183.422 72.832 183.411 92.49 183.401 109.068L183.192 108.86C199.604 108.904 213.268 108.941 222.848 108.966C227.634 108.989 231.4 109.008 233.987 109.02C235.265 109.031 236.249 109.039 236.934 109.044C237.258 109.049 237.509 109.053 237.695 109.056C237.867 109.061 237.956 109.064 237.96 109.068C237.964 109.072 237.882 109.076 237.718 109.08C237.537 109.083 237.293 109.087 236.979 109.092C236.303 109.098 235.333 109.106 234.072 109.116C231.496 109.129 227.747 109.147 222.98 109.171C213.368 109.197 199.658 109.234 183.191 109.278L182.983 109.279V109.069C182.973 92.491 182.961 72.833 182.948 51.821V51.578H183.191H183.196C203.196 51.589 221.972 51.6 237.959 51.609H238.171V51.821C238.126 68.98 238.089 83.311 238.063 93.37C238.039 98.36 238.02 102.289 238.007 104.99C237.996 106.313 237.988 107.331 237.982 108.04C237.977 108.371 237.973 108.626 237.97 108.816C237.968 108.987 237.964 109.073 237.96 109.068Z" fill="#E0E0E0"/>
<path d="M219.814 71.281H201.488V89.607H219.814V71.281Z" fill="#EBEBEB"/>
<path d="M138.938 357.902L140.815 392.432C140.882 393.662 141.894 394.628 143.126 394.637L205.261 395.092C206.549 395.102 207.6 394.065 207.609 392.778L207.806 365.9C207.815 364.607 206.77 363.553 205.477 363.551L167.262 363.517C166.645 363.516 166.053 363.271 165.616 362.835L159.022 356.244C158.589 355.811 158.003 355.566 157.391 355.562L141.281 355.444C139.939 355.434 138.865 356.56 138.938 357.902Z" fill="#EBEBEB"/>
<path d="M207.869 359.493L139.977 358.998L139.681 399.567L207.573 400.062L207.869 359.493Z" fill="#F5F5F5"/>
<path d="M134.536 362.592L139.41 404.935C139.497 405.688 140.131 406.257 140.888 406.263L207.051 406.748C207.833 406.754 208.488 406.157 208.556 405.377L212.197 363.096C212.272 362.225 211.589 361.475 210.714 361.468L136.036 360.921C135.136 360.915 134.433 361.698 134.536 362.592Z" fill="#EBEBEB"/>
<path d="M246.887 377.354L248.768 411.96C248.835 413.193 249.849 414.16 251.084 414.17L313.355 414.626C314.645 414.635 315.699 413.597 315.708 412.307L315.905 385.37C315.915 384.074 314.867 383.017 313.571 383.016L275.273 382.982C274.654 382.981 274.061 382.735 273.623 382.298L267.015 375.693C266.581 375.259 265.994 375.014 265.38 375.009L249.235 374.891C247.89 374.881 246.813 376.009 246.887 377.354Z" fill="#EBEBEB"/>
<path d="M315.971 378.946L247.931 378.449L247.634 419.107L315.674 419.604L315.971 378.946Z" fill="#F5F5F5"/>
<path d="M242.475 382.055L247.359 424.491C247.446 425.245 248.081 425.816 248.841 425.822L315.149 426.308C315.933 426.314 316.589 425.716 316.657 424.934L320.306 382.561C320.381 381.688 319.696 380.936 318.82 380.93L243.979 380.382C243.076 380.374 242.372 381.158 242.475 382.055Z" fill="#EBEBEB"/>
<path d="M93.556 318.853C83.304 303.172 84.799 280.77 97.043 266.59C100.843 262.189 106.155 258.363 111.948 258.859C117.88 259.367 122.66 264.455 124.465 270.129C126.27 275.803 125.644 281.95 124.584 287.809C123.099 296.012 120.613 304.406 114.923 310.498C109.233 316.59 100.872 322.85 93.556 318.853Z" fill="#FF725E"/>
<path d="M96.657 394.328C92.796 385.32 95.596 373.913 103.19 367.717C105.547 365.794 108.63 364.304 111.57 365.085C114.58 365.884 116.582 368.939 116.998 372.025C117.414 375.112 116.534 378.222 115.457 381.145C113.949 385.237 111.907 389.336 108.423 391.959C104.939 394.582 100.064 397.05 96.657 394.328Z" fill="#FF725E"/>
<path d="M74.503 388.945C77.322 375.043 69.995 359.704 57.411 353.159C53.505 351.128 48.697 349.924 44.761 351.896C40.73 353.915 38.794 358.833 39.113 363.329C39.433 367.825 41.595 371.974 43.982 375.798C47.324 381.153 51.424 386.36 57.133 389.052C62.842 391.744 70.476 393.806 74.503 388.945Z" fill="#FF725E"/>
<path d="M76.279 351.354C81.187 335.515 72.865 316.31 58.994 307.222C54.689 304.401 49.238 302.438 44.428 304.27C39.503 306.146 36.674 311.639 36.518 316.907C36.363 322.175 38.391 327.254 40.72 331.982C43.98 338.602 48.138 345.14 54.463 348.94C60.789 352.74 71.026 356.536 76.279 351.354Z" fill="#FF725E"/>
<path d="M83.569 428.774C83.546 428.776 83.491 428.512 83.409 428.007C83.323 427.43 83.214 426.698 83.08 425.798C83.012 425.31 82.938 424.777 82.858 424.201C82.745 423.616 82.624 422.988 82.495 422.317C82.237 420.965 81.971 419.422 81.528 417.747C81.324 416.904 81.111 416.023 80.889 415.106C80.623 414.198 80.346 413.255 80.06 412.28C79.532 410.314 78.751 408.281 78.02 406.114C76.397 401.837 74.38 397.222 71.906 392.556C69.385 387.913 66.653 383.681 63.985 379.963C62.583 378.156 61.32 376.381 59.974 374.854C59.319 374.077 58.686 373.325 58.077 372.601C57.436 371.91 56.82 371.245 56.23 370.609C55.079 369.314 53.94 368.239 52.956 367.277C52.469 366.798 52.012 366.35 51.587 365.933C51.151 365.548 50.748 365.192 50.379 364.865C49.703 364.255 49.153 363.76 48.72 363.37C48.345 363.022 48.155 362.831 48.17 362.813C48.184 362.795 48.403 362.951 48.806 363.266C49.261 363.632 49.839 364.097 50.55 364.669C50.932 364.983 51.349 365.325 51.801 365.696C52.239 366.102 52.71 366.538 53.213 367.004C54.226 367.944 55.394 369.001 56.573 370.282C57.176 370.912 57.807 371.571 58.462 372.255C59.085 372.975 59.731 373.722 60.399 374.495C61.772 376.016 63.059 377.787 64.483 379.596C67.195 383.316 69.96 387.566 72.497 392.238C74.987 396.933 77 401.586 78.601 405.901C79.321 408.087 80.086 410.138 80.595 412.123C80.87 413.107 81.135 414.058 81.391 414.975C81.599 415.9 81.799 416.789 81.991 417.64C82.406 419.331 82.642 420.888 82.865 422.252C82.975 422.929 83.079 423.563 83.175 424.152C83.234 424.733 83.289 425.27 83.34 425.763C83.423 426.672 83.491 427.41 83.545 427.992C83.583 428.504 83.592 428.772 83.569 428.774Z" fill="#263238"/>
<path d="M83.207 431.621C83.196 431.619 83.196 431.512 83.207 431.305C83.225 431.058 83.247 430.757 83.275 430.387C83.354 429.527 83.463 428.353 83.6 426.868C83.676 426.099 83.759 425.252 83.851 424.328C83.921 423.398 83.946 422.383 84.003 421.296C84.084 419.119 84.292 416.645 84.216 413.903C84.209 412.531 84.202 411.096 84.195 409.602C84.18 408.107 84.039 406.555 83.963 404.946C83.855 401.723 83.417 398.307 83.029 394.706C82.045 387.531 80.509 379.702 78.17 371.673C75.753 363.664 72.773 356.261 69.686 349.709C68.048 346.479 66.553 343.375 64.886 340.614C64.073 339.224 63.345 337.846 62.542 336.584C61.733 335.327 60.957 334.12 60.215 332.967C58.784 330.626 57.261 328.666 56.007 326.885C55.367 326.005 54.793 325.168 54.226 324.426C53.646 323.702 53.114 323.037 52.632 322.434C51.708 321.264 50.977 320.338 50.442 319.661C50.217 319.366 50.035 319.125 49.885 318.928C49.762 318.76 49.704 318.671 49.712 318.663C49.72 318.655 49.797 318.73 49.937 318.883C50.1 319.068 50.3 319.295 50.545 319.573C51.105 320.232 51.869 321.132 52.836 322.27C53.334 322.863 53.882 323.517 54.48 324.23C55.062 324.961 55.653 325.789 56.309 326.661C57.595 328.425 59.15 330.372 60.612 332.704C61.368 333.854 62.16 335.058 62.984 336.311C63.801 337.57 64.543 338.947 65.37 340.337C67.064 343.096 68.584 346.203 70.244 349.44C73.375 356.005 76.387 363.437 78.815 371.482C81.165 379.547 82.69 387.418 83.644 394.628C84.017 398.246 84.436 401.679 84.52 404.916C84.584 406.532 84.713 408.09 84.714 409.591C84.706 411.091 84.699 412.531 84.692 413.908C84.738 416.659 84.496 419.14 84.379 421.32C84.304 422.409 84.26 423.425 84.171 424.356C84.058 425.28 83.955 426.127 83.861 426.896C83.671 428.377 83.521 429.548 83.411 430.406C83.357 430.773 83.313 431.072 83.277 431.316C83.241 431.518 83.218 431.622 83.207 431.621Z" fill="#263238"/>
<path d="M109.896 277.795C109.906 277.801 109.861 277.9 109.765 278.088C109.647 278.309 109.502 278.579 109.323 278.911C108.896 279.674 108.31 280.718 107.571 282.039C107.195 282.72 106.743 283.458 106.308 284.299C105.885 285.15 105.427 286.071 104.936 287.057C104.441 288.048 103.913 289.104 103.355 290.223C102.821 291.356 102.313 292.58 101.747 293.85C101.198 295.128 100.581 296.448 100.014 297.856C99.468 299.274 98.9 300.747 98.312 302.272C98.019 303.035 97.72 303.811 97.417 304.599C97.146 305.4 96.871 306.213 96.592 307.038C96.036 308.689 95.463 310.388 94.876 312.129C92.703 319.156 90.644 326.981 88.905 335.29C87.222 343.615 86.04 351.622 85.168 358.928C84.42 366.247 83.868 372.855 83.717 378.419C83.576 381.199 83.547 383.716 83.538 385.927C83.502 388.138 83.494 390.043 83.546 391.599C83.567 393.113 83.584 394.31 83.596 395.185C83.594 395.562 83.593 395.869 83.592 396.119C83.587 396.33 83.579 396.438 83.568 396.438C83.556 396.438 83.542 396.331 83.524 396.122C83.507 395.873 83.487 395.567 83.461 395.191C83.418 394.317 83.359 393.12 83.285 391.606C83.193 390.049 83.163 388.142 83.163 385.927C83.136 383.712 83.132 381.19 83.243 378.403C83.333 372.825 83.838 366.199 84.554 358.86C85.394 351.533 86.56 343.502 88.248 335.155C89.991 326.823 92.075 318.979 94.287 311.941C94.885 310.197 95.468 308.496 96.035 306.842C96.32 306.016 96.601 305.203 96.878 304.401C97.188 303.612 97.493 302.836 97.792 302.072C98.394 300.547 98.976 299.074 99.535 297.657C100.117 296.25 100.749 294.931 101.313 293.656C101.894 292.388 102.418 291.167 102.969 290.038C103.546 288.924 104.09 287.872 104.601 286.886C105.11 285.906 105.586 284.992 106.025 284.146C106.478 283.312 106.948 282.581 107.342 281.909C108.129 280.613 108.752 279.588 109.206 278.84C109.407 278.522 109.571 278.262 109.705 278.051C109.822 277.876 109.887 277.789 109.896 277.795Z" fill="#263238"/>
<path d="M106.413 374.013C106.451 374.039 106.061 374.72 105.323 375.927C104.573 377.125 103.544 378.896 102.337 381.113C101.12 383.326 99.796 386.028 98.453 389.082C97.143 392.15 95.834 395.58 94.685 399.255C93.56 402.939 92.707 406.51 92.058 409.783C91.444 413.063 91.013 416.041 90.769 418.554C90.514 421.066 90.366 423.108 90.309 424.52C90.238 425.932 90.176 426.715 90.13 426.715C90.084 426.715 90.057 425.932 90.048 424.513C90.025 423.095 90.101 421.041 90.297 418.51C90.481 415.978 90.865 412.975 91.45 409.668C92.07 406.367 92.911 402.766 94.044 399.056C95.201 395.355 96.538 391.907 97.888 388.833C99.27 385.772 100.647 383.076 101.923 380.882C103.189 378.683 104.284 376.943 105.104 375.785C105.91 374.618 106.374 373.987 106.413 374.013Z" fill="#263238"/>
<path d="M63.434 421.716H108.468L103.019 467.711H69.043L63.434 421.716Z" fill="#455A64"/>
<path d="M65.078 462.746L68.903 467.711H103.019L106.953 462.905L65.078 462.746Z" fill="#263238"/>
<path d="M106.713 435.244C106.713 435.43 97.368 435.58 85.842 435.58C74.313 435.58 64.969 435.43 64.969 435.244C64.969 435.059 74.312 434.908 85.842 434.908C97.368 434.908 106.713 435.058 106.713 435.244Z" fill="white"/>
<path d="M106.713 438.306C106.713 438.491 97.368 438.642 85.842 438.642C74.313 438.642 64.969 438.492 64.969 438.306C64.969 438.12 74.312 437.97 85.842 437.97C97.368 437.97 106.713 438.121 106.713 438.306Z" fill="white"/>
<path d="M106.151 441.271C106.151 441.456 97.133 441.607 86.011 441.607C74.885 441.607 65.869 441.457 65.869 441.271C65.869 441.085 74.885 440.935 86.011 440.935C97.133 440.935 106.151 441.085 106.151 441.271Z" fill="white"/>
<path d="M461.824 467.763C461.824 467.907 364.293 468.023 244.01 468.023C123.685 468.023 26.175 467.906 26.175 467.763C26.175 467.619 123.685 467.503 244.01 467.503C364.293 467.503 461.824 467.619 461.824 467.763Z" fill="#263238"/>
<path d="M443.943 149.852C440.581 145.595 440.505 137.827 440.618 135.785C440.878 131.071 430.382 103.577 404.36 114.933L404.357 114.915C395.032 114.915 394.879 124.119 393.106 125.97C391.333 127.821 389.366 129.747 388.902 132.268C388.08 136.736 392.319 141.075 391.243 145.488C390.839 147.144 389.732 148.546 388.95 150.058L388.946 150.055C388.113 151.413 387.451 153.612 387.808 154.834C388.166 156.056 388.944 157.101 389.585 158.201C390.226 159.301 390.752 160.566 390.526 161.818C390.117 164.085 387.491 165.339 386.789 167.533C386.1 169.683 387.453 171.897 388.678 173.794C389.903 175.691 391.09 178.07 390.101 180.1C389.575 181.18 388.535 181.896 387.688 182.748C385.122 185.332 384.356 189.538 385.848 192.86C390.839 191.877 395.83 190.895 400.822 189.912C401.476 182.778 402.13 175.643 402.784 168.509C407.16 169.596 411.953 166.797 414.026 166.271L416.577 164.892C422.155 165.873 428.176 165.523 433.07 162.672C437.964 159.822 445.213 163.465 444.264 157.881C443.804 155.172 445.647 152.009 443.943 149.852Z" fill="#263238"/>
<path d="M426.876 123.835L406.514 117.806C399.954 116.844 395.246 124.779 394.563 131.374C393.804 138.702 393.166 147.677 393.816 153.194C395.122 164.286 403.513 166.029 403.513 166.029C403.514 166.015 402.044 181.74 401.906 185.672L427.018 172.819L430.187 127.907C430.307 125.896 428.869 124.128 426.876 123.835Z" fill="#FFD3C1"/>
<path d="M395.827 140.413C395.771 141.158 396.355 141.821 397.133 141.894C397.909 141.967 398.585 141.424 398.642 140.678C398.698 139.933 398.114 139.269 397.338 139.196C396.56 139.123 395.883 139.667 395.827 140.413Z" fill="#263238"/>
<path d="M395.071 137.176C395.208 137.361 396.416 137.099 397.914 137.544C399.415 137.974 400.366 138.866 400.564 138.779C400.66 138.743 400.547 138.45 400.136 138.052C399.732 137.658 398.993 137.172 398.058 136.898C397.123 136.626 396.271 136.646 395.751 136.772C395.221 136.896 395.001 137.092 395.071 137.176Z" fill="#263238"/>
<path d="M409.933 141.559C409.876 142.305 410.461 142.967 411.238 143.04C412.014 143.113 412.69 142.57 412.746 141.824C412.803 141.079 412.218 140.415 411.442 140.342C410.666 140.269 409.99 140.814 409.933 141.559Z" fill="#263238"/>
<path d="M410.186 139.18C410.407 139.284 411.502 138.546 413.203 138.307C414.9 138.053 416.253 138.435 416.413 138.276C416.492 138.204 416.251 137.994 415.658 137.818C415.076 137.642 414.118 137.526 413.059 137.68C412 137.834 411.154 138.211 410.688 138.539C410.213 138.87 410.079 139.134 410.186 139.18Z" fill="#263238"/>
<path d="M404.934 149.107C404.945 149.021 404.006 148.819 402.481 148.562C402.094 148.506 401.73 148.414 401.675 148.147C401.595 147.862 401.774 147.45 401.981 147.006C402.384 146.081 402.806 145.111 403.249 144.095C405.014 139.949 406.308 136.533 406.14 136.463C405.973 136.394 404.406 139.698 402.641 143.844C402.215 144.867 401.808 145.842 401.42 146.775C401.255 147.211 400.982 147.701 401.157 148.291C401.25 148.585 401.526 148.807 401.773 148.885C402.019 148.971 402.237 148.984 402.429 149.003C403.968 149.147 404.925 149.193 404.934 149.107Z" fill="#263238"/>
<path d="M403.512 166.029C403.512 166.029 410.756 166.958 418.28 162.838C418.155 162.86 413.762 170.51 403.243 168.953L403.512 166.029Z" fill="#F4AF9B"/>
<path d="M405.429 152.798C406.005 152.097 406.98 151.738 407.927 151.879C408.584 151.977 409.239 152.322 409.618 152.875C409.997 153.428 410.051 154.195 409.665 154.693C409.231 155.254 408.368 155.353 407.651 155.117C406.933 154.881 406.328 154.378 405.754 153.878C405.595 153.74 405.433 153.596 405.338 153.411C405.243 153.226 405.23 152.989 405.363 152.845" fill="#F4AF9B"/>
<path d="M409.368 150.339C409.121 150.315 409.051 151.966 407.591 153.08C406.133 154.199 404.381 153.942 404.358 154.173C404.331 154.276 404.737 154.509 405.479 154.559C406.207 154.614 407.28 154.422 408.174 153.74C409.065 153.056 409.474 152.112 409.558 151.437C409.649 150.751 409.481 150.334 409.368 150.339Z" fill="#263238"/>
<path d="M410.382 133.765C410.516 134.184 412.042 134.05 413.817 134.337C415.599 134.588 417.017 135.169 417.269 134.807C417.382 134.634 417.147 134.235 416.581 133.811C416.021 133.388 415.116 132.971 414.049 132.808C412.982 132.648 411.995 132.778 411.334 133.017C410.668 133.255 410.325 133.566 410.382 133.765Z" fill="#263238"/>
<path d="M396.706 132.783C396.96 133.139 398.022 132.823 399.283 132.857C400.545 132.847 401.601 133.183 401.861 132.832C401.976 132.661 401.822 132.308 401.369 131.962C400.923 131.618 400.165 131.32 399.298 131.312C398.431 131.305 397.668 131.587 397.216 131.924C396.755 132.26 396.595 132.61 396.706 132.783Z" fill="#263238"/>
<path d="M404.112 116.365C412.297 117.664 420.327 119.941 427.975 123.135C429.748 123.875 431.607 124.755 432.61 126.394C433.671 128.129 433.534 130.313 433.362 132.339C432.523 142.218 431.684 152.098 430.845 161.977L429.783 161.922C426.728 162.418 426.517 160.865 424.332 158.673C422.147 156.481 421.101 153.212 421.606 150.159C422.052 147.465 423.616 144.766 422.775 142.168C421.663 138.733 416.955 137.51 415.823 134.081C415.165 132.089 415.91 129.815 415.154 127.858C414.443 126.018 412.577 124.902 410.749 124.161C408.92 123.42 406.95 122.881 405.44 121.612C403.928 120.344 403.044 118.023 404.112 116.365Z" fill="#263238"/>
<path d="M337.269 173.313H256.555C253.268 173.313 250.603 170.648 250.603 167.361V102.486C250.603 99.199 253.268 96.534 256.555 96.534H337.269C340.557 96.534 343.222 99.199 343.222 102.486V167.361C343.222 170.648 340.557 173.313 337.269 173.313Z" fill="#263238"/>
<path d="M296.912 146.78C304.284 146.78 310.26 140.804 310.26 133.432C310.26 126.06 304.284 120.084 296.912 120.084C289.54 120.084 283.564 126.06 283.564 133.432C283.564 140.804 289.54 146.78 296.912 146.78Z" fill="#FF725E"/>
<path d="M380.678 431.54L382.987 453.79C382.987 453.79 361.147 463.61 361.173 467.763L404.475 464.835L402.3 430.019L380.678 431.54Z" fill="#455A64"/>
<g opacity="0.3">
<path d="M380.678 431.54L382.987 453.79C382.987 453.79 361.147 463.61 361.173 467.763L404.475 464.835L402.3 430.019L380.678 431.54Z" fill="black"/>
</g>
<g opacity="0.6">
<path d="M396.25 451.008C397.104 451.181 397.746 452.084 397.609 452.944C397.472 453.804 396.559 454.465 395.703 454.308C394.847 454.151 394.042 453.09 394.274 452.251C394.507 451.412 395.621 450.694 396.415 451.052" fill="white"/>
</g>
<g opacity="0.6">
<path d="M404.475 464.835L404.119 461.334L362.735 465.45C362.735 465.45 360.864 466.419 361.174 467.762L404.475 464.835Z" fill="white"/>
</g>
<path d="M382.27 453.617C382.291 453.828 383.355 453.852 384.441 454.462C385.543 455.043 386.141 455.923 386.33 455.826C386.522 455.772 386.121 454.529 384.793 453.814C383.473 453.087 382.211 453.426 382.27 453.617Z" fill="#263238"/>
<path d="M377.855 455.803C377.821 456.011 378.761 456.309 379.539 457.155C380.342 457.978 380.589 458.932 380.799 458.909C381 458.929 381.062 457.681 380.074 456.648C379.096 455.605 377.847 455.601 377.855 455.803Z" fill="#263238"/>
<path d="M375.643 461.413C375.838 461.445 376.061 460.369 375.44 459.248C374.827 458.122 373.799 457.733 373.721 457.915C373.613 458.097 374.297 458.675 374.793 459.603C375.311 460.519 375.432 461.406 375.643 461.413Z" fill="#263238"/>
<path d="M382.306 448.488C382.408 448.675 383.358 448.317 384.559 448.318C385.76 448.294 386.716 448.632 386.815 448.443C386.927 448.282 385.966 447.56 384.552 447.58C383.138 447.589 382.191 448.329 382.306 448.488Z" fill="#263238"/>
<path d="M381.923 443.991C381.927 444.078 382.771 444.153 384.091 443.833C384.748 443.673 385.516 443.403 386.313 442.982C386.711 442.772 387.115 442.524 387.514 442.237C387.705 442.095 387.933 441.95 388.134 441.683C388.353 441.447 388.449 440.877 388.155 440.552C387.911 440.234 387.509 440.117 387.196 440.131C386.876 440.142 386.622 440.224 386.39 440.299C385.916 440.448 385.474 440.639 385.073 440.853C384.271 441.285 383.631 441.807 383.162 442.301C382.22 443.299 381.931 444.112 382.006 444.148C382.107 444.211 382.55 443.516 383.521 442.679C384.005 442.263 384.63 441.823 385.382 441.459C385.759 441.279 386.167 441.118 386.601 440.991C387.052 440.84 387.441 440.81 387.573 441.006C387.621 441.081 387.629 441.111 387.542 441.252C387.451 441.382 387.274 441.516 387.086 441.657C386.72 441.933 386.349 442.176 385.984 442.389C385.254 442.815 384.549 443.12 383.942 443.334C382.724 443.763 381.912 443.876 381.923 443.991Z" fill="#263238"/>
<path d="M382.219 444.275C382.296 444.303 382.664 443.517 382.649 442.142C382.639 441.46 382.513 440.642 382.193 439.788C382.031 439.362 381.82 438.929 381.552 438.509C381.269 438.099 380.921 437.547 380.095 437.508C379.666 437.521 379.332 437.88 379.23 438.174C379.107 438.476 379.095 438.73 379.061 438.984C379.015 439.495 379.058 439.99 379.158 440.445C379.357 441.357 379.786 442.099 380.236 442.622C381.158 443.687 382.058 443.88 382.07 443.807C382.134 443.696 381.369 443.338 380.648 442.303C380.293 441.793 379.962 441.111 379.824 440.312C379.754 439.914 379.732 439.488 379.779 439.056C379.816 438.591 379.963 438.208 380.139 438.243C380.354 438.225 380.744 438.547 380.946 438.902C381.195 439.275 381.398 439.66 381.563 440.041C381.887 440.805 382.056 441.546 382.129 442.176C382.275 443.444 382.102 444.25 382.219 444.275Z" fill="#263238"/>
<path d="M376.924 268.702C376.924 268.702 357.74 355.781 357.152 363.556C356.564 371.331 380.925 438.461 380.925 438.461L401.889 434.503C401.889 434.503 400.557 335.371 399.877 333.427C399.197 331.483 405.234 282.764 405.234 282.764L376.924 268.702Z" fill="#263238"/>
<path d="M390.318 432.576L390.55 454.944C390.55 454.944 367.891 462.692 367.532 466.829L410.913 467.281L411.988 433.07L390.318 432.576Z" fill="#455A64"/>
<g opacity="0.6">
<path d="M404.014 453.407C404.848 453.658 405.404 454.617 405.187 455.46C404.971 456.303 404 456.877 403.162 456.641C402.324 456.405 401.621 455.274 401.931 454.46C402.241 453.646 403.417 453.034 404.174 453.465" fill="white"/>
</g>
<g opacity="0.6">
<path d="M410.913 467.282L410.889 464.42L369.301 464.673C369.301 464.673 367.348 465.464 367.532 466.83L410.913 467.282Z" fill="white"/>
</g>
<path d="M389.852 454.705C389.854 454.917 390.91 455.04 391.936 455.748C392.979 456.429 393.493 457.36 393.69 457.282C393.886 457.246 393.603 455.971 392.346 455.136C391.099 454.29 389.811 454.51 389.852 454.705Z" fill="#263238"/>
<path d="M385.254 456.471C385.201 456.675 386.109 457.059 386.805 457.973C387.528 458.867 387.685 459.84 387.896 459.837C388.094 459.875 388.273 458.638 387.385 457.518C386.508 456.39 385.264 456.27 385.254 456.471Z" fill="#263238"/>
<path d="M382.53 461.852C382.721 461.902 383.043 460.851 382.529 459.677C382.023 458.499 381.036 458.016 380.941 458.19C380.817 458.361 381.444 459 381.852 459.971C382.282 460.931 382.32 461.826 382.53 461.852Z" fill="#263238"/>
<path d="M390.365 449.602C390.449 449.797 391.428 449.53 392.624 449.642C393.822 449.729 394.743 450.155 394.858 449.976C394.984 449.826 394.095 449.019 392.685 448.906C391.277 448.784 390.265 449.433 390.365 449.602Z" fill="#263238"/>
<g opacity="0.3">
<path d="M390.369 437.006L390.405 440.992L411.734 441.343L411.853 437.755L390.369 437.006Z" fill="black"/>
</g>
<path d="M390.401 445.088C390.397 445.176 391.23 445.328 392.574 445.132C393.243 445.034 394.033 444.836 394.865 444.492C395.28 444.319 395.706 444.111 396.13 443.862C396.333 443.739 396.574 443.615 396.799 443.368C397.04 443.153 397.187 442.595 396.925 442.244C396.711 441.905 396.322 441.751 396.009 441.736C395.689 441.718 395.429 441.775 395.191 441.828C394.705 441.933 394.248 442.081 393.828 442.257C392.989 442.613 392.304 443.072 391.791 443.521C390.761 444.427 390.397 445.21 390.468 445.253C390.562 445.325 391.069 444.674 392.113 443.931C392.633 443.561 393.296 443.182 394.079 442.888C394.471 442.743 394.892 442.621 395.336 442.535C395.799 442.426 396.19 442.433 396.303 442.64C396.344 442.719 396.348 442.75 396.249 442.882C396.146 443.003 395.957 443.12 395.757 443.243C395.367 443.483 394.975 443.691 394.592 443.87C393.826 444.226 393.095 444.464 392.471 444.621C391.22 444.936 390.401 444.974 390.401 445.088Z" fill="#263238"/>
<path d="M390.67 445.399C390.744 445.433 391.184 444.685 391.297 443.315C391.351 442.635 391.301 441.809 391.061 440.928C390.939 440.489 390.769 440.038 390.541 439.595C390.298 439.16 390.002 438.578 389.183 438.463C388.754 438.436 388.389 438.762 388.26 439.046C388.109 439.336 388.074 439.587 388.017 439.837C387.924 440.342 387.921 440.839 387.978 441.3C388.091 442.227 388.449 443.005 388.849 443.569C389.668 444.715 390.545 444.991 390.565 444.919C390.639 444.814 389.91 444.387 389.289 443.29C388.983 442.749 388.716 442.04 388.654 441.231C388.621 440.828 388.639 440.402 388.726 439.976C388.806 439.516 388.988 439.149 389.16 439.201C389.376 439.203 389.734 439.56 389.902 439.932C390.115 440.327 390.282 440.729 390.41 441.124C390.662 441.915 390.761 442.669 390.775 443.303C390.802 444.576 390.555 445.364 390.67 445.399Z" fill="#263238"/>
<path d="M425.674 267.36L376.925 268.702L383.922 355.438L388.261 439.046L413.549 439.929C414.84 423.791 414.934 366.762 414.934 366.762L420.039 332.317C421.224 323.029 424.951 313.272 426.746 304.936C427.801 300.039 429.342 293.688 429.669 291.615C430.636 285.481 425.674 267.36 425.674 267.36Z" fill="#263238"/>
<path d="M379.763 288.661C379.772 288.661 379.774 288.793 379.769 289.05C379.761 289.33 379.751 289.708 379.737 290.19C379.697 291.218 379.64 292.689 379.568 294.57C379.484 296.471 379.387 298.798 379.306 301.5C379.221 304.202 379.092 307.277 379.029 310.679C378.844 317.481 378.743 325.584 378.776 334.579C378.844 343.574 379.06 353.463 379.565 363.832C380.099 374.203 380.884 384.065 381.775 393.017C382.266 397.488 382.7 401.741 383.238 405.705C383.498 407.688 383.718 409.608 383.983 411.446C384.252 413.283 384.509 415.046 384.756 416.73C385.219 420.101 385.763 423.13 386.194 425.798C386.616 428.468 387.033 430.758 387.386 432.628C387.72 434.48 387.981 435.928 388.164 436.941C388.244 437.416 388.307 437.789 388.354 438.065C388.394 438.319 388.41 438.45 388.402 438.451C388.394 438.453 388.361 438.325 388.304 438.075C388.245 437.801 388.166 437.432 388.065 436.96C387.861 435.951 387.569 434.509 387.195 432.664C386.813 430.799 386.368 428.513 385.92 425.846C385.463 423.181 384.894 420.153 384.408 416.783C384.151 415.1 383.883 413.336 383.603 411.5C383.327 409.662 383.097 407.743 382.829 405.759C382.272 401.794 381.823 397.539 381.319 393.065C380.402 384.108 379.603 374.238 379.068 363.858C378.563 353.481 378.36 343.584 378.317 334.582C378.31 325.58 378.446 317.474 378.677 310.67C378.762 307.267 378.917 304.191 379.028 301.489C379.135 298.787 379.261 296.461 379.374 294.561C379.487 292.682 379.575 291.212 379.637 290.185C379.671 289.704 379.698 289.327 379.718 289.048C379.74 288.791 379.755 288.66 379.763 288.661Z" fill="#455A64"/>
<path d="M352.014 172.656L339.529 159.327L329.688 166.22L339.529 180.775L352.014 172.656Z" fill="#FFD3C1"/>
<path d="M430.945 177.583L430.335 169.134L402.147 168.726L401.906 179.335C401.906 179.335 388.068 194.301 383.043 211.092C374.598 239.312 371.539 275.233 371.539 275.233H429.231C428.631 265.295 424.527 243.049 424.527 243.049L437.352 204.8C440.541 191.053 430.945 177.583 430.945 177.583Z" fill="#FF725E"/>
<path d="M361.144 215.772C361.144 215.772 361.304 215.926 361.623 216.204C361.931 216.496 362.424 216.88 363.086 217.339C364.408 218.236 366.54 219.345 369.407 219.765C370.829 219.988 372.44 219.982 374.107 219.717C375.783 219.525 377.573 219.296 379.455 219.046C383.218 218.537 387.345 217.903 391.666 217.174C400.268 215.665 408.052 214.299 413.77 213.295C416.552 212.841 418.827 212.469 420.481 212.199C421.227 212.08 421.832 211.983 422.307 211.908C422.724 211.839 422.942 211.792 422.942 211.792C422.942 211.792 422.72 211.81 422.301 211.865C421.825 211.93 421.218 212.013 420.469 212.116C418.879 212.34 416.581 212.686 413.746 213.144C408.073 214.046 400.27 215.49 391.631 216.96C387.312 217.688 383.188 218.328 379.429 218.848C377.549 219.103 375.761 219.339 374.083 219.539C372.413 219.812 370.848 219.824 369.429 219.614C366.588 219.218 364.462 218.14 363.133 217.27C362.468 216.823 361.969 216.452 361.652 216.172C361.324 215.905 361.144 215.772 361.144 215.772Z" fill="#263238"/>
<path d="M432.72 202.135C432.727 202.136 432.748 202.059 432.781 201.91C432.823 201.705 432.867 201.49 432.915 201.258C433.025 200.691 433.173 199.867 433.315 198.843C433.584 196.809 433.876 193.891 433.107 190.79C432.321 187.686 430.378 185.319 428.624 184.21C427.749 183.644 426.954 183.334 426.39 183.196C425.827 183.053 425.506 183.033 425.506 183.033C425.477 183.102 426.826 183.179 428.539 184.337C430.24 185.458 432.125 187.795 432.897 190.843C433.655 193.895 433.393 196.79 433.163 198.823C433.041 199.846 432.916 200.672 432.832 201.243C432.798 201.477 432.768 201.694 432.738 201.901C432.719 202.054 432.713 202.134 432.72 202.135Z" fill="#263238"/>
<path d="M372.709 209.02C372.724 209.018 372.708 208.793 372.666 208.388C372.616 207.853 372.564 207.286 372.507 206.673C372.386 205.225 372.286 203.218 372.34 201.001C372.397 198.784 372.598 196.784 372.791 195.344C372.879 194.734 372.96 194.171 373.036 193.639C373.098 193.237 373.125 193.013 373.11 193.01C373.095 193.007 373.04 193.226 372.953 193.624C372.864 194.022 372.755 194.602 372.639 195.322C372.406 196.761 372.18 198.769 372.123 200.996C372.069 203.223 372.194 205.238 372.354 206.688C372.433 207.413 372.513 207.997 372.583 208.4C372.65 208.802 372.694 209.023 372.709 209.02Z" fill="#263238"/>
<path d="M402.241 179.18C402.828 177.184 404.086 175.464 405.323 173.791C407.343 171.058 409.524 168.204 412.668 166.915C414.81 166.036 420.342 166.523 421.816 164.737C426.415 159.163 419.677 155.702 422.125 148.036C424.806 139.641 423.42 140.927 423.626 134.324L433.842 129.906C435.45 131.107 439.915 135.442 439.421 137.388C438.927 139.333 439.073 141.501 439.812 143.816C441.383 148.739 446.803 151.642 449.367 156.129C451.993 160.726 449.034 166.819 448.963 172.113C448.893 177.407 450.891 183.771 456.058 184.924C454.131 188.805 450.894 192.022 447.001 193.926C445.92 192.455 444.84 190.983 443.759 189.512C444.402 193.505 441.684 197.763 437.791 198.861C436.704 194.215 435.555 189.43 432.743 185.576C429.93 181.722 424.994 179.003 420.386 180.237C417.302 181.063 414.917 183.441 412.163 185.055C409.409 186.669 405.505 187.354 403.301 185.045C401.864 183.538 401.654 181.176 402.241 179.18Z" fill="#263238"/>
<g opacity="0.3">
<path d="M383.042 218.383C396.336 215.957 414.05 213.057 427.344 210.631C427.84 210.54 428.368 210.452 428.837 210.639C429.718 210.99 429.975 212.209 429.578 213.071C429.181 213.933 428.336 214.493 427.495 214.933C423.133 217.213 418.017 217.396 413.097 217.531C404.695 217.76 391.445 218.154 383.042 218.383Z" fill="black"/>
</g>
<path d="M373.335 219.706C377.469 219.791 425.069 211.091 425.069 211.091Z" fill="#FF725E"/>
<path d="M424.26 181.37C427.748 181.801 430.024 182.407 434.096 186.766C434.532 187.233 434.938 187.813 435.314 188.476C439.851 196.478 436.565 207.524 427.871 210.528L419.451 212.261L373.335 219.705C373.335 219.705 363.51 221.913 355.074 208.817C351.979 204.012 330.671 172.229 330.671 172.229L344.671 162.858L372.893 193.052L424.26 181.37Z" fill="#FF725E"/>
<path d="M361.144 215.772C361.144 215.772 361.304 215.926 361.623 216.204C361.931 216.496 362.424 216.88 363.086 217.339C364.408 218.236 366.54 219.345 369.407 219.765C370.829 219.988 372.44 219.982 374.107 219.717C375.783 219.525 377.573 219.296 379.455 219.046C383.218 218.537 387.345 217.903 391.666 217.174C400.268 215.665 408.052 214.299 413.77 213.295C416.552 212.841 418.827 212.469 420.481 212.199C421.227 212.08 421.832 211.983 422.307 211.908C422.724 211.839 422.942 211.792 422.942 211.792C422.942 211.792 422.72 211.81 422.301 211.865C421.825 211.93 421.218 212.013 420.469 212.116C418.879 212.34 416.581 212.686 413.746 213.144C408.073 214.046 400.27 215.49 391.631 216.96C387.312 217.688 383.188 218.328 379.429 218.848C377.549 219.103 375.761 219.339 374.083 219.539C372.413 219.812 370.848 219.824 369.429 219.614C366.588 219.218 364.462 218.14 363.133 217.27C362.468 216.823 361.969 216.452 361.652 216.172C361.324 215.905 361.144 215.772 361.144 215.772Z" fill="#263238"/>
<path d="M432.72 202.135C432.727 202.136 432.748 202.059 432.781 201.91C432.823 201.705 432.867 201.49 432.915 201.258C433.025 200.691 433.173 199.867 433.315 198.843C433.584 196.809 433.876 193.891 433.107 190.79C432.321 187.686 430.378 185.319 428.624 184.21C427.749 183.644 426.954 183.334 426.39 183.196C425.827 183.053 425.506 183.033 425.506 183.033C425.477 183.102 426.826 183.179 428.539 184.337C430.24 185.458 432.125 187.795 432.897 190.843C433.655 193.895 433.393 196.79 433.163 198.823C433.041 199.846 432.916 200.672 432.832 201.243C432.798 201.477 432.768 201.694 432.738 201.901C432.719 202.054 432.713 202.134 432.72 202.135Z" fill="#263238"/>
<path d="M372.709 209.02C372.724 209.018 372.708 208.793 372.666 208.388C372.616 207.853 372.564 207.286 372.507 206.673C372.386 205.225 372.286 203.218 372.34 201.001C372.397 198.784 372.598 196.784 372.791 195.344C372.879 194.734 372.96 194.171 373.036 193.639C373.098 193.237 373.125 193.013 373.11 193.01C373.095 193.007 373.04 193.226 372.953 193.624C372.864 194.022 372.755 194.602 372.639 195.322C372.406 196.761 372.18 198.769 372.123 200.996C372.069 203.223 372.194 205.238 372.354 206.688C372.433 207.413 372.513 207.997 372.583 208.4C372.65 208.802 372.694 209.023 372.709 209.02Z" fill="#263238"/>
<path d="M339.468 149.035C339.088 146.062 339.137 144.206 339.211 143.302C339.246 142.884 338.896 142.548 338.478 142.587C337.718 142.657 336.6 143.086 335.909 144.832C335.487 145.898 335.612 146.998 335.622 148.065C335.639 149.843 335.622 151.246 335.622 151.246C335.622 151.246 326.742 140.617 324.942 140.137C323.967 139.877 323.62 140.169 323.265 140.74C322.935 141.269 323.592 142.511 323.592 142.511L328.598 149.674C328.598 149.674 321.03 140.766 319.663 140.792C318.26 140.818 317.691 141.828 318.555 143.442C319.2 144.648 325.811 152.484 325.811 152.484C325.811 152.484 318.738 145.657 317.335 145.714C315.925 145.772 316.164 147.262 316.904 147.883C317.644 148.505 322.879 154.586 322.879 154.586C322.879 154.586 317.769 150.273 316.737 150.612C315.679 150.959 316.151 152.095 316.696 153.019C317.241 153.943 330.056 166.764 330.056 166.764L341.167 161.183C341.461 159.622 341.405 158.02 340.998 156.484C340.492 154.582 339.813 151.736 339.468 149.035Z" fill="#FFD3C1"/>
<path d="M176.191 275.308C170.541 275.308 165.96 270.727 165.96 265.077V176.141C165.96 171.616 169.877 167.947 174.709 167.947H183.072C186.485 167.947 189.586 166.089 191.016 163.187L192.813 159.541C194.243 156.639 197.344 154.781 200.757 154.781H240.454C243.548 154.781 246.412 156.312 247.987 158.807L249.937 161.897C251.511 164.392 254.375 165.923 257.47 165.923H308.075C312.907 165.923 316.824 169.592 316.824 174.117V265.079C316.824 270.729 312.243 275.31 306.593 275.31H176.191V275.308Z" fill="#FF725E"/>
<g opacity="0.3">
<path d="M176.191 275.308C170.541 275.308 165.96 270.727 165.96 265.077V176.141C165.96 171.616 169.877 167.947 174.709 167.947H183.072C186.485 167.947 189.586 166.089 191.016 163.187L192.813 159.541C194.243 156.639 197.344 154.781 200.757 154.781H240.454C243.548 154.781 246.412 156.312 247.987 158.807L249.937 161.897C251.511 164.392 254.375 165.923 257.47 165.923H308.075C312.907 165.923 316.824 169.592 316.824 174.117V265.079C316.824 270.729 312.243 275.31 306.593 275.31H176.191V275.308Z" fill="black"/>
</g>
<path d="M252.477 165.921L220.285 165.85L217.409 160.472C215.543 156.983 211.734 154.78 207.568 154.78H176.101C170.5 154.78 165.96 159.032 165.96 164.278V167.947V264.517C165.96 270.477 171.119 275.308 177.482 275.308H305.302C311.665 275.308 316.824 270.477 316.824 264.517V173.29C316.824 169.22 313.525 165.921 309.455 165.921H252.477Z" fill="#FF725E"/>
<path d="M268.713 241.881H254.464C253.907 241.881 253.456 241.43 253.456 240.873C253.456 240.316 253.907 239.865 254.464 239.865H268.713C276.53 239.865 282.89 233.505 282.89 225.688C282.89 218.168 277.003 211.958 269.489 211.55C269.05 211.526 268.677 211.221 268.567 210.795C265.984 200.784 256.967 193.793 246.638 193.793C239.732 193.793 233.283 196.896 228.947 202.305C228.73 202.575 228.387 202.719 228.045 202.676C227.253 202.584 226.546 202.54 225.882 202.54C215.591 202.54 207.219 210.912 207.219 221.203C207.219 231.493 215.591 239.865 225.882 239.865H237.431C237.988 239.865 238.439 240.316 238.439 240.873C238.439 241.43 237.988 241.881 237.431 241.881H225.882C214.48 241.881 205.203 232.605 205.203 221.203C205.203 209.801 214.48 200.524 225.882 200.524C226.464 200.524 227.071 200.554 227.725 200.615C232.439 194.991 239.301 191.777 246.638 191.777C257.645 191.777 267.284 199.066 270.328 209.593C278.56 210.409 284.907 217.342 284.907 225.687C284.906 234.617 277.642 241.881 268.713 241.881Z" fill="white"/>
<path d="M245.673 250.978C245.116 250.978 244.665 250.527 244.665 249.97V223.971C244.665 223.414 245.116 222.963 245.673 222.963C246.23 222.963 246.681 223.414 246.681 223.971V249.97C246.681 250.527 246.23 250.978 245.673 250.978Z" fill="white"/>
<path d="M253.27 234.351C252.962 234.351 252.659 234.211 252.461 233.946L245.836 225.068C245.78 224.995 245.727 224.993 245.642 224.978C245.586 224.978 245.509 224.995 245.447 225.071L238.416 233.704C238.065 234.137 237.43 234.201 236.998 233.849C236.566 233.498 236.501 232.863 236.853 232.431L243.883 223.799C244.322 223.257 244.977 222.967 245.676 222.962C246.375 222.972 247.02 223.297 247.444 223.852L254.076 232.739C254.409 233.185 254.317 233.817 253.871 234.149C253.691 234.286 253.48 234.351 253.27 234.351Z" fill="white"/>
<path d="M226.16 296.384V291.9H226.987V296.35C226.987 298.206 227.859 299.056 229.38 299.056C230.912 299.056 231.784 298.207 231.784 296.35V291.9H232.589V296.384C232.589 298.631 231.381 299.794 229.38 299.794C227.378 299.794 226.16 298.632 226.16 296.384Z" fill="#263238"/>
<path d="M240.87 296.786C240.87 298.575 239.618 299.783 237.941 299.783C237.002 299.783 236.197 299.38 235.705 298.619V301.896H234.911V293.845H235.671V295.008C236.152 294.225 236.968 293.801 237.941 293.801C239.618 293.802 240.87 295.008 240.87 296.786ZM240.076 296.786C240.076 295.423 239.126 294.494 237.884 294.494C236.632 294.494 235.693 295.422 235.693 296.786C235.693 298.162 236.632 299.078 237.884 299.078C239.125 299.078 240.076 298.162 240.076 296.786Z" fill="#263238"/>
<path d="M242.487 291.43H243.281V299.727H242.487V291.43Z" fill="#263238"/>
<path d="M244.901 296.786C244.901 295.042 246.176 293.802 247.898 293.802C249.62 293.802 250.883 295.042 250.883 296.786C250.883 298.531 249.619 299.783 247.898 299.783C246.176 299.783 244.901 298.531 244.901 296.786ZM250.078 296.786C250.078 295.411 249.15 294.494 247.898 294.494C246.645 294.494 245.706 295.41 245.706 296.786C245.706 298.162 246.645 299.078 247.898 299.078C249.15 299.078 250.078 298.162 250.078 296.786Z" fill="#263238"/>
<path d="M256.907 296.082V299.727H256.147V298.811C255.789 299.414 255.096 299.784 254.123 299.784C252.792 299.784 251.976 299.091 251.976 298.073C251.976 297.167 252.557 296.406 254.245 296.406H256.112V296.049C256.112 295.042 255.542 294.495 254.446 294.495C253.686 294.495 252.97 294.763 252.49 295.188L252.132 294.595C252.724 294.092 253.597 293.802 254.524 293.802C256.046 293.802 256.907 294.561 256.907 296.082ZM256.113 297.96V296.998H254.268C253.128 296.998 252.759 297.446 252.759 298.049C252.759 298.731 253.307 299.156 254.246 299.156C255.14 299.157 255.8 298.732 256.113 297.96Z" fill="#263238"/>
<path d="M264.451 291.43V299.727H263.69V298.564C263.21 299.357 262.394 299.783 261.42 299.783C259.744 299.783 258.491 298.564 258.491 296.786C258.491 295.008 259.744 293.802 261.42 293.802C262.36 293.802 263.165 294.204 263.656 294.964V291.43H264.451ZM263.669 296.786C263.669 295.411 262.729 294.494 261.489 294.494C260.236 294.494 259.297 295.41 259.297 296.786C259.297 298.162 260.236 299.078 261.489 299.078C262.729 299.078 263.669 298.162 263.669 296.786Z" fill="#263238"/>
<path d="M266.147 299.168C266.147 298.822 266.415 298.565 266.74 298.565C267.065 298.565 267.343 298.822 267.343 299.168C267.343 299.514 267.064 299.783 266.74 299.783C266.415 299.783 266.147 299.514 266.147 299.168Z" fill="#263238"/>
<path d="M268.516 299.168C268.516 298.822 268.785 298.565 269.109 298.565C269.434 298.565 269.713 298.822 269.713 299.168C269.713 299.514 269.433 299.783 269.109 299.783C268.785 299.783 268.516 299.514 268.516 299.168Z" fill="#263238"/>
<path d="M270.886 299.168C270.886 298.822 271.155 298.565 271.478 298.565C271.803 298.565 272.081 298.822 272.081 299.168C272.081 299.514 271.802 299.783 271.478 299.783C271.154 299.783 270.886 299.514 270.886 299.168Z" fill="#263238"/>
<path d="M321.811 328.301H165.846C162.186 328.301 159.219 325.334 159.219 321.675V319.74C159.219 316.08 162.186 313.113 165.846 313.113H321.81C325.47 313.113 328.436 316.08 328.436 319.74V321.675C328.437 325.334 325.47 328.301 321.811 328.301Z" fill="#E0E0E0"/>
<path d="M237.202 328.301H165.846C162.186 328.301 159.219 325.334 159.219 321.675V319.74C159.219 316.08 162.186 313.113 165.846 313.113H237.202C240.862 313.113 243.828 316.08 243.828 319.74V321.675C243.828 325.334 240.862 328.301 237.202 328.301Z" fill="#FF725E"/>
<g opacity="0.3">
<path d="M172.005 313.112L162.999 327.398L164.413 328.03C164.813 328.209 165.244 328.301 165.678 328.301H168.542L178.321 313.113H172.005V313.112Z" fill="white"/>
</g>
<g opacity="0.3">
<path d="M188.1 313.112L178.525 328.301H184.636L194.415 313.112H188.1Z" fill="white"/>
</g>
<g opacity="0.3">
<path d="M204.194 313.112L194.619 328.301H200.731L210.509 313.112H204.194Z" fill="white"/>
</g>
<g opacity="0.3">
<path d="M220.288 313.112L210.713 328.301H216.825L226.604 313.112H220.288Z" fill="white"/>
</g>
<g opacity="0.3">
<path d="M236.382 313.112L226.807 328.3H232.919L240.623 316.334L241.535 315.035C240.36 313.728 238.547 313.204 236.382 313.112Z" fill="white"/>
</g>
<path d="M321.958 328.301C321.957 328.281 322.272 328.291 322.873 328.204C323.469 328.12 324.373 327.91 325.382 327.287C326.387 326.688 327.489 325.604 328.113 323.993C328.427 323.189 328.567 322.266 328.547 321.268C328.527 320.266 328.618 319.19 328.311 318.115C327.781 315.973 325.871 313.835 323.17 313.354C322.507 313.218 321.814 313.247 321.093 313.243C320.376 313.245 319.644 313.247 318.898 313.248C317.406 313.251 315.856 313.255 314.251 313.259C307.827 313.271 300.515 313.284 292.434 313.298C260.091 313.318 215.432 313.345 166.107 313.375C164.623 313.382 163.157 313.903 162.017 314.84C160.882 315.783 160.092 317.113 159.805 318.548C159.654 319.263 159.689 320.002 159.682 320.77C159.679 321.54 159.674 322.265 159.828 322.977C160.132 324.401 160.945 325.693 162.061 326.607C163.183 327.52 164.611 328.02 166.044 328.037C167.534 328.038 169.018 328.04 170.496 328.041C173.454 328.042 176.387 328.042 179.296 328.043C190.928 328.048 202.148 328.053 212.837 328.058C234.212 328.079 253.46 328.098 269.63 328.114C285.788 328.149 298.865 328.178 307.918 328.197C312.429 328.218 315.934 328.235 318.328 328.246C319.508 328.257 320.412 328.266 321.035 328.272C321.645 328.283 321.958 328.301 321.958 328.301C321.958 328.301 321.645 328.319 321.036 328.328C320.413 328.334 319.509 328.343 318.329 328.354C315.936 328.365 312.43 328.382 307.919 328.403C298.866 328.423 285.789 328.451 269.631 328.486C253.461 328.502 234.212 328.521 212.838 328.542C202.149 328.547 190.929 328.552 179.297 328.557C176.389 328.558 173.455 328.558 170.497 328.559C169.017 328.558 167.532 328.558 166.041 328.557C164.493 328.54 162.946 327.998 161.733 327.012C160.526 326.025 159.646 324.628 159.317 323.087C159.149 322.316 159.156 321.515 159.159 320.77C159.166 320.024 159.127 319.23 159.291 318.447C159.601 316.893 160.456 315.453 161.684 314.435C162.916 313.421 164.505 312.855 166.108 312.849C215.433 312.879 260.092 312.906 292.435 312.926C300.516 312.94 307.828 312.953 314.252 312.965C315.857 312.969 317.407 312.972 318.899 312.976C319.645 312.978 320.377 312.98 321.094 312.981C321.804 312.988 322.527 312.962 323.217 313.107C326.019 313.623 327.979 315.849 328.51 318.062C328.818 319.181 328.716 320.275 328.729 321.267C328.742 322.273 328.589 323.232 328.26 324.048C327.605 325.691 326.468 326.782 325.438 327.376C324.404 327.993 323.485 328.188 322.882 328.256C322.272 328.327 321.958 328.301 321.958 328.301Z" fill="#263238"/>
<g clip-path="url(#clip0_10_4414)">
<path d="M295 135.631H299V134.684H295V135.631ZM295 133.107H299V132.159H295V133.107ZM293.966 138C293.695 138 293.466 137.89 293.278 137.671C293.093 137.448 293 137.178 293 136.86V127.14C293 126.822 293.093 126.553 293.278 126.333C293.466 126.111 293.695 126 293.966 126H298.2L301 129.316V136.86C301 137.178 300.906 137.448 300.719 137.671C300.533 137.89 300.305 138 300.034 138H293.966ZM297.8 129.79V126.948H293.966C293.924 126.948 293.885 126.967 293.85 127.007C293.817 127.046 293.8 127.091 293.8 127.14V136.86C293.8 136.909 293.817 136.954 293.85 136.993C293.885 137.033 293.924 137.052 293.966 137.052H300.034C300.076 137.052 300.114 137.033 300.147 136.993C300.182 136.954 300.2 136.909 300.2 136.86V129.79H297.8ZM293.8 129.79V136.86V127.14V127.007" fill="white"/>
</g>
<defs>
<clipPath id="clip0_10_4414">
<rect width="8" height="12" fill="white" transform="translate(293 126)"/>
</clipPath>
</defs>
</svg>
