<svg width="500" height="500" viewBox="0 0 500 500" fill="none" xmlns="http://www.w3.org/2000/svg">
<path d="M339.204 367.825L336.941 465.634H332.626L332.9 368.07L339.204 367.825Z" fill="#E0E0E0"/>
<path d="M354.784 366.74L375.759 465.634H380.565L363.105 366.74H354.784Z" fill="#E0E0E0"/>
<path d="M315.467 367.825L292.256 465.634H287.45L308.511 367.425L315.467 367.825Z" fill="#E0E0E0"/>
<path d="M376.325 267.858C376.325 267.858 401.461 266.423 398.948 295.509C396.434 324.595 394.997 354.039 385.662 364.094C376.325 374.149 282.245 374.507 274.345 366.248C266.445 357.99 289.427 358.349 293.737 358.349C298.045 358.349 324.618 360.862 333.236 338.24C341.853 315.617 339.699 266.423 376.325 267.858Z" fill="#F5F5F5"/>
<path d="M377.938 267.874C377.938 267.874 397.154 271.809 395.357 291.918C393.562 312.027 388.534 347.216 379.199 356.193C369.862 365.171 333.28 367.127 313.486 365.889C290.505 364.452 275.998 360.077 275.998 360.077C275.998 360.077 271.804 362.774 273.075 364.512C274.345 366.248 285.549 373.236 339.869 372.072C394.187 370.908 390.411 362.893 392.666 354.139C394.921 345.384 399.652 298.71 398.995 288.447C398.34 278.184 393.17 269.674 377.938 267.874Z" fill="#E0E0E0"/>
<path d="M362.172 307.02C362.172 308.492 363.104 309.685 364.254 309.685C365.404 309.685 366.336 308.492 366.336 307.02C366.336 305.548 365.404 304.355 364.254 304.355C363.104 304.355 362.172 305.549 362.172 307.02Z" fill="#EBEBEB"/>
<path d="M363.593 295.247C363.725 295.292 362.921 296.686 362.885 299.124C362.874 300.328 363.107 301.778 363.804 303.203C364.15 303.904 364.607 304.639 365.173 305.242C365.465 305.551 365.826 305.85 366.132 306.282C366.452 306.703 366.604 307.341 366.487 307.879C366.261 308.939 365.691 309.697 365.422 310.486C365.181 311.249 365.105 312.131 365.112 312.906C365.133 314.492 365.602 315.884 366.159 316.95C367.317 319.096 368.682 319.951 368.586 320.053C368.562 320.088 368.208 319.918 367.657 319.475C367.112 319.031 366.368 318.299 365.714 317.2C365.067 316.109 364.508 314.633 364.448 312.924C364.429 312.064 364.472 311.199 364.755 310.253C365.067 309.354 365.617 308.565 365.777 307.753C365.97 306.958 365.319 306.394 364.661 305.728C364.014 305.019 363.568 304.259 363.204 303.486C362.489 301.938 362.297 300.373 362.376 299.106C362.453 297.831 362.761 296.835 363.042 296.19C363.322 295.544 363.554 295.227 363.593 295.247Z" fill="#EBEBEB"/>
<path d="M357.899 303.57C358.015 303.588 357.926 304.198 358.191 305.086C358.44 305.966 359.124 307.119 360.282 307.906C361.453 308.693 362.757 308.985 363.695 309.125C364.641 309.264 365.25 309.287 365.256 309.394C365.263 309.484 364.66 309.645 363.653 309.633C362.661 309.619 361.207 309.394 359.878 308.503C358.544 307.598 357.838 306.219 357.693 305.198C357.535 304.158 357.825 303.544 357.899 303.57Z" fill="#EBEBEB"/>
<path d="M419.789 466.495L423.536 466.493L417.606 323.11L413.866 323.305L419.789 466.495Z" fill="#E0E0E0"/>
<path d="M211.681 466.656L215.418 466.885L222.463 323.481L218.725 323.253L211.681 466.656Z" fill="#E0E0E0"/>
<path d="M246.532 467.573L250.27 467.802L257.124 325.417L253.386 325.188L246.532 467.573Z" fill="#E0E0E0"/>
<path d="M443.224 466.494H446.971L440.961 323.241L437.221 323.436L443.224 466.494Z" fill="#E0E0E0"/>
<path d="M450.839 321.563H205.317V328.945H450.839V321.563Z" fill="#E0E0E0"/>
<path d="M224.202 274.363L241.75 320.718H321.208L320.623 318.331L288.493 317.433L273.691 274.338L224.202 274.363Z" fill="#EBEBEB"/>
<path d="M259.412 297.493C259.937 299.392 259.037 301.252 257.402 301.648C255.767 302.044 254.017 300.824 253.492 298.925C252.968 297.026 253.867 295.166 255.502 294.77C257.137 294.375 258.888 295.593 259.412 297.493Z" fill="white"/>
<path d="M460.148 466.494C460.148 466.647 364.501 466.77 246.542 466.77C128.542 466.77 32.916 466.646 32.916 466.494C32.916 466.342 128.542 466.218 246.542 466.218C364.501 466.218 460.148 466.342 460.148 466.494Z" fill="#263238"/>
<path d="M336.001 125.845H363.987V87.3091H336.001V125.845Z" fill="#EBEBEB"/>
<path d="M359.592 95.067C359.592 95.125 357.588 95.171 355.117 95.171C352.645 95.171 350.642 95.124 350.642 95.067C350.642 95.01 352.645 94.963 355.117 94.963C357.589 94.963 359.592 95.01 359.592 95.067Z" fill="#263238"/>
<path d="M355.117 100.123C355.117 100.181 354.115 100.227 352.88 100.227C351.644 100.227 350.642 100.18 350.642 100.123C350.642 100.066 351.644 100.019 352.88 100.019C354.115 100.019 355.117 100.066 355.117 100.123Z" fill="#263238"/>
<path d="M344.351 101.588C344.351 101.646 343.349 101.692 342.114 101.692C340.878 101.692 339.876 101.645 339.876 101.588C339.876 101.531 340.878 101.484 342.114 101.484C343.349 101.484 344.351 101.531 344.351 101.588Z" fill="#263238"/>
<path d="M346.653 103.739C346.653 103.797 345.136 103.843 343.265 103.843C341.393 103.843 339.876 103.796 339.876 103.739C339.876 103.682 341.393 103.635 343.265 103.635C345.136 103.635 346.653 103.682 346.653 103.739Z" fill="#263238"/>
<path d="M344.351 107.407C344.351 107.465 343.349 107.511 342.114 107.511C340.878 107.511 339.876 107.464 339.876 107.407C339.876 107.349 340.878 107.303 342.114 107.303C343.349 107.303 344.351 107.35 344.351 107.407Z" fill="#263238"/>
<path d="M346.653 109.559C346.653 109.617 345.136 109.663 343.265 109.663C341.393 109.663 339.876 109.616 339.876 109.559C339.876 109.501 341.393 109.455 343.265 109.455C345.136 109.454 346.653 109.501 346.653 109.559Z" fill="#263238"/>
<path d="M344.351 112.958C344.351 113.016 343.349 113.062 342.114 113.062C340.878 113.062 339.876 113.015 339.876 112.958C339.876 112.901 340.878 112.854 342.114 112.854C343.349 112.854 344.351 112.901 344.351 112.958Z" fill="#263238"/>
<path d="M346.653 115.109C346.653 115.167 345.136 115.213 343.265 115.213C341.393 115.213 339.876 115.166 339.876 115.109C339.876 115.052 341.393 115.005 343.265 115.005C345.136 115.005 346.653 115.052 346.653 115.109Z" fill="#263238"/>
<path d="M360.841 103.87C360.841 103.927 358.558 103.974 355.742 103.974C352.925 103.974 350.642 103.927 350.642 103.87C350.642 103.812 352.925 103.766 355.742 103.766C358.558 103.766 360.841 103.813 360.841 103.87Z" fill="#263238"/>
<path d="M354.684 107.616C354.684 107.674 353.779 107.72 352.663 107.72C351.547 107.72 350.642 107.673 350.642 107.616C350.642 107.558 351.547 107.512 352.663 107.512C353.779 107.512 354.684 107.559 354.684 107.616Z" fill="#263238"/>
<path d="M360.841 111.363C360.841 111.421 358.558 111.467 355.742 111.467C352.925 111.467 350.642 111.42 350.642 111.363C350.642 111.306 352.925 111.259 355.742 111.259C358.558 111.259 360.841 111.305 360.841 111.363Z" fill="#263238"/>
<path d="M360.841 115.109C360.841 115.167 358.558 115.213 355.742 115.213C352.925 115.213 350.642 115.166 350.642 115.109C350.642 115.052 352.925 115.005 355.742 115.005C358.558 115.005 360.841 115.052 360.841 115.109Z" fill="#263238"/>
<path d="M360.308 119.035C360.308 119.093 358.025 119.139 355.209 119.139C352.392 119.139 350.109 119.092 350.109 119.035C350.109 118.978 352.392 118.931 355.209 118.931C358.025 118.931 360.308 118.977 360.308 119.035Z" fill="#263238"/>
<path d="M347.353 98.834C347.353 98.834 347.34 98.638 347.332 98.29C347.325 97.861 347.318 97.368 347.308 96.795C347.296 95.399 347.28 93.615 347.262 91.526L347.352 91.616C345.195 91.62 342.704 91.625 340.045 91.63C340.021 91.652 340.242 91.433 340.148 91.527V91.529V91.533V91.541V91.557V91.588V91.651V91.776V92.025V92.52C340.148 92.849 340.148 93.175 340.147 93.497C340.146 94.141 340.145 94.771 340.144 95.386C340.14 96.605 340.137 97.76 340.134 98.833L340.044 98.743C342.134 98.761 343.918 98.777 345.313 98.789C345.886 98.798 346.379 98.806 346.808 98.812C347.157 98.821 347.353 98.834 347.353 98.834C347.353 98.834 347.184 98.847 346.846 98.855C346.423 98.862 345.937 98.87 345.372 98.878C343.961 98.89 342.158 98.906 340.045 98.924L339.955 98.925V98.834C339.952 97.761 339.948 96.606 339.945 95.387C339.944 94.772 339.943 94.142 339.942 93.498C339.942 93.175 339.942 92.85 339.941 92.521V92.026V91.777V91.652V91.589V91.558V91.542V91.534V91.53V91.528C339.848 91.62 340.068 91.4 340.046 91.423C342.705 91.428 345.196 91.433 347.353 91.437H347.444L347.443 91.527C347.425 93.639 347.409 95.443 347.397 96.853C347.388 97.418 347.38 97.905 347.374 98.328C347.367 98.665 347.353 98.834 347.353 98.834Z" fill="#263238"/>
<path d="M347.353 94.8109C347.344 94.8239 347.207 94.7439 346.969 94.5899C346.63 94.3609 346.3 94.1389 345.974 93.9199L346.073 93.9129C345.326 94.6349 344.604 95.3329 343.824 96.0859L343.771 96.1359L343.708 96.1959L343.638 96.1459C343.169 95.8069 342.719 95.4819 342.272 95.1589L342.391 95.1539C341.84 95.6109 341.292 96.0649 340.723 96.5369C340.309 96.8709 340.059 97.0579 340.045 97.0409C340.031 97.0239 340.253 96.8059 340.646 96.4469C341.199 95.9549 341.731 95.4819 342.265 95.0059L342.321 94.9559L342.384 95.0009C342.833 95.3199 343.286 95.6409 343.759 95.9759L343.627 95.9849L343.68 95.9349C344.473 95.1939 345.206 94.5079 345.965 93.7989L346.014 93.7529L346.065 93.7919C346.378 94.0299 346.694 94.2709 347.02 94.5179C347.243 94.6949 347.362 94.7989 347.353 94.8109Z" fill="#263238"/>
<path d="M344.513 93.236C344.474 93.252 344.505 92.878 344.118 92.59C343.933 92.455 343.638 92.385 343.357 92.494C343.078 92.594 342.841 92.891 342.844 93.236C342.841 93.581 343.078 93.878 343.357 93.979C343.638 94.088 343.933 94.017 344.118 93.883C344.505 93.593 344.474 93.219 344.513 93.236C344.526 93.211 344.635 93.619 344.208 93.999C344.002 94.174 343.646 94.283 343.292 94.159C342.941 94.047 342.632 93.674 342.636 93.236C342.632 92.798 342.941 92.426 343.292 92.313C343.646 92.189 344.002 92.297 344.208 92.473C344.635 92.853 344.525 93.261 344.513 93.236Z" fill="#263238"/>
<path d="M123.762 125.845H151.748V87.3091H123.762V125.845Z" fill="#EBEBEB"/>
<path d="M147.353 95.067C147.353 95.125 145.349 95.171 142.878 95.171C140.406 95.171 138.403 95.124 138.403 95.067C138.403 95.01 140.406 94.963 142.878 94.963C145.35 94.963 147.353 95.01 147.353 95.067Z" fill="#263238"/>
<path d="M142.878 100.123C142.878 100.181 141.876 100.227 140.641 100.227C139.405 100.227 138.403 100.18 138.403 100.123C138.403 100.066 139.405 100.019 140.641 100.019C141.876 100.019 142.878 100.066 142.878 100.123Z" fill="#263238"/>
<path d="M132.112 101.588C132.112 101.646 131.11 101.692 129.875 101.692C128.639 101.692 127.637 101.645 127.637 101.588C127.637 101.531 128.639 101.484 129.875 101.484C131.11 101.484 132.112 101.531 132.112 101.588Z" fill="#263238"/>
<path d="M134.414 103.739C134.414 103.797 132.897 103.843 131.025 103.843C129.153 103.843 127.636 103.796 127.636 103.739C127.636 103.682 129.153 103.635 131.025 103.635C132.897 103.635 134.414 103.682 134.414 103.739Z" fill="#263238"/>
<path d="M132.112 107.407C132.112 107.465 131.11 107.511 129.875 107.511C128.639 107.511 127.637 107.464 127.637 107.407C127.637 107.349 128.639 107.303 129.875 107.303C131.11 107.303 132.112 107.35 132.112 107.407Z" fill="#263238"/>
<path d="M134.414 109.559C134.414 109.617 132.897 109.663 131.025 109.663C129.153 109.663 127.636 109.616 127.636 109.559C127.636 109.501 129.153 109.455 131.025 109.455C132.897 109.454 134.414 109.501 134.414 109.559Z" fill="#263238"/>
<path d="M132.112 112.958C132.112 113.016 131.11 113.062 129.875 113.062C128.639 113.062 127.637 113.015 127.637 112.958C127.637 112.901 128.639 112.854 129.875 112.854C131.11 112.854 132.112 112.901 132.112 112.958Z" fill="#263238"/>
<path d="M134.414 115.109C134.414 115.167 132.897 115.213 131.025 115.213C129.153 115.213 127.636 115.166 127.636 115.109C127.636 115.052 129.153 115.005 131.025 115.005C132.897 115.005 134.414 115.052 134.414 115.109Z" fill="#263238"/>
<path d="M148.602 103.87C148.602 103.927 146.319 103.974 143.503 103.974C140.686 103.974 138.403 103.927 138.403 103.87C138.403 103.812 140.686 103.766 143.503 103.766C146.319 103.766 148.602 103.813 148.602 103.87Z" fill="#263238"/>
<path d="M142.445 107.616C142.445 107.674 141.54 107.72 140.424 107.72C139.308 107.72 138.403 107.673 138.403 107.616C138.403 107.558 139.308 107.512 140.424 107.512C141.54 107.512 142.445 107.559 142.445 107.616Z" fill="#263238"/>
<path d="M148.602 111.363C148.602 111.421 146.319 111.467 143.503 111.467C140.686 111.467 138.403 111.42 138.403 111.363C138.403 111.306 140.686 111.259 143.503 111.259C146.319 111.259 148.602 111.305 148.602 111.363Z" fill="#263238"/>
<path d="M148.602 115.109C148.602 115.167 146.319 115.213 143.503 115.213C140.686 115.213 138.403 115.166 138.403 115.109C138.403 115.052 140.686 115.005 143.503 115.005C146.319 115.005 148.602 115.052 148.602 115.109Z" fill="#263238"/>
<path d="M148.069 119.035C148.069 119.093 145.786 119.139 142.97 119.139C140.153 119.139 137.87 119.092 137.87 119.035C137.87 118.978 140.153 118.931 142.97 118.931C145.786 118.931 148.069 118.977 148.069 119.035Z" fill="#263238"/>
<path d="M135.115 98.834C135.115 98.834 135.102 98.638 135.094 98.29C135.087 97.861 135.079 97.368 135.07 96.795C135.058 95.399 135.042 93.615 135.024 91.526L135.114 91.616C132.957 91.62 130.466 91.625 127.807 91.63C127.784 91.652 128.004 91.433 127.911 91.527V91.529V91.533V91.541V91.557V91.588V91.651V91.776V92.025V92.52C127.911 92.849 127.91 93.175 127.91 93.497C127.909 94.141 127.908 94.771 127.907 95.386C127.903 96.605 127.9 97.76 127.897 98.833L127.807 98.743C129.897 98.761 131.681 98.777 133.076 98.789C133.649 98.798 134.142 98.806 134.571 98.812C134.918 98.821 135.115 98.834 135.115 98.834C135.115 98.834 134.946 98.847 134.608 98.855C134.185 98.862 133.699 98.87 133.134 98.878C131.723 98.89 129.92 98.906 127.807 98.924L127.717 98.925V98.834C127.714 97.761 127.71 96.606 127.707 95.387C127.706 94.772 127.705 94.142 127.704 93.498C127.704 93.175 127.704 92.85 127.703 92.521V92.026V91.777V91.652V91.589V91.558V91.542V91.534V91.53V91.528C127.61 91.62 127.83 91.4 127.808 91.423C130.467 91.428 132.958 91.433 135.115 91.437H135.206L135.205 91.527C135.187 93.639 135.171 95.443 135.159 96.853C135.15 97.418 135.142 97.905 135.135 98.328C135.128 98.665 135.115 98.834 135.115 98.834Z" fill="#263238"/>
<path d="M135.115 94.8109C135.106 94.8239 134.969 94.7439 134.731 94.5899C134.392 94.3609 134.062 94.1389 133.736 93.9199L133.835 93.9129C133.088 94.6349 132.366 95.3329 131.586 96.0859L131.533 96.1359L131.47 96.1959L131.4 96.1459C130.931 95.8069 130.481 95.4819 130.034 95.1589L130.153 95.1539C129.602 95.6109 129.054 96.0649 128.484 96.5369C128.07 96.8709 127.82 97.0579 127.806 97.0409C127.792 97.0239 128.014 96.8059 128.407 96.4469C128.959 95.9549 129.492 95.4819 130.026 95.0059L130.082 94.9559L130.145 95.0009C130.595 95.3199 131.047 95.6409 131.52 95.9759L131.388 95.9849L131.441 95.9349C132.234 95.1939 132.967 94.5079 133.726 93.7989L133.775 93.7529L133.826 93.7919C134.139 94.0299 134.455 94.2709 134.78 94.5179C135.004 94.6949 135.124 94.7989 135.115 94.8109Z" fill="#263238"/>
<path d="M132.274 93.236C132.235 93.252 132.266 92.878 131.879 92.59C131.694 92.455 131.399 92.385 131.118 92.494C130.839 92.594 130.602 92.891 130.605 93.236C130.602 93.581 130.839 93.878 131.118 93.979C131.399 94.088 131.694 94.017 131.879 93.883C132.266 93.593 132.235 93.219 132.274 93.236C132.286 93.211 132.396 93.619 131.968 93.999C131.763 94.174 131.406 94.283 131.052 94.159C130.701 94.047 130.392 93.674 130.396 93.236C130.392 92.798 130.701 92.426 131.052 92.313C131.406 92.189 131.762 92.297 131.968 92.473C132.396 92.853 132.286 93.261 132.274 93.236Z" fill="#263238"/>
<path d="M219.702 47.67H216.883V50.489H219.702V47.67Z" fill="#E8505B"/>
<path d="M219.702 89.271H216.883V92.09H219.702V89.271Z" fill="#E8505B"/>
<path d="M277.526 89.271H274.707V92.09H277.526V89.271Z" fill="#E8505B"/>
<path d="M219.702 130.187H216.883V133.006H219.702V130.187Z" fill="#E8505B"/>
<path d="M248.015 47.67H245.196V50.489H248.015V47.67Z" fill="#E8505B"/>
<path d="M248.015 130.873H245.196V133.692H248.015V130.873Z" fill="#E8505B"/>
<path d="M277.526 47.67H274.707V50.489H277.526V47.67Z" fill="#E8505B"/>
<path d="M277.526 130.873H274.707V133.692H277.526V130.873Z" fill="#E8505B"/>
<path d="M276.312 131.775C276.312 131.775 276.303 131.633 276.298 131.366C276.295 131.085 276.29 130.695 276.284 130.187C276.277 129.137 276.268 127.611 276.255 125.631C276.24 121.645 276.219 115.846 276.191 108.515C276.162 93.858 276.122 73.089 276.074 48.572L276.311 48.809C258.774 48.816 239.153 48.824 218.494 48.832H218.487L218.747 48.572C218.728 79.811 218.711 108.671 218.697 131.776L218.487 131.566C236.037 131.612 250.466 131.65 260.525 131.676C265.553 131.699 269.486 131.717 272.181 131.73C273.514 131.74 274.538 131.748 275.247 131.753C275.943 131.76 276.312 131.775 276.312 131.775C276.312 131.775 275.973 131.79 275.292 131.798C274.592 131.803 273.582 131.811 272.265 131.822C269.581 131.834 265.664 131.853 260.656 131.876C250.566 131.902 236.092 131.94 218.488 131.986L218.278 131.987V131.776C218.264 108.672 218.246 79.811 218.227 48.572V48.311H218.488H218.495C239.153 48.319 258.774 48.327 276.312 48.334H276.55V48.572C276.502 73.152 276.461 93.975 276.433 108.67C276.406 115.978 276.384 121.759 276.369 125.733C276.357 127.693 276.347 129.203 276.34 130.242C276.334 130.739 276.329 131.12 276.326 131.395C276.321 131.651 276.312 131.775 276.312 131.775Z" fill="#E8505B"/>
<path d="M273.932 52.388H220.753V128.837H273.932V52.388Z" fill="#E0E0E0"/>
<path d="M253.562 75.659C253.562 75.803 251.505 75.919 248.969 75.919C246.432 75.919 244.375 75.802 244.375 75.659C244.375 75.515 246.431 75.399 248.969 75.399C251.506 75.398 253.562 75.515 253.562 75.659Z" fill="#263238"/>
<path d="M239.341 76.799C239.341 76.943 236.453 77.059 232.892 77.059C229.329 77.059 226.442 76.942 226.442 76.799C226.442 76.656 229.329 76.539 232.892 76.539C236.453 76.538 239.341 76.655 239.341 76.799Z" fill="#263238"/>
<path d="M239.341 80.176C239.341 80.32 236.453 80.436 232.892 80.436C229.329 80.436 226.442 80.319 226.442 80.176C226.442 80.032 229.329 79.916 232.892 79.916C236.453 79.916 239.341 80.032 239.341 80.176Z" fill="#263238"/>
<path d="M239.341 83.553C239.341 83.697 236.453 83.814 232.892 83.814C229.329 83.814 226.442 83.697 226.442 83.553C226.442 83.409 229.329 83.293 232.892 83.293C236.453 83.293 239.341 83.41 239.341 83.553Z" fill="#263238"/>
<path d="M239.341 86.931C239.341 87.075 236.453 87.191 232.892 87.191C229.329 87.191 226.442 87.074 226.442 86.931C226.442 86.787 229.329 86.671 232.892 86.671C236.453 86.67 239.341 86.787 239.341 86.931Z" fill="#263238"/>
<path d="M239.341 90.308C239.341 90.452 236.453 90.568 232.892 90.568C229.329 90.568 226.442 90.451 226.442 90.308C226.442 90.165 229.329 90.048 232.892 90.048C236.453 90.048 239.341 90.164 239.341 90.308Z" fill="#263238"/>
<path d="M239.341 96.395C239.341 96.539 236.453 96.655 232.892 96.655C229.329 96.655 226.442 96.538 226.442 96.395C226.442 96.252 229.329 96.135 232.892 96.135C236.453 96.134 239.341 96.251 239.341 96.395Z" fill="#263238"/>
<path d="M239.341 99.772C239.341 99.916 236.453 100.032 232.892 100.032C229.329 100.032 226.442 99.915 226.442 99.772C226.442 99.628 229.329 99.512 232.892 99.512C236.453 99.511 239.341 99.628 239.341 99.772Z" fill="#263238"/>
<path d="M239.341 103.149C239.341 103.293 236.453 103.409 232.892 103.409C229.329 103.409 226.442 103.292 226.442 103.149C226.442 103.005 229.329 102.889 232.892 102.889C236.453 102.889 239.341 103.006 239.341 103.149Z" fill="#263238"/>
<path d="M233.612 106.527C233.612 106.671 232.007 106.787 230.027 106.787C228.047 106.787 226.442 106.67 226.442 106.527C226.442 106.383 228.047 106.267 230.027 106.267C232.006 106.266 233.612 106.383 233.612 106.527Z" fill="#263238"/>
<path d="M265.099 81.141C265.099 81.285 260.459 81.401 254.738 81.401C249.014 81.401 244.376 81.284 244.376 81.141C244.376 80.997 249.015 80.881 254.738 80.881C260.46 80.88 265.099 80.997 265.099 81.141Z" fill="#263238"/>
<path d="M265.394 84.435C265.394 84.579 260.754 84.695 255.033 84.695C249.309 84.695 244.671 84.578 244.671 84.435C244.671 84.291 249.31 84.175 255.033 84.175C260.755 84.175 265.394 84.291 265.394 84.435Z" fill="#263238"/>
<path d="M253.562 91.961C253.562 92.105 251.505 92.221 248.969 92.221C246.432 92.221 244.375 92.104 244.375 91.961C244.375 91.818 246.431 91.701 248.969 91.701C251.506 91.701 253.562 91.817 253.562 91.961Z" fill="#263238"/>
<path d="M265.099 97.443C265.099 97.587 260.459 97.703 254.738 97.703C249.014 97.703 244.376 97.586 244.376 97.443C244.376 97.3 249.015 97.183 254.738 97.183C260.46 97.183 265.099 97.299 265.099 97.443Z" fill="#263238"/>
<path d="M265.394 100.738C265.394 100.882 260.754 100.998 255.033 100.998C249.309 100.998 244.671 100.881 244.671 100.738C244.671 100.594 249.31 100.478 255.033 100.478C260.755 100.478 265.394 100.594 265.394 100.738Z" fill="#263238"/>
<path d="M253.562 108.9C253.562 109.044 251.505 109.16 248.969 109.16C246.432 109.16 244.375 109.043 244.375 108.9C244.375 108.756 246.431 108.64 248.969 108.64C251.506 108.639 253.562 108.756 253.562 108.9Z" fill="#263238"/>
<path d="M265.099 114.382C265.099 114.526 260.459 114.642 254.738 114.642C249.014 114.642 244.376 114.525 244.376 114.382C244.376 114.238 249.015 114.122 254.738 114.122C260.46 114.121 265.099 114.238 265.099 114.382Z" fill="#263238"/>
<path d="M265.394 117.676C265.394 117.82 260.754 117.936 255.033 117.936C249.309 117.936 244.671 117.819 244.671 117.676C244.671 117.532 249.31 117.416 255.033 117.416C260.755 117.416 265.394 117.533 265.394 117.676Z" fill="#263238"/>
<path d="M239.728 71.787C239.711 71.77 239.694 71.412 239.676 70.757C239.661 70.042 239.641 69.108 239.617 67.954C239.588 65.504 239.549 62.132 239.502 58.113L239.727 58.338C235.735 58.348 231.052 58.36 226.055 58.373C225.997 58.429 226.547 57.881 226.314 58.115V58.119V58.126V58.141V58.17V58.229V58.346V58.58V59.047L226.313 59.974C226.312 60.589 226.312 61.199 226.311 61.802C226.309 63.008 226.306 64.188 226.304 65.337C226.295 67.629 226.286 69.794 226.278 71.787L226.053 71.562C230.072 71.609 233.444 71.648 235.894 71.677C237.048 71.701 237.983 71.721 238.697 71.736C239.352 71.753 239.711 71.77 239.728 71.787C239.745 71.804 239.419 71.82 238.791 71.839C238.089 71.854 237.172 71.874 236.038 71.898C233.553 71.927 230.131 71.966 226.053 72.013L225.829 72.016L225.828 71.788C225.82 69.795 225.811 67.63 225.802 65.338C225.8 64.189 225.797 63.009 225.795 61.803C225.794 61.2 225.794 60.59 225.793 59.975V59.048V58.581V58.347V58.23V58.171V58.142V58.127V58.12V58.116C225.56 58.347 226.109 57.796 226.055 57.853C231.052 57.866 235.735 57.878 239.727 57.888H239.955L239.952 58.113C239.905 62.19 239.866 65.612 239.837 68.097C239.813 69.23 239.793 70.148 239.778 70.85C239.761 71.478 239.745 71.804 239.728 71.787Z" fill="#263238"/>
<path d="M267.958 63.923C267.958 64.067 263.051 64.183 257 64.183C250.947 64.183 246.041 64.066 246.041 63.923C246.041 63.779 250.947 63.663 257 63.663C263.051 63.663 267.958 63.779 267.958 63.923Z" fill="#263238"/>
<path d="M257.238 67.076C257.238 67.22 254.785 67.336 251.759 67.336C248.732 67.336 246.279 67.219 246.279 67.076C246.279 66.933 248.732 66.816 251.759 66.816C254.784 66.816 257.238 66.932 257.238 67.076Z" fill="#263238"/>
<path d="M249.447 61.13C249.462 61.185 249.116 61.428 248.411 61.572C248.065 61.635 247.571 61.622 247.131 61.342C246.7 61.075 246.335 60.582 246.27 59.978C246.208 59.377 246.446 58.822 246.791 58.457C247.14 58.081 247.592 57.916 247.954 57.879C248.705 57.813 249.088 58.134 249.052 58.179C249.026 58.257 248.618 58.097 248.017 58.242C247.723 58.317 247.393 58.479 247.149 58.776C246.904 59.068 246.741 59.495 246.787 59.923C246.831 60.347 247.087 60.726 247.395 60.942C247.702 61.165 248.06 61.216 248.373 61.206C249.004 61.169 249.426 61.048 249.447 61.13Z" fill="#263238"/>
<path d="M253.193 57.723C253.32 57.79 252.7 59.315 251.806 61.127L251.8 61.139L251.579 61.588L251.335 61.172C250.309 59.422 249.579 57.947 249.703 57.875C249.827 57.802 250.758 59.159 251.784 60.909L251.319 60.941L251.325 60.929C252.229 59.09 253.066 57.656 253.193 57.723Z" fill="#263238"/>
<path d="M239.29 71.787C239.248 71.813 238.886 71.078 237.906 70.242C236.97 69.376 235.313 68.556 233.36 68.478C231.399 68.386 229.758 69.328 228.836 70.182C227.889 71.048 227.537 71.794 227.485 71.76C227.471 71.753 227.537 71.559 227.723 71.243C227.909 70.929 228.211 70.483 228.684 70.021C229.591 69.099 231.306 68.069 233.371 68.166C235.405 68.242 237.131 69.145 238.055 70.078C238.535 70.529 238.861 70.956 239.053 71.27C239.242 71.584 239.306 71.78 239.29 71.787Z" fill="#263238"/>
<path d="M231.735 60.598C231.735 60.598 231.978 60.375 232.545 60.274C233.096 60.177 233.995 60.254 234.826 60.885C235.656 61.51 236.24 62.719 236.245 64.073C236.249 64.746 236.144 65.469 235.803 66.142C235.477 66.821 234.811 67.376 234.036 67.57C233.268 67.785 232.447 67.7 231.767 67.389C231.085 67.077 230.537 66.564 230.186 65.976C229.829 65.392 229.672 64.725 229.695 64.124C229.703 63.53 229.774 62.973 229.928 62.485C230.222 61.492 230.884 60.878 231.388 60.633C231.899 60.38 232.218 60.367 232.218 60.367C232.228 60.398 231.92 60.464 231.448 60.739C230.981 61.01 230.393 61.601 230.14 62.548C229.928 63.467 229.747 64.743 230.432 65.826C231.069 66.905 232.528 67.682 233.954 67.268C234.658 67.087 235.229 66.613 235.532 66C235.845 65.393 235.955 64.71 235.958 64.074C235.968 62.793 235.441 61.657 234.69 61.058C233.934 60.449 233.091 60.337 232.561 60.395C232.017 60.453 231.748 60.628 231.735 60.598Z" fill="#263238"/>
<path d="M234.546 63.128C234.632 63.13 234.701 63.213 234.698 63.313C234.696 63.414 234.624 63.494 234.538 63.492C234.452 63.49 234.384 63.407 234.386 63.307C234.388 63.206 234.46 63.126 234.546 63.128Z" fill="#263238"/>
<path d="M231.501 63.559C231.587 63.561 231.655 63.644 231.653 63.744C231.651 63.845 231.579 63.925 231.493 63.923C231.407 63.921 231.338 63.838 231.341 63.738C231.343 63.637 231.414 63.557 231.501 63.559Z" fill="#263238"/>
<path d="M229.876 62.693C229.878 62.648 230.19 62.633 230.687 62.622C231.182 62.606 231.868 62.6 232.58 62.411C233.299 62.224 233.885 61.891 234.154 61.501C234.43 61.118 234.486 60.8 234.538 60.814C234.568 60.815 234.598 61.152 234.338 61.623C234.081 62.105 233.414 62.522 232.66 62.713C231.892 62.916 231.178 62.883 230.679 62.843C230.178 62.797 229.874 62.734 229.876 62.693Z" fill="#263238"/>
<path d="M229.885 65.138C229.887 65.178 229.778 65.233 229.584 65.209C229.405 65.195 229.085 65.032 229.023 64.684C228.992 64.519 229.032 64.34 229.143 64.221C229.253 64.103 229.39 64.066 229.498 64.068C229.731 64.077 229.799 64.237 229.763 64.255C229.731 64.286 229.64 64.243 229.522 64.287C229.396 64.329 229.295 64.443 229.33 64.627C229.404 65.01 229.906 65.054 229.885 65.138Z" fill="#263238"/>
<path d="M236.232 64.828C236.219 64.763 236.509 64.58 236.45 64.294C236.377 64.011 236.036 63.974 236.02 63.91C236.005 63.874 236.09 63.792 236.263 63.802C236.426 63.809 236.68 63.934 236.754 64.224C236.815 64.517 236.641 64.741 236.498 64.819C236.347 64.904 236.235 64.867 236.232 64.828Z" fill="#263238"/>
<path d="M234.31 65.223C234.345 65.241 234.315 65.3959 234.154 65.5849C233.998 65.7709 233.69 65.9759 233.299 66.0039C232.907 66.0299 232.575 65.868 232.395 65.705C232.21 65.54 232.159 65.3909 232.191 65.3679C232.25 65.3079 232.654 65.734 233.278 65.692C233.9 65.648 234.243 65.171 234.31 65.223Z" fill="#263238"/>
<path d="M233.292 65.007C233.263 64.946 233.617 64.797 233.718 64.383L233.874 64.569C233.692 64.597 233.49 64.525 233.347 64.399C233.003 64.102 233.011 63.667 233.049 63.443C233.091 63.2 233.155 63.066 233.196 63.071C233.241 63.076 233.254 63.228 233.27 63.453C233.289 63.675 233.327 63.977 233.551 64.163C233.645 64.244 233.75 64.283 233.845 64.279L234.075 64.268L234 64.464C233.781 65.043 233.278 65.073 233.292 65.007Z" fill="#263238"/>
<path d="M232.548 68.36C232.462 68.366 232.38 68.178 232.364 67.94C232.349 67.702 232.406 67.506 232.492 67.5C232.578 67.494 232.66 67.682 232.676 67.92C232.692 68.157 232.634 68.354 232.548 68.36Z" fill="#263238"/>
<path d="M234.093 68.238C234.007 68.244 233.925 68.056 233.909 67.818C233.894 67.581 233.951 67.384 234.037 67.378C234.123 67.372 234.205 67.56 234.221 67.798C234.236 68.036 234.179 68.233 234.093 68.238Z" fill="#263238"/>
<path d="M323.731 76.664H289.671V125.628H323.731V76.664Z" fill="#EBEBEB"/>
<path d="M310.603 91.669C310.603 91.755 309.286 91.825 307.661 91.825C306.036 91.825 304.719 91.755 304.719 91.669C304.719 91.583 306.036 91.513 307.661 91.513C309.286 91.513 310.603 91.583 310.603 91.669Z" fill="#263238"/>
<path d="M301.274 92.904C301.274 92.99 299.424 93.06 297.143 93.06C294.861 93.06 293.012 92.99 293.012 92.904C293.012 92.818 294.861 92.748 297.143 92.748C299.424 92.748 301.274 92.818 301.274 92.904Z" fill="#263238"/>
<path d="M301.274 95.067C301.274 95.153 299.424 95.223 297.143 95.223C294.861 95.223 293.012 95.153 293.012 95.067C293.012 94.981 294.861 94.911 297.143 94.911C299.424 94.911 301.274 94.981 301.274 95.067Z" fill="#263238"/>
<path d="M301.274 97.231C301.274 97.317 299.424 97.387 297.143 97.387C294.861 97.387 293.012 97.317 293.012 97.231C293.012 97.145 294.861 97.075 297.143 97.075C299.424 97.074 301.274 97.144 301.274 97.231Z" fill="#263238"/>
<path d="M297.605 99.394C297.605 99.48 296.577 99.55 295.309 99.55C294.041 99.55 293.013 99.48 293.013 99.394C293.013 99.308 294.041 99.238 295.309 99.238C296.577 99.238 297.605 99.307 297.605 99.394Z" fill="#263238"/>
<path d="M317.993 95.18C317.993 95.266 315.022 95.336 311.357 95.336C307.691 95.336 304.72 95.266 304.72 95.18C304.72 95.094 307.691 95.024 311.357 95.024C315.021 95.024 317.993 95.094 317.993 95.18Z" fill="#263238"/>
<path d="M318.182 97.29C318.182 97.376 315.21 97.446 311.546 97.446C307.88 97.446 304.909 97.376 304.909 97.29C304.909 97.204 307.88 97.134 311.546 97.134C315.21 97.134 318.182 97.204 318.182 97.29Z" fill="#263238"/>
<path d="M310.603 102.11C310.603 102.196 309.286 102.266 307.661 102.266C306.036 102.266 304.719 102.196 304.719 102.11C304.719 102.024 306.036 101.954 307.661 101.954C309.286 101.954 310.603 102.024 310.603 102.11Z" fill="#263238"/>
<path d="M317.993 105.621C317.993 105.707 315.022 105.777 311.357 105.777C307.691 105.777 304.72 105.707 304.72 105.621C304.72 105.535 307.691 105.465 311.357 105.465C315.021 105.465 317.993 105.535 317.993 105.621Z" fill="#263238"/>
<path d="M318.182 107.732C318.182 107.818 315.21 107.888 311.546 107.888C307.88 107.888 304.909 107.818 304.909 107.732C304.909 107.646 307.88 107.576 311.546 107.576C315.21 107.575 318.182 107.645 318.182 107.732Z" fill="#263238"/>
<path d="M310.603 112.959C310.603 113.045 309.286 113.115 307.661 113.115C306.036 113.115 304.719 113.045 304.719 112.959C304.719 112.873 306.036 112.803 307.661 112.803C309.286 112.803 310.603 112.873 310.603 112.959Z" fill="#263238"/>
<path d="M317.993 116.47C317.993 116.556 315.022 116.626 311.357 116.626C307.691 116.626 304.72 116.556 304.72 116.47C304.72 116.384 307.691 116.314 311.357 116.314C315.021 116.314 317.993 116.384 317.993 116.47Z" fill="#263238"/>
<path d="M318.182 118.58C318.182 118.666 315.21 118.736 311.546 118.736C307.88 118.736 304.909 118.666 304.909 118.58C304.909 118.494 307.88 118.424 311.546 118.424C315.21 118.424 318.182 118.494 318.182 118.58Z" fill="#263238"/>
<path d="M319.824 86.178C319.824 86.264 316.681 86.334 312.805 86.334C308.928 86.334 305.786 86.264 305.786 86.178C305.786 86.092 308.928 86.022 312.805 86.022C316.681 86.022 319.824 86.092 319.824 86.178Z" fill="#263238"/>
<path d="M312.957 88.198C312.957 88.284 311.386 88.354 309.448 88.354C307.509 88.354 305.938 88.284 305.938 88.198C305.938 88.112 307.509 88.042 309.448 88.042C311.386 88.042 312.957 88.112 312.957 88.198Z" fill="#263238"/>
<path d="M307.968 84.39C307.977 84.422 307.754 84.575 307.304 84.666C307.083 84.705 306.77 84.696 306.49 84.518C306.216 84.348 305.985 84.034 305.944 83.651C305.863 82.857 306.552 82.324 307.014 82.315C307.492 82.271 307.738 82.473 307.716 82.5C307.7 82.548 307.44 82.441 307.052 82.533C306.673 82.596 306.197 83.033 306.255 83.618C306.283 83.893 306.45 84.138 306.649 84.278C306.848 84.422 307.081 84.454 307.282 84.446C307.686 84.42 307.955 84.34 307.968 84.39Z" fill="#263238"/>
<path d="M310.367 82.207C310.443 82.247 310.041 83.222 309.469 84.383L309.465 84.391L309.332 84.66L309.186 84.41C308.529 83.289 308.057 82.347 308.132 82.304C308.206 82.26 308.798 83.132 309.456 84.252L309.177 84.271L309.181 84.263C309.759 83.088 310.291 82.167 310.367 82.207Z" fill="#263238"/>
<path d="M301.984 89.189C301.974 89.179 301.964 88.95 301.953 88.531C301.943 88.035 301.932 87.442 301.918 86.736C301.9 85.106 301.877 82.961 301.849 80.43L301.984 80.565C299.411 80.571 296.419 80.578 293.227 80.586C293.192 80.62 293.522 80.291 293.382 80.431V80.433V80.438V80.447V80.466V80.503V80.578V80.728V81.027V81.621C293.382 82.015 293.381 82.405 293.381 82.792C293.38 83.564 293.378 84.32 293.377 85.056C293.372 86.52 293.366 87.905 293.361 89.187L293.226 89.052C295.757 89.08 297.902 89.103 299.532 89.121C300.237 89.135 300.831 89.147 301.326 89.156C301.745 89.169 301.973 89.179 301.984 89.189C301.994 89.199 301.785 89.209 301.382 89.22C300.895 89.23 300.312 89.241 299.618 89.255C297.966 89.273 295.791 89.296 293.226 89.324L293.091 89.325V89.188C293.086 87.906 293.081 86.521 293.075 85.057C293.074 84.321 293.072 83.565 293.071 82.793C293.071 82.407 293.07 82.016 293.07 81.622V81.028V80.729V80.579V80.504V80.467V80.448V80.44V80.435V80.433C292.93 80.572 293.26 80.241 293.227 80.275C296.419 80.283 299.411 80.29 301.984 80.296H302.121L302.12 80.431C302.092 82.996 302.069 85.17 302.051 86.823C302.037 87.517 302.025 88.1 302.016 88.587C302.004 88.99 301.994 89.199 301.984 89.189Z" fill="#263238"/>
<path d="M296.771 82.399C296.771 82.399 296.926 82.255 297.289 82.19C297.642 82.127 298.219 82.176 298.752 82.581C299.285 82.982 299.659 83.757 299.662 84.625C299.665 85.057 299.597 85.52 299.379 85.952C299.17 86.388 298.742 86.744 298.245 86.869C297.235 87.162 296.205 86.603 295.774 85.846C295.545 85.471 295.444 85.043 295.46 84.658C295.466 84.277 295.511 83.92 295.61 83.608C295.799 82.972 296.224 82.578 296.547 82.421C296.875 82.259 297.079 82.252 297.079 82.252C297.086 82.272 296.888 82.315 296.587 82.492C296.288 82.666 295.913 83.044 295.751 83.65C295.616 84.238 295.501 85.055 295.938 85.747C296.346 86.437 297.278 86.933 298.19 86.669C299.142 86.446 299.489 85.419 299.471 84.627C299.478 83.807 299.141 83.081 298.661 82.697C298.178 82.307 297.638 82.235 297.3 82.271C296.952 82.308 296.779 82.419 296.771 82.399Z" fill="#263238"/>
<path d="M299.536 85.143C299.525 85.104 299.843 84.992 299.827 84.689C299.783 84.388 299.449 84.341 299.452 84.301C299.445 84.277 299.528 84.224 299.672 84.257C299.808 84.285 300.004 84.422 300.034 84.669C300.053 84.917 299.888 85.09 299.76 85.144C299.626 85.203 299.534 85.168 299.536 85.143Z" fill="#263238"/>
<path d="M295.55 84.647C295.569 84.682 295.281 84.859 295.361 85.153C295.467 85.438 295.804 85.414 295.809 85.454C295.821 85.476 295.751 85.545 295.603 85.544C295.464 85.545 295.243 85.452 295.162 85.217C295.091 84.979 295.217 84.775 295.33 84.695C295.449 84.607 295.546 84.622 295.55 84.647Z" fill="#263238"/>
<path d="M298.565 85.256C298.631 85.256 298.425 85.806 297.784 85.899C297.14 85.967 296.805 85.485 296.869 85.469C296.903 85.424 297.248 85.755 297.758 85.693C298.269 85.627 298.521 85.221 298.565 85.256Z" fill="#263238"/>
<path d="M298.965 83.181C298.974 83.202 298.819 83.326 298.509 83.445C298.354 83.498 298.145 83.55 297.911 83.489C297.691 83.434 297.425 83.263 297.374 82.953L297.552 83.01L297.527 83.034C297.152 83.408 296.677 83.56 296.343 83.583C296.004 83.609 295.804 83.534 295.809 83.511C295.792 83.452 296.682 83.576 297.379 82.887L297.401 82.865L297.55 82.721L297.579 82.923C297.606 83.113 297.787 83.253 297.963 83.305C298.139 83.362 298.321 83.337 298.468 83.304C298.765 83.23 298.952 83.151 298.965 83.181Z" fill="#263238"/>
<path d="M300.84 89.189C300.805 89.213 300.607 88.817 300.081 88.384C299.567 87.943 298.66 87.567 297.617 87.606C296.578 87.627 295.677 88.02 295.168 88.464C294.648 88.904 294.471 89.312 294.436 89.29C294.425 89.284 294.46 89.182 294.552 89.007C294.647 88.835 294.812 88.597 295.071 88.353C295.579 87.857 296.525 87.418 297.612 87.397C298.701 87.353 299.667 87.78 300.177 88.271C300.441 88.509 300.609 88.744 300.71 88.912C300.812 89.081 300.85 89.183 300.84 89.189Z" fill="#263238"/>
<path d="M297.661 85.143C297.643 85.107 297.747 85.03 297.832 84.883L297.836 84.994C297.764 84.922 297.688 84.826 297.628 84.712C297.442 84.366 297.482 84.037 297.538 84.041C297.597 84.038 297.651 84.318 297.812 84.614C297.865 84.714 297.923 84.803 297.973 84.878L298.017 84.944L297.977 84.989C297.827 85.156 297.673 85.175 297.661 85.143Z" fill="#263238"/>
<path d="M298.845 84.366C298.799 84.397 298.684 84.331 298.562 84.351C298.439 84.364 298.346 84.459 298.293 84.441C298.232 84.437 298.269 84.191 298.534 84.144C298.802 84.119 298.903 84.346 298.845 84.366Z" fill="#263238"/>
<path d="M296.778 84.566C296.741 84.612 296.628 84.584 296.498 84.587C296.369 84.584 296.256 84.613 296.218 84.567C296.178 84.526 296.291 84.379 296.497 84.379C296.704 84.379 296.818 84.525 296.778 84.566Z" fill="#263238"/>
<path d="M296.219 87.762C296.223 87.776 296.108 87.829 295.907 87.945C295.805 88 295.679 88.077 295.503 88.115C295.325 88.158 295.104 88.101 294.923 87.975C294.74 87.85 294.568 87.652 294.506 87.383C294.473 87.251 294.486 87.096 294.534 86.962C294.583 86.826 294.609 86.752 294.547 86.654C294.383 86.464 294.245 86.066 294.411 85.756C294.568 85.444 294.868 85.287 294.904 85.015C294.951 84.744 294.851 84.421 294.872 84.108C294.881 83.797 294.946 83.498 295.056 83.233C295.271 82.697 295.691 82.322 296.095 82.167C296.936 81.843 297.467 82.222 297.432 82.223C297.436 82.267 296.911 81.966 296.154 82.302C295.789 82.463 295.424 82.809 295.235 83.305C295.138 83.55 295.082 83.826 295.077 84.113C295.055 84.399 295.164 84.691 295.109 85.054C295.034 85.441 294.693 85.614 294.596 85.844C294.484 86.091 294.541 86.328 294.717 86.562C294.817 86.708 294.757 86.926 294.708 87.024C294.667 87.134 294.655 87.241 294.677 87.349C294.718 87.563 294.857 87.742 295.01 87.855C295.33 88.122 295.668 87.965 295.873 87.872C296.085 87.778 296.215 87.749 296.219 87.762Z" fill="#263238"/>
<path d="M299.568 87.979C299.572 87.961 299.696 87.996 299.913 88.017C300.132 88.066 300.431 87.894 300.533 87.518C300.591 87.33 300.561 87.153 300.495 86.905C300.462 86.778 300.502 86.605 300.572 86.496C300.638 86.381 300.687 86.284 300.715 86.163C300.772 85.926 300.74 85.66 300.602 85.431C300.469 85.196 300.246 84.989 300.077 84.708C299.754 84.128 299.767 83.511 299.556 83.049C299.366 82.573 298.928 82.338 298.554 82.249C297.787 82.099 297.271 82.212 297.273 82.158C297.273 82.158 297.76 81.986 298.586 82.105C298.983 82.175 299.504 82.433 299.73 82.97C299.966 83.48 299.967 84.097 300.255 84.601C300.401 84.849 300.625 85.059 300.778 85.329C300.938 85.6 300.975 85.93 300.9 86.208C300.832 86.509 300.602 86.68 300.665 86.877C300.718 87.084 300.755 87.361 300.673 87.56C300.604 87.767 300.479 87.926 300.333 88.026C300.178 88.126 300.014 88.117 299.902 88.096C299.675 88.05 299.565 87.989 299.568 87.979Z" fill="#263238"/>
<path d="M296.965 87.641C296.908 87.65 296.84 87.44 296.814 87.174C296.787 86.907 296.812 86.685 296.869 86.678C296.926 86.671 296.994 86.88 297.02 87.146C297.047 87.41 297.022 87.632 296.965 87.641Z" fill="#263238"/>
<path d="M298.618 86.616C298.675 86.625 298.689 86.841 298.649 87.1C298.609 87.358 298.531 87.561 298.474 87.552C298.417 87.543 298.403 87.327 298.443 87.068C298.483 86.81 298.561 86.607 298.618 86.616Z" fill="#263238"/>
<path d="M200.12 76.664H166.06V125.628H200.12V76.664Z" fill="#EBEBEB"/>
<path d="M186.992 91.669C186.992 91.755 185.675 91.825 184.05 91.825C182.425 91.825 181.108 91.755 181.108 91.669C181.108 91.583 182.425 91.513 184.05 91.513C185.675 91.513 186.992 91.583 186.992 91.669Z" fill="#263238"/>
<path d="M177.663 92.904C177.663 92.99 175.813 93.06 173.532 93.06C171.25 93.06 169.401 92.99 169.401 92.904C169.401 92.818 171.25 92.748 173.532 92.748C175.813 92.748 177.663 92.818 177.663 92.904Z" fill="#263238"/>
<path d="M177.663 95.067C177.663 95.153 175.813 95.223 173.532 95.223C171.25 95.223 169.401 95.153 169.401 95.067C169.401 94.981 171.25 94.911 173.532 94.911C175.813 94.911 177.663 94.981 177.663 95.067Z" fill="#263238"/>
<path d="M177.663 97.231C177.663 97.317 175.813 97.387 173.532 97.387C171.25 97.387 169.401 97.317 169.401 97.231C169.401 97.145 171.25 97.075 173.532 97.075C175.813 97.074 177.663 97.144 177.663 97.231Z" fill="#263238"/>
<path d="M173.994 99.394C173.994 99.48 172.966 99.55 171.698 99.55C170.43 99.55 169.402 99.48 169.402 99.394C169.402 99.308 170.43 99.238 171.698 99.238C172.965 99.238 173.994 99.307 173.994 99.394Z" fill="#263238"/>
<path d="M194.382 95.18C194.382 95.266 191.411 95.336 187.746 95.336C184.08 95.336 181.109 95.266 181.109 95.18C181.109 95.094 184.08 95.024 187.746 95.024C191.41 95.024 194.382 95.094 194.382 95.18Z" fill="#263238"/>
<path d="M194.571 97.29C194.571 97.376 191.599 97.446 187.935 97.446C184.269 97.446 181.298 97.376 181.298 97.29C181.298 97.204 184.269 97.134 187.935 97.134C191.599 97.134 194.571 97.204 194.571 97.29Z" fill="#263238"/>
<path d="M186.992 102.11C186.992 102.196 185.675 102.266 184.05 102.266C182.425 102.266 181.108 102.196 181.108 102.11C181.108 102.024 182.425 101.954 184.05 101.954C185.675 101.954 186.992 102.024 186.992 102.11Z" fill="#263238"/>
<path d="M194.382 105.621C194.382 105.707 191.411 105.777 187.746 105.777C184.08 105.777 181.109 105.707 181.109 105.621C181.109 105.535 184.08 105.465 187.746 105.465C191.41 105.465 194.382 105.535 194.382 105.621Z" fill="#263238"/>
<path d="M194.571 107.732C194.571 107.818 191.599 107.888 187.935 107.888C184.269 107.888 181.298 107.818 181.298 107.732C181.298 107.646 184.269 107.576 187.935 107.576C191.599 107.575 194.571 107.645 194.571 107.732Z" fill="#263238"/>
<path d="M186.992 112.959C186.992 113.045 185.675 113.115 184.05 113.115C182.425 113.115 181.108 113.045 181.108 112.959C181.108 112.873 182.425 112.803 184.05 112.803C185.675 112.803 186.992 112.873 186.992 112.959Z" fill="#263238"/>
<path d="M194.382 116.47C194.382 116.556 191.411 116.626 187.746 116.626C184.08 116.626 181.109 116.556 181.109 116.47C181.109 116.384 184.08 116.314 187.746 116.314C191.41 116.314 194.382 116.384 194.382 116.47Z" fill="#263238"/>
<path d="M194.571 118.58C194.571 118.666 191.599 118.736 187.935 118.736C184.269 118.736 181.298 118.666 181.298 118.58C181.298 118.494 184.269 118.424 187.935 118.424C191.599 118.424 194.571 118.494 194.571 118.58Z" fill="#263238"/>
<path d="M196.212 86.178C196.212 86.264 193.069 86.334 189.194 86.334C185.317 86.334 182.175 86.264 182.175 86.178C182.175 86.092 185.317 86.022 189.194 86.022C193.07 86.022 196.212 86.092 196.212 86.178Z" fill="#263238"/>
<path d="M189.346 88.198C189.346 88.284 187.775 88.354 185.837 88.354C183.898 88.354 182.327 88.284 182.327 88.198C182.327 88.112 183.898 88.042 185.837 88.042C187.775 88.042 189.346 88.112 189.346 88.198Z" fill="#263238"/>
<path d="M178.232 89.138C178.222 89.128 178.212 88.899 178.201 88.48C178.191 87.984 178.179 87.391 178.166 86.685C178.148 85.055 178.125 82.91 178.097 80.379L178.232 80.514C175.659 80.52 172.667 80.527 169.475 80.535C169.44 80.569 169.77 80.24 169.63 80.38V80.382V80.387V80.396V80.415V80.453V80.528V80.678V80.977V81.571C169.63 81.965 169.629 82.355 169.629 82.742C169.628 83.514 169.626 84.269 169.625 85.006C169.619 86.47 169.614 87.855 169.609 89.137L169.474 89.002C172.005 89.03 174.15 89.053 175.78 89.071C176.485 89.085 177.079 89.097 177.574 89.106C177.993 89.118 178.222 89.128 178.232 89.138C178.242 89.148 178.033 89.158 177.63 89.169C177.143 89.179 176.56 89.19 175.866 89.204C174.214 89.222 172.04 89.245 169.474 89.273L169.339 89.274L169.338 89.137C169.333 87.855 169.328 86.47 169.322 85.006C169.321 84.27 169.319 83.514 169.318 82.742C169.318 82.356 169.317 81.965 169.317 81.571V80.977V80.678V80.528V80.453V80.415V80.396V80.387V80.382V80.38C169.177 80.519 169.507 80.188 169.474 80.222C172.666 80.23 175.658 80.237 178.231 80.243H178.368L178.367 80.378C178.339 82.943 178.316 85.117 178.298 86.77C178.284 87.464 178.272 88.047 178.263 88.534C178.252 88.939 178.242 89.149 178.232 89.138Z" fill="#263238"/>
<path d="M173.019 82.349C173.019 82.349 173.174 82.205 173.537 82.14C173.89 82.077 174.467 82.126 175 82.531C175.533 82.932 175.907 83.707 175.91 84.575C175.913 85.007 175.845 85.47 175.627 85.902C175.418 86.338 174.99 86.694 174.492 86.819C173.482 87.112 172.452 86.553 172.021 85.797C171.792 85.422 171.691 84.994 171.707 84.609C171.713 84.228 171.758 83.871 171.857 83.558C172.046 82.922 172.471 82.528 172.794 82.371C173.121 82.209 173.326 82.202 173.326 82.202C173.332 82.222 173.135 82.265 172.833 82.442C172.534 82.616 172.159 82.994 171.997 83.6C171.862 84.188 171.746 85.005 172.184 85.697C172.592 86.387 173.524 86.883 174.436 86.619C175.388 86.395 175.735 85.368 175.717 84.577C175.724 83.757 175.387 83.031 174.907 82.647C174.424 82.257 173.884 82.185 173.546 82.221C173.2 82.257 173.027 82.369 173.019 82.349Z" fill="#263238"/>
<path d="M175.784 85.092C175.773 85.053 176.092 84.941 176.075 84.638C176.031 84.337 175.697 84.29 175.7 84.25C175.693 84.226 175.776 84.173 175.92 84.205C176.056 84.233 176.252 84.37 176.282 84.617C176.301 84.865 176.136 85.038 176.008 85.092C175.874 85.152 175.782 85.117 175.784 85.092Z" fill="#263238"/>
<path d="M171.798 84.596C171.817 84.631 171.529 84.808 171.609 85.102C171.715 85.387 172.052 85.363 172.057 85.403C172.069 85.425 171.998 85.494 171.851 85.493C171.712 85.494 171.491 85.401 171.41 85.166C171.339 84.928 171.465 84.724 171.578 84.644C171.697 84.556 171.795 84.571 171.798 84.596Z" fill="#263238"/>
<path d="M174.813 85.205C174.879 85.205 174.673 85.755 174.032 85.848C173.388 85.916 173.053 85.434 173.117 85.418C173.152 85.373 173.496 85.704 174.006 85.642C174.517 85.576 174.769 85.17 174.813 85.205Z" fill="#263238"/>
<path d="M175.213 83.131C175.222 83.152 175.067 83.276 174.757 83.395C174.602 83.448 174.393 83.5 174.159 83.439C173.939 83.384 173.673 83.213 173.621 82.903L173.799 82.96L173.774 82.984C173.399 83.358 172.924 83.51 172.591 83.533C172.252 83.559 172.052 83.484 172.057 83.461C172.04 83.402 172.93 83.526 173.627 82.837L173.649 82.815L173.798 82.671L173.827 82.873C173.854 83.063 174.035 83.203 174.21 83.255C174.386 83.312 174.568 83.286 174.715 83.254C175.014 83.18 175.201 83.1 175.213 83.131Z" fill="#263238"/>
<path d="M177.088 89.138C177.053 89.163 176.855 88.767 176.329 88.333C175.815 87.892 174.908 87.516 173.865 87.555C172.826 87.576 171.925 87.969 171.416 88.414C170.896 88.854 170.719 89.262 170.684 89.24C170.673 89.235 170.708 89.132 170.8 88.957C170.895 88.785 171.059 88.547 171.319 88.303C171.827 87.807 172.773 87.368 173.86 87.347C174.949 87.303 175.915 87.73 176.425 88.221C176.689 88.459 176.857 88.694 176.958 88.862C177.06 89.03 177.098 89.133 177.088 89.138Z" fill="#263238"/>
<path d="M173.909 85.092C173.891 85.056 173.995 84.979 174.08 84.832L174.084 84.943C174.012 84.871 173.936 84.775 173.876 84.661C173.69 84.315 173.73 83.986 173.786 83.99C173.845 83.987 173.899 84.267 174.06 84.563C174.113 84.663 174.17 84.752 174.221 84.827L174.265 84.893L174.225 84.938C174.076 85.106 173.921 85.125 173.909 85.092Z" fill="#263238"/>
<path d="M175.094 84.316C175.048 84.348 174.933 84.281 174.811 84.301C174.688 84.314 174.595 84.409 174.542 84.391C174.481 84.387 174.518 84.141 174.783 84.095C175.05 84.068 175.151 84.295 175.094 84.316Z" fill="#263238"/>
<path d="M173.026 84.516C172.989 84.562 172.876 84.534 172.747 84.537C172.618 84.534 172.504 84.563 172.467 84.517C172.427 84.476 172.54 84.329 172.746 84.329C172.952 84.328 173.066 84.475 173.026 84.516Z" fill="#263238"/>
<path d="M173.213 87.591C173.156 87.6 173.089 87.39 173.062 87.124C173.035 86.857 173.06 86.635 173.117 86.628C173.174 86.621 173.242 86.83 173.268 87.095C173.295 87.36 173.27 87.582 173.213 87.591Z" fill="#263238"/>
<path d="M174.866 86.565C174.923 86.574 174.937 86.79 174.897 87.049C174.857 87.307 174.779 87.51 174.722 87.501C174.665 87.492 174.651 87.276 174.691 87.017C174.731 86.759 174.809 86.556 174.866 86.565Z" fill="#263238"/>
<path d="M171.62 88.179C171.561 88.161 171.711 87.567 171.752 86.822C171.799 86.077 171.72 85.47 171.78 85.459C171.832 85.446 172.008 86.058 171.96 86.834C171.917 87.611 171.67 88.199 171.62 88.179Z" fill="#263238"/>
<path d="M176.245 88.019C176.188 88.03 176.047 87.365 175.929 86.534C175.811 85.703 175.762 85.025 175.819 85.02C175.876 85.015 176.018 85.68 176.135 86.505C176.252 87.33 176.301 88.008 176.245 88.019Z" fill="#263238"/>
<path d="M213.681 155.307L215.744 188.729C215.818 189.919 216.805 190.847 217.997 190.847H278.166C279.413 190.847 280.424 189.836 280.424 188.59V162.562C280.424 161.31 279.404 160.297 278.152 160.305L241.149 160.543C240.551 160.547 239.976 160.313 239.55 159.894L233.119 153.559C232.697 153.143 232.128 152.91 231.535 152.91H215.935C214.633 152.91 213.601 154.008 213.681 155.307Z" fill="#FF725E"/>
<path opacity="0.4" d="M213.681 155.307L215.744 188.729C215.818 189.919 216.805 190.847 217.997 190.847H278.166C279.413 190.847 280.424 189.836 280.424 188.59V162.562C280.424 161.31 279.404 160.297 278.152 160.305L241.149 160.543C240.551 160.547 239.976 160.313 239.55 159.894L233.119 153.559C232.697 153.143 232.128 152.91 231.535 152.91H215.935C214.633 152.91 213.601 154.008 213.681 155.307Z" fill="black"/>
<path d="M209.88 169.279L214.899 210.245C214.988 210.973 215.606 211.52 216.34 211.52H280.41C281.168 211.52 281.798 210.937 281.857 210.182L285.083 169.216C285.149 168.372 284.482 167.65 283.636 167.65H211.321C210.449 167.651 209.774 168.414 209.88 169.279Z" fill="#FF725E"/>
<path d="M130.77 173.646L132.929 202.083C133.006 203.096 133.858 203.874 134.873 203.86L186.112 203.135C187.174 203.12 188.022 202.247 188.007 201.185L187.693 179.02C187.678 177.953 186.797 177.103 185.731 177.125L154.222 177.774C153.713 177.784 153.22 177.593 152.853 177.241L147.3 171.924C146.935 171.575 146.448 171.383 145.943 171.39L132.659 171.578C131.551 171.593 130.686 172.54 130.77 173.646Z" fill="#FF725E"/>
<path d="M187.61 173.744L131.626 174.533L132.097 207.987L188.082 207.197L187.61 173.744Z" fill="#F5F5F5"/>
<path d="M127.223 177.591L131.991 212.417C132.076 213.036 132.609 213.494 133.233 213.485L187.794 212.713C188.439 212.704 188.969 212.2 189.01 211.556L191.263 176.631C191.309 175.911 190.733 175.305 190.012 175.315L128.43 176.186C127.688 176.198 127.122 176.856 127.223 177.591Z" fill="#FF725E"/>
<path d="M312.488 171.228L314.597 199.008C314.672 199.998 315.504 200.758 316.496 200.744L366.551 200.036C367.588 200.021 368.417 199.169 368.403 198.131L368.097 176.479C368.082 175.437 367.222 174.606 366.18 174.628L335.4 175.262C334.903 175.272 334.422 175.085 334.062 174.741L328.637 169.547C328.281 169.206 327.805 169.019 327.311 169.026L314.334 169.21C313.252 169.223 312.406 170.149 312.488 171.228Z" fill="#FF725E"/>
<path opacity="0.4" d="M312.488 171.228L314.597 199.008C314.672 199.998 315.504 200.758 316.496 200.744L366.551 200.036C367.588 200.021 368.417 199.169 368.403 198.131L368.097 176.479C368.082 175.437 367.222 174.606 366.18 174.628L335.4 175.262C334.903 175.272 334.422 175.085 334.062 174.741L328.637 169.547C328.281 169.206 327.805 169.019 327.311 169.026L314.334 169.21C313.252 169.223 312.406 170.149 312.488 171.228Z" fill="black"/>
<path d="M368.016 171.333L313.325 172.104L313.786 204.785L368.476 204.014L368.016 171.333Z" fill="#EBEBEB"/>
<path d="M309.024 175.083L313.682 209.104C313.765 209.709 314.286 210.157 314.896 210.148L368.195 209.394C368.825 209.385 369.343 208.893 369.383 208.264L371.584 174.146C371.629 173.443 371.066 172.851 370.362 172.861L310.204 173.712C309.478 173.721 308.926 174.364 309.024 175.083Z" fill="#FF725E"/>
<path d="M231.384 217.687L226.022 220.243L221.09 212.504L223.974 206.529C224.248 205.975 224.541 205.352 224.848 204.638C225.206 203.805 225.418 202.914 225.484 202.01C225.564 200.914 225.613 199.454 225.398 198.647C225.132 197.65 226.187 196.833 226.905 197.414C227.622 197.996 228.422 200.725 227.89 204.017C227.357 207.308 231.191 203.816 232.61 202.569C234.029 201.322 238.595 197.673 239.312 197.815C240.363 198.023 240.334 199.218 238.889 200.43C237.426 201.657 233.358 205.587 234.032 206.321C234.032 206.321 234.043 206.322 234.064 206.324C235.777 206.503 237.183 207.771 237.561 209.451C237.926 211.073 238.221 213.311 237.309 214.049C235.591 215.442 231.384 217.687 231.384 217.687Z" fill="#FFBE9D"/>
<path d="M126.31 148.725L126.184 190.003L143.893 190.848L144.405 180.808C144.405 180.808 150.695 182.057 152.318 176.215C153.355 172.483 153.096 143.645 153.096 143.645L126.31 148.725Z" fill="#FFBE9D"/>
<path d="M157.093 147.715C155.9 150.182 150.22 154.695 150.22 154.695L147.654 161.571C145.425 159.826 142.432 159.926 141.866 163.843C141.457 166.673 144.976 167.245 144.976 167.245C142.927 170.731 141.538 173.551 138.555 176.867C135.327 180.456 133.518 180.818 130.017 180.876H126.157C126.157 180.876 118.257 174.275 119.819 156.888C121.38 139.502 137.011 144.574 140.742 140.23C146.818 133.157 161.075 139.481 157.093 147.715Z" fill="#263238"/>
<path d="M120.697 171.426C120.697 171.426 120.868 171.417 121.191 171.421C121.513 171.403 121.992 171.39 122.591 171.256C123.785 171.016 125.478 170.314 127.118 168.851C128.775 167.403 130.236 165.2 131.71 162.699C133.206 160.238 134.851 157.34 137.674 155.389C139.08 154.428 140.662 153.864 142.195 153.463C143.735 153.063 145.248 152.817 146.674 152.54C149.522 152.016 152.078 151.224 153.82 149.874C155.567 148.54 156.439 146.882 156.716 145.702C157.002 144.504 156.837 143.81 156.876 143.813C156.876 143.813 156.902 143.981 156.931 144.306C156.929 144.63 156.941 145.117 156.795 145.721C156.539 146.923 155.673 148.621 153.91 149.991C152.15 151.379 149.565 152.193 146.711 152.728C143.885 153.306 140.593 153.688 137.791 155.561C135.021 157.473 133.378 160.341 131.874 162.798C130.391 165.295 128.905 167.511 127.215 168.962C125.544 170.428 123.818 171.118 122.606 171.336C121.384 171.563 120.697 171.426 120.697 171.426Z" fill="#455A64"/>
<path d="M136.461 351.118L143.659 461.245L160.371 459.398C160.371 459.398 160.781 352.038 159.996 352.098C159.212 352.159 136.461 351.118 136.461 351.118Z" fill="#FFBE9D"/>
<path d="M101.425 350.462L82.625 459.643L97.481 461.901L123.508 355.651L101.425 350.462Z" fill="#FFBE9D"/>
<path d="M106.967 281.846L81.334 429.041L111.05 435.479L133.61 312.794L138.663 432.164H166.262L161.302 277.338L106.967 281.846Z" fill="#263238"/>
<path d="M111.449 436.077L80.759 429.429L80.841 428.956L106.541 281.38L106.926 281.349L161.786 276.797L161.803 277.323L166.78 432.665H138.185L138.165 432.187L133.3 317.254L111.449 436.077ZM81.908 428.655L110.652 434.882L133.922 308.334L139.143 431.665H165.747L160.82 277.881L107.394 282.314L81.908 428.655Z" fill="#263238"/>
<path d="M141.453 312.639C141.454 312.675 141.095 312.724 140.444 312.783C139.676 312.84 138.757 312.908 137.686 312.987C135.357 313.147 132.137 313.311 128.601 313.656C125.065 314.009 121.875 314.479 119.559 314.778C118.493 314.91 117.579 315.023 116.814 315.118C116.164 315.188 115.802 315.209 115.797 315.174C115.791 315.138 116.143 315.049 116.783 314.918C117.423 314.786 118.353 314.614 119.503 314.414C121.805 314.022 124.992 313.493 128.549 313.138C132.105 312.79 135.334 312.685 137.668 312.619C138.836 312.59 139.781 312.577 140.435 312.581C141.089 312.584 141.452 312.603 141.453 312.639Z" fill="#455A64"/>
<path d="M161.875 301.303C161.88 301.335 161.639 301.412 161.19 301.487C160.741 301.563 160.079 301.618 159.261 301.582C157.637 301.521 155.333 300.975 153.275 299.497C151.217 298.017 149.965 296.007 149.39 294.487C149.095 293.723 148.936 293.078 148.865 292.628C148.793 292.178 148.788 291.925 148.821 291.92C148.911 291.902 149.071 292.896 149.729 294.343C150.373 295.781 151.619 297.664 153.579 299.074C155.54 300.482 157.721 301.063 159.29 301.215C160.871 301.377 161.865 301.212 161.875 301.303Z" fill="#455A64"/>
<path d="M166.654 425.991C166.647 426.135 160.412 425.934 152.73 425.543C145.046 425.152 138.824 424.719 138.831 424.575C138.838 424.432 145.072 424.632 152.756 425.023C160.438 425.414 166.661 425.847 166.654 425.991Z" fill="#455A64"/>
<path d="M112.898 426.731C112.886 426.765 112.467 426.659 111.719 426.438C110.869 426.183 109.812 425.866 108.559 425.49C105.892 424.689 102.197 423.625 98.0801 422.586C93.9611 421.55 90.2021 420.735 87.4751 420.176C86.1941 419.913 85.1131 419.692 84.2441 419.513C83.4811 419.353 83.0621 419.248 83.0681 419.212C83.0741 419.177 83.5041 419.214 84.2781 419.313C85.0521 419.409 86.1681 419.579 87.5441 419.814C90.2941 420.281 94.0771 421.041 98.2081 422.081C102.337 423.123 106.028 424.247 108.671 425.138C109.993 425.583 111.056 425.963 111.784 426.245C112.512 426.526 112.909 426.697 112.898 426.731Z" fill="#455A64"/>
<path d="M104.329 291.722H162.48L160.228 244.718C159.858 235.484 159.914 234.382 159.685 225.857C159.685 225.857 168.366 236.353 175.193 243.713C179.318 248.161 185.857 249.404 191.342 246.81L227.07 221.885L220.38 204.771L187.912 224.645C186.425 223.721 173.783 205.69 165.048 196.885C159.458 191.25 151.919 188.007 143.985 187.776C137.98 187.601 130.732 187.879 124.261 188.567C114.421 189.613 106.723 197.516 105.896 207.377C105.263 214.923 105.772 223.683 105.772 238.572L104.329 291.722Z" fill="#455A64"/>
<path d="M113.685 192.878C108.198 195.312 85.3 224.647 83.681 243.704C82.474 257.908 110.107 256.362 110.107 256.362C110.107 256.362 111.992 198.082 111.168 198.907" fill="#455A64"/>
<path d="M108.081 197.848C108.081 197.848 108.076 198.059 108.046 198.457C108.01 198.912 107.963 199.489 107.906 200.201C107.789 201.715 107.633 203.908 107.487 206.62C107.178 212.043 106.915 219.543 106.657 227.827C106.4 236.115 106.166 243.617 105.891 249.044C105.759 251.758 105.619 253.952 105.505 255.467C105.446 256.179 105.398 256.756 105.36 257.211C105.325 257.609 105.296 257.818 105.296 257.818C105.296 257.818 105.297 257.607 105.319 257.208C105.346 256.753 105.381 256.175 105.424 255.462C105.503 253.877 105.611 251.699 105.743 249.038C105.981 243.611 106.191 236.109 106.448 227.821C106.705 219.536 106.992 212.035 107.339 206.612C107.504 203.9 107.682 201.708 107.825 200.195C107.898 199.485 107.957 198.908 108.003 198.454C108.048 198.055 108.081 197.848 108.081 197.848Z" fill="#263238"/>
<path d="M105.819 235.238C105.841 235.255 105.547 235.676 105.035 236.329C104.524 236.983 103.792 237.865 102.943 238.804C102.093 239.743 101.287 240.559 100.688 241.133C100.089 241.707 99.699 242.041 99.68 242.022C99.659 242 100.012 241.628 100.584 241.029C101.155 240.43 101.941 239.6 102.789 238.664C103.636 237.728 104.383 236.863 104.922 236.235C105.461 235.607 105.796 235.219 105.819 235.238Z" fill="#263238"/>
<path d="M186.572 230.422C186.544 230.417 186.592 230.095 186.693 229.58C186.794 229.064 186.948 228.354 187.131 227.572C187.314 226.79 187.49 226.085 187.628 225.578C187.766 225.071 187.865 224.761 187.892 224.769C187.92 224.777 187.871 225.1 187.77 225.616C187.669 226.132 187.515 226.84 187.333 227.62C187.151 228.399 186.975 229.102 186.837 229.609C186.7 230.115 186.601 230.427 186.572 230.422Z" fill="#263238"/>
<path d="M189.828 230.922C189.772 230.935 189.396 229.496 188.988 227.709C188.58 225.921 188.295 224.462 188.351 224.449C188.407 224.436 188.783 225.875 189.191 227.663C189.599 229.45 189.884 230.91 189.828 230.922Z" fill="#263238"/>
<path d="M161.193 227.37C161.193 227.37 161.072 227.27 160.857 227.065C160.599 226.815 160.291 226.517 159.922 226.16C159.116 225.369 157.951 224.221 156.564 222.751C155.183 221.277 153.572 219.479 152 217.311C150.434 215.146 148.909 212.591 147.849 209.68C146.775 206.777 146.317 203.801 146.482 201.12C146.605 198.448 147.114 196.035 148.023 194.211C148.914 192.374 150.132 191.189 151.032 190.516C151.491 190.182 151.857 189.939 152.122 189.801C152.38 189.653 152.521 189.584 152.521 189.584C152.54 189.615 151.971 189.887 151.082 190.58C150.203 191.268 149.019 192.454 148.156 194.275C147.276 196.084 146.786 198.472 146.674 201.129C146.522 203.785 146.98 206.727 148.045 209.608C150.186 215.41 153.979 219.693 156.671 222.65C158.042 224.131 159.191 225.294 159.979 226.102C160.337 226.47 160.636 226.777 160.886 227.034C161.092 227.25 161.193 227.37 161.193 227.37Z" fill="#263238"/>
<path d="M165.344 197.506C165.344 197.65 152.779 197.766 137.282 197.766C121.78 197.766 109.218 197.649 109.218 197.506C109.218 197.363 121.781 197.246 137.282 197.246C152.779 197.245 165.344 197.362 165.344 197.506Z" fill="#263238"/>
<path d="M172.248 205.648C172.248 205.792 156.628 205.908 137.365 205.908C118.095 205.908 102.479 205.791 102.479 205.648C102.479 205.505 118.095 205.388 137.365 205.388C156.629 205.388 172.248 205.505 172.248 205.648Z" fill="#263238"/>
<path d="M180.816 214.072C180.816 214.216 162.021 214.332 138.842 214.332C115.655 214.332 96.864 214.215 96.864 214.072C96.864 213.928 115.655 213.812 138.842 213.812C162.021 213.811 180.816 213.928 180.816 214.072Z" fill="#263238"/>
<path d="M186.712 223.056C186.712 223.2 165.214 223.316 138.702 223.316C112.18 223.316 90.687 223.199 90.687 223.056C90.687 222.912 112.18 222.796 138.702 222.796C165.215 222.796 186.712 222.913 186.712 223.056Z" fill="#263238"/>
<path d="M159.866 233.445C159.866 233.463 159.607 233.48 159.115 233.497C158.572 233.509 157.856 233.526 156.96 233.546C155.032 233.566 152.339 233.594 149.036 233.629C142.295 233.649 133.076 233.676 122.892 233.705C112.704 233.675 103.484 233.648 96.744 233.629C93.441 233.594 90.748 233.566 88.82 233.546C87.925 233.526 87.209 233.509 86.666 233.497C86.173 233.48 85.915 233.462 85.915 233.445C85.915 233.427 86.174 233.409 86.666 233.393C87.209 233.381 87.925 233.364 88.82 233.344C90.748 233.324 93.441 233.296 96.744 233.261C103.485 233.241 112.705 233.215 122.892 233.185C133.076 233.215 142.295 233.242 149.036 233.261C152.339 233.296 155.032 233.324 156.96 233.344C157.855 233.364 158.572 233.38 159.115 233.393C159.608 233.41 159.866 233.427 159.866 233.445Z" fill="#263238"/>
<path d="M210.578 234.007C210.578 234.151 200.646 234.267 188.398 234.267C176.145 234.267 166.216 234.15 166.216 234.007C166.216 233.863 176.146 233.747 188.398 233.747C200.646 233.746 210.578 233.863 210.578 234.007Z" fill="#263238"/>
<path d="M196.418 243.272C196.418 243.416 191.605 243.532 185.669 243.532C179.731 243.532 174.919 243.415 174.919 243.272C174.919 243.128 179.731 243.012 185.669 243.012C191.605 243.012 196.418 243.128 196.418 243.272Z" fill="#263238"/>
<path d="M224.055 223.899C224.055 224.043 216.701 224.159 207.63 224.159C198.557 224.159 191.204 224.042 191.204 223.899C191.204 223.756 198.557 223.639 207.63 223.639C216.701 223.638 224.055 223.755 224.055 223.899Z" fill="#263238"/>
<path d="M160.55 244.329C160.55 244.473 143.244 244.59 121.9 244.59C100.549 244.59 83.247 244.473 83.247 244.329C83.247 244.185 100.55 244.069 121.9 244.069C143.244 244.069 160.55 244.186 160.55 244.329Z" fill="#263238"/>
<path d="M161.193 256.412C161.193 256.556 148.574 256.672 133.01 256.672C117.441 256.672 104.825 256.555 104.825 256.412C104.825 256.268 117.442 256.152 133.01 256.152C148.573 256.151 161.193 256.268 161.193 256.412Z" fill="#263238"/>
<path d="M161.193 266.15C161.193 266.294 148.574 266.41 133.01 266.41C117.441 266.41 104.825 266.293 104.825 266.15C104.825 266.006 117.442 265.89 133.01 265.89C148.573 265.89 161.193 266.007 161.193 266.15Z" fill="#263238"/>
<path d="M161.193 277.338C161.193 277.482 148.574 277.598 133.01 277.598C117.441 277.598 104.825 277.481 104.825 277.338C104.825 277.195 117.442 277.078 133.01 277.078C148.573 277.078 161.193 277.194 161.193 277.338Z" fill="#263238"/>
<path d="M224.202 216.911C224.202 217.055 219.048 217.171 212.691 217.171C206.332 217.171 201.179 217.054 201.179 216.911C201.179 216.768 206.332 216.651 212.691 216.651C219.047 216.65 224.202 216.767 224.202 216.911Z" fill="#263238"/>
<path d="M82.911 456.414L80.388 466.632L97.774 468.587L98.397 458.463L82.911 456.414Z" fill="#E8505B"/>
<path d="M90.76 456.915C90.903 456.936 90.647 459.037 90.188 461.606C89.729 464.176 89.241 466.242 89.098 466.221C88.955 466.2 89.211 464.1 89.67 461.53C90.13 458.96 90.618 456.894 90.76 456.915Z" fill="#263238"/>
<path d="M97.842 467.474C97.826 467.541 96.868 467.41 95.324 467.186C93.594 466.931 91.55 466.629 89.293 466.296C86.937 465.939 84.808 465.578 83.278 465.267C81.747 464.958 80.815 464.71 80.83 464.648C80.846 464.581 81.804 464.712 83.348 464.936C85.078 465.191 87.122 465.493 89.38 465.826C91.735 466.183 93.864 466.544 95.394 466.855C96.924 467.164 97.857 467.412 97.842 467.474Z" fill="#263238"/>
<path d="M162.399 460.935L162.341 458.923L143.391 459.392L143.513 466.027L144.684 466.076C149.896 466.247 171.198 466.581 174.654 465.448C178.509 464.183 162.399 460.935 162.399 460.935Z" fill="#E8505B"/>
<g opacity="0.4">
<path d="M150.349 465.724C150.045 464.154 149.135 462.709 147.851 461.756C146.567 460.803 145.001 460.321 143.41 460.484L143.525 465.756L150.349 465.724Z" fill="white"/>
</g>
<g opacity="0.4">
<path d="M170.276 462.801C170.276 462.801 175.93 464.295 175.251 465.236C174.571 466.177 153.032 466.65 143.513 466.027L143.534 465.605L168.663 465.268C168.663 465.268 169.179 462.872 170.276 462.801Z" fill="white"/>
</g>
<path d="M143.237 465.599C143.237 465.607 143.349 465.616 143.562 465.627C143.842 465.638 144.149 465.65 144.495 465.663C145.428 465.683 146.574 465.707 147.927 465.736C150.825 465.777 154.83 465.78 159.252 465.687C163.675 465.593 167.677 465.42 170.571 465.257C171.921 465.171 173.066 465.098 173.997 465.039C174.342 465.011 174.648 464.986 174.927 464.964C175.139 464.944 175.251 464.93 175.25 464.922C175.249 464.914 175.137 464.913 174.924 464.918C174.644 464.928 174.337 464.938 173.991 464.951C173.059 464.99 171.914 465.039 170.563 465.096C167.668 465.218 163.668 465.365 159.247 465.459C154.828 465.552 150.825 465.575 147.928 465.576C146.575 465.576 145.429 465.576 144.496 465.576C144.15 465.579 143.843 465.581 143.563 465.583C143.349 465.586 143.237 465.591 143.237 465.599Z" fill="#263238"/>
<path d="M168.664 465.56C168.734 465.567 168.77 464.747 169.269 463.909C169.753 463.062 170.45 462.628 170.409 462.571C170.394 462.514 169.593 462.888 169.071 463.794C168.538 464.694 168.607 465.576 168.664 465.56Z" fill="#263238"/>
<path d="M163.035 462.858C163.089 462.891 163.348 462.561 163.614 462.121C163.88 461.681 164.051 461.299 163.997 461.266C163.943 461.233 163.684 461.563 163.418 462.003C163.153 462.443 162.981 462.826 163.035 462.858Z" fill="#263238"/>
<path d="M161.49 462.084C161.533 462.13 161.827 461.925 162.145 461.626C162.464 461.327 162.687 461.047 162.644 461.001C162.601 460.955 162.307 461.16 161.989 461.459C161.67 461.759 161.447 462.038 161.49 462.084Z" fill="#263238"/>
<path d="M160.485 460.325C160.486 460.388 160.928 460.435 161.472 460.429C162.017 460.423 162.457 460.367 162.457 460.304C162.456 460.241 162.014 460.195 161.47 460.2C160.925 460.206 160.485 460.262 160.485 460.325Z" fill="#263238"/>
<path d="M160.126 459.077C160.106 459.134 160.591 459.34 161.231 459.372C161.872 459.408 162.376 459.254 162.362 459.196C162.35 459.131 161.852 459.179 161.244 459.144C160.635 459.113 160.145 459.013 160.126 459.077Z" fill="#263238"/>
<path d="M163.639 461.199C163.638 461.225 164.105 461.271 164.851 461.165C165.223 461.112 165.663 461.014 166.135 460.852C166.369 460.763 166.615 460.694 166.867 460.531C166.985 460.448 167.116 460.333 167.159 460.148C167.205 459.965 167.104 459.763 166.965 459.668C165.793 459.093 164.647 459.77 164.23 460.379C164 460.69 163.898 460.99 163.852 461.197C163.808 461.405 163.814 461.524 163.828 461.525C163.871 461.54 163.899 461.046 164.357 460.479C164.583 460.201 164.928 459.928 165.378 459.783C165.803 459.647 166.412 459.599 166.825 459.85C167.021 459.988 166.951 460.216 166.739 460.349C166.542 460.482 166.286 460.566 166.064 460.655C165.609 460.823 165.184 460.935 164.823 461.007C164.1 461.15 163.638 461.161 163.639 461.199Z" fill="#263238"/>
<path d="M163.954 461.252C163.972 461.265 164.144 460.951 164.075 460.407C164.04 460.14 163.934 459.825 163.725 459.529C163.505 459.265 163.222 458.9 162.702 458.933C162.422 458.975 162.292 459.298 162.341 459.501C162.368 459.713 162.467 459.893 162.559 460.038C162.746 460.337 162.955 460.578 163.148 460.759C163.536 461.122 163.84 461.258 163.852 461.234C163.873 461.204 163.606 461.022 163.263 460.645C163.093 460.457 162.907 460.217 162.74 459.929C162.568 459.676 162.444 459.219 162.747 459.157C163.05 459.121 163.366 459.416 163.557 459.654C163.753 459.912 163.865 460.192 163.917 460.435C164.02 460.927 163.914 461.244 163.954 461.252Z" fill="#263238"/>
<path d="M143.509 460.429C143.514 460.472 144.048 460.366 144.903 460.448C145.75 460.523 146.932 460.844 147.971 461.635C149.01 462.427 149.633 463.482 149.93 464.279C150.236 465.081 150.276 465.624 150.318 465.618C150.332 465.617 150.336 465.481 150.31 465.237C150.285 464.993 150.219 464.642 150.082 464.224C149.816 463.392 149.192 462.279 148.109 461.453C147.025 460.629 145.786 460.322 144.914 460.287C144.474 460.266 144.118 460.295 143.877 460.336C143.636 460.376 143.506 460.415 143.509 460.429Z" fill="#263238"/>
<path d="M152.683 463.833C152.676 463.892 153.91 464.067 155.443 464.046C156.977 464.029 158.205 463.824 158.197 463.764C158.189 463.698 156.959 463.8 155.44 463.817C153.921 463.838 152.689 463.767 152.683 463.833Z" fill="#263238"/>
<path d="M148.985 463.909C148.94 463.956 149.092 464.168 149.223 464.448C149.359 464.726 149.429 464.977 149.494 464.971C149.555 464.969 149.585 464.671 149.429 464.349C149.276 464.026 149.025 463.862 148.985 463.909Z" fill="#263238"/>
<path d="M147.554 462.205C147.51 462.251 147.636 462.444 147.836 462.637C148.036 462.831 148.233 462.951 148.277 462.906C148.321 462.861 148.195 462.667 147.995 462.473C147.795 462.28 147.598 462.16 147.554 462.205Z" fill="#263238"/>
<path d="M145.543 461.456C145.558 461.52 145.808 461.512 146.087 461.603C146.368 461.688 146.569 461.838 146.618 461.794C146.668 461.758 146.503 461.493 146.156 461.385C145.809 461.275 145.522 461.398 145.543 461.456Z" fill="#263238"/>
<path d="M144.115 461.114C144.094 461.173 144.204 461.268 144.362 461.325C144.52 461.382 144.665 461.381 144.687 461.321C144.708 461.262 144.598 461.167 144.44 461.11C144.282 461.052 144.137 461.054 144.115 461.114Z" fill="#263238"/>
</svg>
