<svg width="500" height="500" viewBox="0 0 500 500" fill="none" xmlns="http://www.w3.org/2000/svg">
<path d="M464.301 70.107C465.276 77.169 460.011 82.117 449.038 83.63L426.977 86.672L421.343 45.819L442.236 42.937C452.974 41.456 458.831 45.109 459.7 51.413C460.239 55.323 458.69 58.748 455.439 61.04C460.274 62.038 463.618 65.146 464.301 70.107ZM433.933 52.587L435.02 60.466L442.958 59.371C446.81 58.84 448.609 57.224 448.247 54.598C447.894 52.031 445.724 50.961 441.871 51.493L433.933 52.587ZM452.452 70.433C452.065 67.631 449.78 66.579 445.811 67.125L436.122 68.461L437.265 76.748L446.954 75.412C450.922 74.866 452.839 73.234 452.452 70.433Z" fill="#E0E0E0"/>
<path d="M82.436 305.551H38.05V312.585H82.436V305.551Z" fill="#EBEBEB"/>
<path d="M82.436 331.148H38.05V338.182H82.436V331.148Z" fill="#EBEBEB"/>
<path d="M60.243 318.798H38.05V325.832H60.243V318.798Z" fill="#EBEBEB"/>
<path d="M199.952 365.152H165.885V337.171H183.532V343.073H171.787V359.25H194.05V353.369H199.952V365.152Z" fill="#EBEBEB"/>
<path d="M219.599 365.152H205.076V359.25H213.697V343.073H191.434V350.608H185.532V337.171H219.599V365.152Z" fill="#EBEBEB"/>
<path d="M468.87 128.038H474.762L466.514 169.278H460.622L468.87 128.038Z" fill="#EBEBEB"/>
<path d="M25.011 79.462H116.906V212.7H25.637L25.011 79.462Z" fill="#E0E0E0"/>
<path d="M18.1174 212.075H109.176L109.176 80.0885H18.1174L18.1174 212.075Z" fill="white"/>
<path d="M109.802 79.462V212.7H17.491V79.462H109.802ZM108.55 211.448V80.714H18.743V211.448H108.55Z" fill="#E0E0E0"/>
<path d="M97.863 94.383H29.431V197.779H97.863V94.383Z" fill="white"/>
<path d="M29.431 94.383C29.431 94.383 29.443 94.561 29.449 94.893C29.453 95.243 29.459 95.73 29.467 96.363C29.475 97.673 29.487 99.575 29.503 102.041C29.522 107.008 29.549 114.229 29.583 123.348C29.619 141.582 29.67 167.39 29.73 197.778L29.431 197.479C50.339 197.471 73.506 197.462 97.855 197.452H97.863L97.537 197.778C97.562 158.774 97.585 122.814 97.603 94.382L97.863 94.642C77.038 94.585 59.963 94.538 48.073 94.505C42.13 94.476 37.487 94.454 34.305 94.439C32.732 94.426 31.525 94.417 30.687 94.41C29.866 94.402 29.431 94.383 29.431 94.383C29.431 94.383 29.829 94.364 30.632 94.355C31.459 94.348 32.65 94.339 34.202 94.326C37.371 94.311 41.994 94.289 47.912 94.26C59.841 94.227 76.971 94.18 97.864 94.123L98.124 94.122V94.383C98.142 122.815 98.165 158.775 98.19 197.779V198.105H97.863H97.855C73.506 198.095 50.34 198.086 29.431 198.078H29.131L29.132 197.779C29.192 167.311 29.243 141.435 29.279 123.153C29.313 114.062 29.341 106.864 29.359 101.914C29.375 99.474 29.387 97.592 29.395 96.295C29.403 95.676 29.409 95.201 29.413 94.858C29.419 94.538 29.431 94.383 29.431 94.383Z" fill="#E0E0E0"/>
<path d="M17.8621 212.074C17.7911 212.019 18.3571 211.155 19.3321 209.805C20.3071 208.455 21.6901 206.616 23.2781 204.631C24.8681 202.646 26.3711 200.899 27.4961 199.67C28.6221 198.44 29.3641 197.722 29.4301 197.78C29.5691 197.903 26.9521 201.076 23.7861 205.039C20.6261 209.005 18.0101 212.19 17.8621 212.074Z" fill="#E0E0E0"/>
<path d="M18.117 80.088C18.258 79.976 20.905 83.086 24.029 87.033C27.154 90.981 29.572 94.271 29.43 94.383C29.289 94.495 26.642 91.386 23.518 87.438C20.395 83.491 17.976 80.2 18.117 80.088Z" fill="#E0E0E0"/>
<path d="M109.189 80.193C105.213 85.098 101.238 90.004 97.262 94.909Z" fill="white"/>
<path d="M97.262 94.909C97.122 94.795 99.679 91.409 102.972 87.346C106.266 83.282 109.049 80.08 109.189 80.193C109.329 80.306 106.773 83.692 103.479 87.756C100.185 91.82 97.402 95.022 97.262 94.909Z" fill="#E0E0E0"/>
<path d="M109.176 212.074C109.035 212.186 106.415 209.109 103.325 205.202C100.234 201.294 97.844 198.037 97.985 197.925C98.126 197.813 100.745 200.89 103.836 204.798C106.926 208.704 109.317 211.962 109.176 212.074Z" fill="#E0E0E0"/>
<path d="M68.059 147.59H56.017L54.584 150.909C54.114 152.015 53.88 152.929 53.88 153.649C53.88 154.604 54.265 155.308 55.037 155.761C55.489 156.029 56.603 156.23 58.38 156.365V157.295H47.042V156.365C48.265 156.18 49.271 155.673 50.059 154.844C50.847 154.014 51.819 152.301 52.975 149.703L65.167 122.5H65.645L77.939 150.456C79.112 153.104 80.075 154.772 80.83 155.459C81.4 155.979 82.205 156.281 83.244 156.365V157.295H66.752V156.365H67.431C68.754 156.365 69.685 156.18 70.221 155.812C70.589 155.544 70.774 155.158 70.774 154.655C70.774 154.354 70.724 154.044 70.624 153.725C70.59 153.574 70.339 152.945 69.869 151.839L68.059 147.59ZM67.204 145.73L62.126 133.989L56.896 145.73H67.204Z" fill="#E0E0E0"/>
<path d="M215.411 469.377C213.788 467.985 210.167 463.576 212.959 458.446C213.983 456.566 216.156 455.635 218.124 454.807C220.092 453.978 222.16 453.258 223.788 451.873C226.859 449.26 227.706 444.92 229.744 441.435C232.084 437.434 236.452 434.437 241.066 434.647C246.351 434.887 250.758 439.203 252.755 444.124C254.753 449.045 254.823 454.509 254.864 459.824C254.887 462.762 254.757 466.075 252.599 468.059C250.61 469.889 247.615 469.911 244.919 469.829C235.293 469.533 225.667 469.238 216.041 468.942" fill="#F5F5F5"/>
<path d="M270.645 389.966H194.699L208.38 471.54C208.978 475.103 211.556 477.849 214.864 478.802C214.951 478.83 215.042 478.85 215.13 478.875C215.356 478.933 215.574 479.009 215.806 479.05C216.307 479.154 216.824 479.206 217.351 479.228C217.355 479.253 217.359 479.281 217.363 479.306L217.733 479.247C217.734 479.247 217.735 479.247 217.736 479.247H251.584C252.221 479.247 252.842 479.181 253.444 479.062C257.441 478.444 260.641 475.236 261.127 471.089L267.722 414.883L268.019 412.648H267.984L270.596 390.389L270.645 389.966ZM256.317 442H248.523L249.309 418.326H258.339L256.317 442ZM259.097 418.326H266.559L263.78 442H257.074L259.097 418.326ZM236.83 468.245L236.356 447.678H247.58L246.897 468.245H236.83ZM224.697 447.678H235.603L236.077 468.245H226.296L224.697 447.678ZM225.539 468.245H216.396C215.527 462.692 214.397 455.475 213.173 447.678H223.941L225.539 468.245ZM224.255 442L222.415 418.326H234.926L235.472 442H224.255ZM236.226 442L235.681 418.326H248.556L247.769 442H236.226ZM235.55 412.648L235.045 390.723H249.472L248.744 412.648H235.55ZM234.796 412.648H221.975L220.271 390.723H234.291L234.796 412.648ZM221.219 412.648H207.654C207.174 409.62 206.718 406.753 206.307 404.175C204.892 395.311 204.36 391.978 204.065 390.723H219.516L221.219 412.648ZM221.66 418.326L223.5 442H212.281C211.904 439.598 211.522 437.168 211.139 434.736C210.26 429.147 209.379 423.56 208.552 418.325L221.66 418.326ZM211.518 442H204.189L200.218 418.326H207.787C208.945 425.642 210.228 433.785 211.518 442ZM212.41 447.678C213.527 454.795 214.626 461.813 215.633 468.245H208.591L205.141 447.678H212.41ZM247.652 468.245L248.335 447.678H255.832L254.075 468.245H247.652ZM249.498 412.648L250.226 390.723H260.697L258.824 412.648H249.498ZM203.345 390.724C203.646 392.309 205.032 400.936 206.889 412.649H199.266L195.589 390.724H203.345ZM260.701 468.245H254.832L256.589 447.678H263.115L260.701 468.245ZM267.224 412.648H259.581L261.454 390.723H269.796L267.224 412.648Z" fill="#E0E0E0"/>
<path d="M476.653 481.652C476.653 481.796 374.273 481.912 248.011 481.912C121.705 481.912 19.347 481.795 19.347 481.652C19.347 481.508 121.705 481.392 248.011 481.392C374.273 481.391 476.653 481.508 476.653 481.652Z" fill="#263238"/>
<path d="M414.884 58.2395H96.2521V291.727H414.884V58.2395Z" fill="white"/>
<path d="M388.678 205.936H114.974V213.763H388.678V205.936Z" fill="#EBEBEB"/>
<path d="M388.545 195.557H114.841V203.384H388.545V195.557Z" fill="#EBEBEB"/>
<path d="M388.545 185.036H114.841V192.862H388.545V185.036Z" fill="#EBEBEB"/>
<path d="M388.545 174.514H114.841V182.34H388.545V174.514Z" fill="#EBEBEB"/>
<path d="M388.678 216.694H114.974V224.52H388.678V216.694Z" fill="#EBEBEB"/>
<path d="M388.678 226.832H114.974V234.659H388.678V226.832Z" fill="#EBEBEB"/>
<path d="M388.678 237.386H114.974V245.213H388.678V237.386Z" fill="#EBEBEB"/>
<path d="M388.678 247.425H114.974V255.251H388.678V247.425Z" fill="#EBEBEB"/>
<path d="M388.678 257.069H114.974V264.895H388.678V257.069Z" fill="#EBEBEB"/>
<path d="M388.678 268.034H114.974V275.861H388.678V268.034Z" fill="#EBEBEB"/>
<path d="M415.196 58.0045H96.2521V75.3828H415.196V58.0045Z" fill="#FF725E"/>
<path d="M107.47 66.6938C107.47 67.7329 106.583 68.5749 105.49 68.5749C104.396 68.5749 103.51 67.7329 103.51 66.6938C103.51 65.6546 104.396 64.8126 105.49 64.8126C106.583 64.8117 107.47 65.6546 107.47 66.6938Z" fill="white"/>
<path d="M114.518 66.6938C114.518 67.7329 113.632 68.5749 112.538 68.5749C111.444 68.5749 110.558 67.7329 110.558 66.6938C110.558 65.6546 111.444 64.8126 112.538 64.8126C113.632 64.8117 114.518 65.6546 114.518 66.6938Z" fill="white"/>
<path d="M121.567 66.6938C121.567 67.7329 120.681 68.5749 119.587 68.5749C118.493 68.5749 117.607 67.7329 117.607 66.6938C117.607 65.6546 118.493 64.8126 119.587 64.8126C120.68 64.8117 121.567 65.6546 121.567 66.6938Z" fill="white"/>
<path d="M404.521 165.047C404.521 165.179 338.008 165.286 255.98 165.286C173.923 165.286 107.424 165.178 107.424 165.047C107.424 164.914 173.923 164.807 255.98 164.807C338.009 164.806 404.521 164.914 404.521 165.047Z" fill="#E0E0E0"/>
<path d="M386.2 179.019C386.2 179.152 325.8 179.259 251.309 179.259C176.793 179.259 116.406 179.151 116.406 179.019C116.406 178.886 176.793 178.779 251.309 178.779C325.8 178.779 386.2 178.886 386.2 179.019Z" fill="#263238"/>
<path d="M386.2 189.406C386.2 189.539 325.8 189.646 251.309 189.646C176.793 189.646 116.406 189.538 116.406 189.406C116.406 189.274 176.793 189.166 251.309 189.166C325.8 189.166 386.2 189.273 386.2 189.406Z" fill="#263238"/>
<path d="M386.2 199.793C386.2 199.926 325.8 200.033 251.309 200.033C176.793 200.033 116.406 199.925 116.406 199.793C116.406 199.661 176.793 199.553 251.309 199.553C325.8 199.553 386.2 199.66 386.2 199.793Z" fill="#263238"/>
<path d="M386.2 210.18C386.2 210.313 325.8 210.42 251.309 210.42C176.793 210.42 116.406 210.312 116.406 210.18C116.406 210.047 176.793 209.94 251.309 209.94C325.8 209.94 386.2 210.047 386.2 210.18Z" fill="#263238"/>
<path d="M386.2 220.567C386.2 220.7 325.8 220.807 251.309 220.807C176.793 220.807 116.406 220.699 116.406 220.567C116.406 220.435 176.793 220.327 251.309 220.327C325.8 220.327 386.2 220.434 386.2 220.567Z" fill="#263238"/>
<path d="M386.2 230.953C386.2 231.086 325.8 231.193 251.309 231.193C176.793 231.193 116.406 231.085 116.406 230.953C116.406 230.821 176.793 230.714 251.309 230.714C325.8 230.714 386.2 230.821 386.2 230.953Z" fill="#263238"/>
<path d="M386.2 241.34C386.2 241.473 325.8 241.58 251.309 241.58C176.793 241.58 116.406 241.472 116.406 241.34C116.406 241.207 176.793 241.101 251.309 241.101C325.8 241.101 386.2 241.207 386.2 241.34Z" fill="#263238"/>
<path d="M386.395 251.356C386.395 251.488 325.995 251.595 251.504 251.595C176.988 251.595 116.601 251.488 116.601 251.356C116.601 251.223 176.988 251.116 251.504 251.116C325.995 251.116 386.395 251.224 386.395 251.356Z" fill="#263238"/>
<path d="M386.59 261.373C386.59 261.505 326.189 261.612 251.699 261.612C177.183 261.612 116.796 261.504 116.796 261.373C116.796 261.241 177.184 261.133 251.699 261.133C326.19 261.132 386.59 261.24 386.59 261.373Z" fill="#263238"/>
<path d="M116.99 271.388C116.99 271.256 177.391 271.149 251.881 271.149C326.398 271.149 386.785 271.256 386.785 271.388C386.785 271.521 326.398 271.628 251.881 271.628C177.391 271.628 116.99 271.521 116.99 271.388Z" fill="#263238"/>
<path d="M414.884 291.727C414.883 290.084 414.801 199.276 414.675 58.2395L414.884 58.4376C324.398 58.4496 214.586 58.4643 96.2793 58.479H96.2521L96.5042 58.2395C96.4955 142.347 96.4868 221.925 96.479 291.727L96.2521 291.512C285.31 291.639 412.887 291.726 414.884 291.727C412.888 291.728 285.31 291.815 96.2521 291.943H96.0252V291.727C96.0175 221.925 96.0087 142.347 96 58.2395V58H96.2531H96.2802C214.587 58.0157 324.399 58.0304 414.885 58.0415H415.093V58.2395C414.966 199.275 414.886 290.085 414.884 291.727Z" fill="#263238"/>
<g clip-path="url(#clip0_10_5366)">
<path d="M308.347 133.001V153.083C308.347 156.787 311.507 159.79 315.406 159.79H341.238C341.991 159.79 342.703 160.119 343.169 160.682L349.508 173.813L357.152 160.893C357.618 160.398 358.284 160.115 358.983 160.115H386.096C389.994 160.115 393.155 157.113 393.155 153.409V132.878C393.155 129.169 389.987 126.165 386.083 126.172L315.394 126.296C311.499 126.302 308.347 129.302 308.347 133.001Z" fill="#FF725E"/>
<path d="M327.059 150.346H322.638V146.387L332.817 135.824L333.02 135.771C334.446 135.401 335.554 135.553 336.318 136.218C337.604 137.337 337.258 139.395 337.214 139.628L337.177 139.825L327.059 150.346ZM324.1 148.957H326.413L335.801 139.194C335.86 138.675 335.849 137.69 335.328 137.239C334.986 136.944 334.412 136.882 333.604 137.062L324.1 146.924V148.957Z" fill="white"/>
<path d="M347.129 139.578H348.186V145.357C348.186 145.953 348.045 146.486 347.764 146.955C347.486 147.421 347.092 147.789 346.584 148.058C346.075 148.325 345.479 148.459 344.794 148.459C344.109 148.459 343.513 148.325 343.004 148.058C342.496 147.789 342.101 147.421 341.819 146.955C341.541 146.486 341.402 145.953 341.402 145.357V139.578H342.459V145.271C342.459 145.698 342.552 146.077 342.74 146.409C342.927 146.739 343.194 146.999 343.541 147.189C343.89 147.377 344.308 147.47 344.794 147.47C345.28 147.47 345.697 147.377 346.047 147.189C346.396 146.999 346.663 146.739 346.848 146.409C347.035 146.077 347.129 145.698 347.129 145.271V139.578ZM350.16 150.76V141.76H351.132V142.8H351.251C351.325 142.686 351.427 142.541 351.558 142.365C351.691 142.186 351.882 142.027 352.129 141.888C352.379 141.746 352.717 141.675 353.143 141.675C353.694 141.675 354.18 141.813 354.6 142.088C355.021 142.364 355.349 142.754 355.585 143.26C355.82 143.766 355.938 144.362 355.938 145.05C355.938 145.743 355.82 146.344 355.585 146.852C355.349 147.358 355.022 147.75 354.605 148.029C354.187 148.304 353.705 148.442 353.16 148.442C352.74 148.442 352.403 148.372 352.15 148.233C351.897 148.091 351.703 147.931 351.566 147.752C351.43 147.57 351.325 147.419 351.251 147.3H351.166V150.76H350.16ZM351.149 145.033C351.149 145.527 351.221 145.963 351.366 146.341C351.511 146.716 351.722 147.01 352.001 147.223C352.279 147.433 352.62 147.539 353.024 147.539C353.444 147.539 353.795 147.428 354.076 147.206C354.36 146.982 354.573 146.681 354.715 146.303C354.86 145.922 354.933 145.499 354.933 145.033C354.933 144.573 354.862 144.158 354.72 143.789C354.58 143.416 354.369 143.122 354.085 142.906C353.803 142.688 353.45 142.578 353.024 142.578C352.615 142.578 352.271 142.682 351.992 142.889C351.714 143.094 351.504 143.381 351.362 143.75C351.22 144.117 351.149 144.544 351.149 145.033ZM359.944 148.442C359.399 148.442 358.917 148.304 358.499 148.029C358.082 147.75 357.755 147.358 357.519 146.852C357.284 146.344 357.166 145.743 357.166 145.05C357.166 144.362 357.284 143.766 357.519 143.26C357.755 142.754 358.083 142.364 358.504 142.088C358.924 141.813 359.41 141.675 359.961 141.675C360.387 141.675 360.724 141.746 360.971 141.888C361.221 142.027 361.411 142.186 361.542 142.365C361.676 142.541 361.779 142.686 361.853 142.8H361.938V139.578H362.944V148.306H361.972V147.3H361.853C361.779 147.419 361.674 147.57 361.538 147.752C361.401 147.931 361.207 148.091 360.954 148.233C360.701 148.372 360.365 148.442 359.944 148.442ZM360.08 147.539C360.484 147.539 360.825 147.433 361.103 147.223C361.382 147.01 361.593 146.716 361.738 146.341C361.883 145.963 361.955 145.527 361.955 145.033C361.955 144.544 361.884 144.117 361.742 143.75C361.6 143.381 361.39 143.094 361.112 142.889C360.833 142.682 360.49 142.578 360.08 142.578C359.654 142.578 359.299 142.688 359.015 142.906C358.734 143.122 358.522 143.416 358.38 143.789C358.241 144.158 358.171 144.573 358.171 145.033C358.171 145.499 358.242 145.922 358.384 146.303C358.529 146.681 358.742 146.982 359.024 147.206C359.308 147.428 359.66 147.539 360.08 147.539ZM366.852 148.459C366.437 148.459 366.061 148.381 365.722 148.225C365.384 148.066 365.116 147.837 364.917 147.539C364.718 147.237 364.619 146.874 364.619 146.448C364.619 146.073 364.693 145.769 364.84 145.536C364.988 145.3 365.186 145.115 365.433 144.982C365.68 144.848 365.953 144.749 366.251 144.683C366.552 144.615 366.855 144.561 367.159 144.521C367.556 144.47 367.879 144.432 368.126 144.406C368.376 144.378 368.558 144.331 368.671 144.266C368.788 144.2 368.846 144.087 368.846 143.925V143.891C368.846 143.47 368.731 143.144 368.501 142.911C368.274 142.678 367.928 142.561 367.465 142.561C366.985 142.561 366.609 142.666 366.336 142.877C366.063 143.087 365.872 143.311 365.761 143.55L364.806 143.209C364.977 142.811 365.204 142.502 365.488 142.28C365.775 142.056 366.088 141.899 366.426 141.811C366.767 141.72 367.102 141.675 367.431 141.675C367.642 141.675 367.883 141.7 368.156 141.752C368.431 141.8 368.697 141.901 368.953 142.054C369.211 142.208 369.426 142.439 369.596 142.749C369.767 143.058 369.852 143.473 369.852 143.993V148.306H368.846V147.419H368.795C368.727 147.561 368.613 147.713 368.454 147.875C368.295 148.037 368.083 148.175 367.819 148.289C367.555 148.402 367.232 148.459 366.852 148.459ZM367.005 147.556C367.403 147.556 367.738 147.477 368.011 147.321C368.286 147.165 368.494 146.963 368.633 146.716C368.775 146.469 368.846 146.209 368.846 145.936V145.016C368.803 145.067 368.71 145.114 368.565 145.156C368.423 145.196 368.258 145.232 368.07 145.263C367.886 145.291 367.705 145.317 367.529 145.34C367.356 145.36 367.215 145.377 367.107 145.391C366.846 145.425 366.602 145.48 366.374 145.557C366.15 145.631 365.968 145.743 365.829 145.894C365.693 146.041 365.624 146.243 365.624 146.499C365.624 146.848 365.754 147.112 366.012 147.291C366.274 147.468 366.605 147.556 367.005 147.556ZM374.534 141.76V142.612H371.142V141.76H374.534ZM372.13 140.192H373.136V146.431C373.136 146.715 373.177 146.928 373.26 147.07C373.345 147.209 373.453 147.303 373.584 147.351C373.717 147.396 373.858 147.419 374.005 147.419C374.116 147.419 374.207 147.414 374.278 147.402C374.349 147.388 374.406 147.377 374.449 147.368L374.653 148.271C374.585 148.297 374.49 148.323 374.368 148.348C374.246 148.377 374.091 148.391 373.903 148.391C373.619 148.391 373.341 148.33 373.068 148.208C372.798 148.085 372.574 147.899 372.395 147.649C372.219 147.399 372.13 147.084 372.13 146.703V140.192ZM378.721 148.442C378.09 148.442 377.546 148.303 377.089 148.024C376.634 147.743 376.283 147.351 376.036 146.848C375.792 146.343 375.67 145.754 375.67 145.084C375.67 144.414 375.792 143.823 376.036 143.311C376.283 142.797 376.627 142.396 377.067 142.11C377.51 141.82 378.028 141.675 378.618 141.675C378.959 141.675 379.296 141.732 379.628 141.845C379.961 141.959 380.263 142.144 380.536 142.399C380.809 142.652 381.026 142.987 381.188 143.405C381.35 143.823 381.431 144.337 381.431 144.948V145.374H376.385V144.504H380.408C380.408 144.135 380.334 143.806 380.187 143.516C380.042 143.226 379.834 142.997 379.564 142.83C379.297 142.662 378.982 142.578 378.618 142.578C378.218 142.578 377.871 142.678 377.579 142.877C377.289 143.073 377.066 143.328 376.91 143.644C376.753 143.959 376.675 144.297 376.675 144.658V145.237C376.675 145.732 376.76 146.151 376.931 146.495C377.104 146.835 377.344 147.095 377.651 147.274C377.958 147.45 378.314 147.539 378.721 147.539C378.985 147.539 379.224 147.502 379.437 147.428C379.653 147.351 379.839 147.237 379.995 147.087C380.151 146.933 380.272 146.743 380.357 146.516L381.329 146.789C381.226 147.118 381.055 147.408 380.813 147.658C380.572 147.905 380.273 148.098 379.918 148.237C379.563 148.374 379.164 148.442 378.721 148.442Z" fill="white"/>
</g>
<path d="M114.315 453.703C111.7 453.573 110.931 449.881 111.905 447.451C112.879 445.021 114.805 442.859 114.831 440.241C114.854 437.969 113.412 435.905 113.273 433.637C113.024 429.546 116.977 426.211 117.145 422.115C117.276 418.923 115.061 415.882 115.598 412.733C116.174 409.353 119.7 407.134 120.508 403.802C121.369 400.254 118.908 396.502 119.851 392.976C120.79 389.463 124.93 386.884 124.341 383.295C124.146 382.108 123.431 381.07 123.11 379.911C122.369 377.234 123.829 374.441 125.601 372.301C127.372 370.161 129.542 368.262 130.636 365.709C132.317 361.785 131.149 357.01 133.135 353.231C134.788 350.085 138.467 347.968 138.93 344.445C140.796 347.616 138.972 351.653 139.396 355.308C139.673 357.691 140.907 359.84 141.666 362.116C143.214 366.759 142.695 372.049 140.274 376.302C138.674 379.113 136.209 381.764 136.334 384.996C136.486 388.908 140.401 391.745 141.092 395.599C142.081 401.113 136.208 406.071 137.021 411.614C137.231 413.044 137.884 414.389 138.007 415.829C138.425 420.728 132.866 424.19 132.021 429.034C131.399 432.599 133.459 436.283 132.608 439.8C131.951 442.511 129.61 444.94 130.185 447.67C130.434 448.854 131.211 449.849 131.681 450.964C132.58 453.093 132.24 455.737 130.699 457.46C129.158 459.182 126.446 459.796 124.382 458.758" fill="#FF725E"/>
<g opacity="0.5">
<path d="M131.68 450.964C131.21 449.85 130.433 448.854 130.184 447.67C129.609 444.94 131.95 442.511 132.607 439.8C133.459 436.283 131.398 432.599 132.02 429.034C132.865 424.19 138.423 420.728 138.006 415.829C137.883 414.389 137.23 413.044 137.02 411.614C136.207 406.071 142.08 401.113 141.091 395.599C140.4 391.745 136.485 388.908 136.333 384.996C136.207 381.764 138.673 379.113 140.273 376.302C142.694 372.049 143.213 366.759 141.665 362.116C140.906 359.84 139.672 357.691 139.395 355.308C138.97 351.654 140.795 347.616 138.929 344.445C138.466 347.968 134.787 350.086 133.134 353.231C131.148 357.01 132.316 361.785 130.635 365.709C129.541 368.262 127.371 370.162 125.6 372.302C123.829 374.442 122.368 377.235 123.11 379.912C123.431 381.071 124.146 382.109 124.341 383.296C124.931 386.885 120.791 389.463 119.851 392.977C118.908 396.503 121.369 400.256 120.508 403.803C119.7 407.135 116.174 409.354 115.598 412.734C115.062 415.883 117.277 418.924 117.145 422.116C116.977 426.211 113.024 429.546 113.273 433.638C113.411 435.905 114.854 437.97 114.831 440.242C114.804 442.86 112.878 445.022 111.905 447.452C110.931 449.882 111.7 453.574 114.315 453.705L124.381 458.759C126.445 459.798 129.157 459.183 130.698 457.461C132.239 455.738 132.579 453.093 131.68 450.964Z" fill="white"/>
</g>
<path d="M128.267 448.57C127.719 447.666 127.066 445.769 127.258 444.699C127.527 443.202 130.058 441.886 130.687 439.347C131.503 436.053 130.031 430.226 130.658 426.903C131.511 422.388 136.183 419.417 135.991 414.932C135.934 413.614 136.12 410.091 135.992 408.788C135.493 403.737 139.929 400.346 139.282 395.333C138.83 391.829 135.197 387.723 135.194 384.13C135.192 381.162 137.318 378.561 138.732 375.869C140.872 371.796 141.468 366.891 140.331 362.716C139.774 360.67 138.819 358.771 138.664 356.594C138.427 353.256 140.066 349.421 138.619 346.622C138.124 349.896 135.009 352.084 133.541 355.088C131.777 358.696 132.594 363.017 131.078 366.74C130.091 369.162 128.234 371.052 126.699 373.137C125.164 375.222 123.866 377.889 124.396 380.306C124.625 381.353 125.185 382.262 125.31 383.343C125.686 386.609 122.174 389.252 121.285 392.548C120.393 395.857 122.314 399.152 121.489 402.474C120.714 405.595 117.66 409.834 117.076 412.983C116.532 415.918 119.192 417.827 118.983 420.775C118.715 424.557 114.924 429.133 115.002 432.884C115.045 434.963 116.784 435.63 116.694 437.723C116.59 440.135 114.571 444.929 113.687 447.23C112.804 449.531 112.859 451.305 114.314 453.704L125.555 459.28C130.574 456.888 130.352 452.01 128.267 448.57Z" fill="#FF725E"/>
<path d="M135.823 363.714C135.831 363.714 135.837 363.799 135.842 363.963C135.844 364.153 135.846 364.394 135.849 364.693C135.844 365.335 135.843 366.284 135.734 367.503C135.617 368.715 135.415 370.227 134.72 371.843C134.059 373.492 132.661 374.971 131.336 376.667C130.687 377.526 130.05 378.475 129.734 379.601C129.39 380.71 129.242 381.934 129.326 383.199C129.447 385.737 130.229 388.379 130.599 391.262C130.772 392.699 130.831 394.227 130.454 395.734C130.283 396.49 129.952 397.212 129.574 397.903C129.169 398.575 128.697 399.191 128.389 399.876C127.748 401.256 127.998 402.879 128.322 404.438C128.483 405.228 128.662 406.032 128.757 406.864C128.862 407.698 128.81 408.555 128.693 409.394C128.422 411.077 127.788 412.629 127.145 414.115C126.502 415.604 125.839 417.051 125.408 418.538C124.969 420.026 124.857 421.535 125.018 423.028C125.145 424.516 125.378 426.011 125.175 427.486C124.974 428.965 124.345 430.274 123.756 431.499C123.162 432.726 122.587 433.917 122.34 435.147C121.865 437.629 122.569 440.011 122.518 442.213C122.489 444.445 121.749 446.334 121.226 447.971C120.676 449.609 120.237 451.035 120.128 452.241C120.012 453.443 120.182 454.386 120.411 454.979C120.639 455.57 120.814 455.864 120.79 455.876C120.79 455.876 120.586 455.602 120.326 455.011C120.065 454.42 119.861 453.455 119.953 452.226C120.037 450.994 120.458 449.541 120.986 447.894C121.489 446.248 122.194 444.369 122.199 442.213C122.2 441.136 122.049 440.009 121.926 438.822C121.809 437.638 121.718 436.369 121.973 435.075C122.459 432.47 124.367 430.239 124.763 427.433C124.951 426.037 124.724 424.575 124.589 423.067C124.418 421.558 124.532 419.944 124.983 418.418C125.845 415.356 127.71 412.567 128.248 409.326C128.359 408.522 128.41 407.714 128.31 406.916C128.219 406.116 128.045 405.325 127.883 404.529C127.562 402.968 127.277 401.23 127.987 399.696C128.327 398.948 128.813 398.323 129.201 397.679C129.559 397.024 129.873 396.348 130.038 395.631C130.4 394.204 130.353 392.727 130.188 391.314C129.838 388.481 129.063 385.817 128.954 383.219C128.876 381.925 129.036 380.651 129.404 379.497C129.745 378.322 130.418 377.339 131.084 376.476C132.448 374.764 133.827 373.338 134.491 371.744C135.191 370.178 135.419 368.688 135.561 367.488C135.697 366.281 135.726 365.334 135.76 364.694C135.775 364.395 135.787 364.154 135.797 363.965C135.806 363.797 135.815 363.713 135.823 363.714Z" fill="#263238"/>
<path d="M98.258 454.987C94.6 455.523 92.523 450.618 93.206 446.985C93.89 443.351 95.966 439.829 95.286 436.195C94.696 433.041 92.132 430.576 91.319 427.472C89.853 421.872 94.416 416.169 93.528 410.449C92.836 405.991 88.934 402.385 88.815 397.875C88.687 393.035 92.964 388.994 93.171 384.157C93.392 379.006 88.955 374.482 89.295 369.337C89.634 364.212 94.664 359.506 92.864 354.695C92.268 353.104 90.993 351.862 90.231 350.343C88.471 346.838 89.73 342.568 91.597 339.118C93.465 335.669 95.951 332.442 96.767 328.606C98.021 322.709 95.095 316.413 96.811 310.634C98.24 305.823 102.756 301.882 102.433 296.874C105.887 300.756 104.465 306.849 106.054 311.796C107.09 315.021 109.389 317.662 111.063 320.607C114.479 326.615 115.209 334.087 113.02 340.642C111.573 344.974 108.884 349.324 109.943 353.767C111.225 359.146 117.426 362.004 119.439 367.154C122.32 374.522 115.541 383.001 118.185 390.457C118.867 392.38 120.141 394.066 120.706 396.027C122.627 402.7 115.874 409.019 116.03 415.962C116.145 421.071 120.008 425.61 119.792 430.717C119.625 434.653 117.046 438.66 118.591 442.284C119.261 443.856 120.609 445.022 121.566 446.437C123.394 449.14 123.648 452.898 121.985 455.706C120.322 458.514 116.733 460.108 113.589 459.234" fill="#FF725E"/>
<g opacity="0.5">
<path d="M121.567 446.435C120.61 445.02 119.262 443.853 118.592 442.282C117.047 438.658 119.626 434.651 119.793 430.715C120.01 425.609 116.146 421.07 116.031 415.96C115.875 409.018 122.628 402.699 120.707 396.025C120.143 394.064 118.868 392.379 118.186 390.455C115.542 382.998 122.321 374.52 119.44 367.152C117.427 362.002 111.226 359.144 109.944 353.765C108.885 349.322 111.575 344.973 113.021 340.64C115.21 334.085 114.48 326.613 111.064 320.605C109.389 317.66 107.091 315.02 106.055 311.794C104.465 306.847 105.887 300.754 102.434 296.872C102.757 301.88 98.24 305.821 96.812 310.632C95.096 316.411 98.022 322.707 96.768 328.604C95.952 332.441 93.466 335.667 91.598 339.117C89.73 342.566 88.472 346.836 90.232 350.342C90.994 351.86 92.269 353.102 92.865 354.694C94.665 359.504 89.636 364.211 89.296 369.336C88.956 374.48 93.393 379.005 93.172 384.155C92.965 388.992 88.688 393.033 88.816 397.873C88.935 402.383 92.837 405.989 93.529 410.447C94.418 416.167 89.854 421.87 91.32 427.47C92.133 430.574 94.697 433.039 95.287 436.192C95.967 439.826 93.891 443.349 93.207 446.982C92.523 450.616 94.6 455.52 98.259 454.984L113.59 459.229C116.734 460.103 120.323 458.509 121.986 455.701C123.648 452.896 123.395 449.138 121.567 446.435Z" fill="white"/>
</g>
<path d="M116.182 444.053C115.176 442.951 113.75 440.502 113.724 438.967C113.687 436.819 116.833 434.303 117.009 430.612C117.238 425.825 113.601 418.155 113.561 413.379C113.506 406.89 119.165 401.494 117.671 395.334C117.232 393.524 116.524 388.591 115.989 386.821C113.914 379.96 119.131 374.047 116.862 367.278C115.277 362.548 109.118 357.853 108.13 352.877C107.314 348.766 109.548 344.579 110.769 340.463C112.618 334.234 112.101 327.274 109.382 321.802C108.049 319.12 106.207 316.75 105.396 313.777C104.153 309.218 105.373 303.454 102.603 299.973C102.814 304.644 99.098 308.53 97.886 313.093C96.43 318.575 98.746 324.338 97.665 329.911C96.962 333.536 94.905 336.664 93.35 339.973C91.795 343.282 90.726 347.333 92.123 350.536C92.728 351.923 93.752 353.03 94.221 354.493C95.636 358.915 91.495 363.539 91.166 368.348C90.836 373.176 94.4 377.216 94.168 382.045C93.95 386.58 90.878 393.29 90.933 397.813C90.984 402.028 95.191 403.945 95.708 408.086C96.372 413.399 92.374 420.778 93.509 425.953C94.138 428.822 96.73 429.269 97.178 432.194C97.694 435.565 96.21 442.759 95.616 446.189C95.022 449.619 95.586 452.062 98.258 454.987L115.359 459.633C121.656 454.946 120.012 448.248 116.182 444.053Z" fill="#FF725E"/>
<path d="M103.408 324.418C103.408 324.418 103.888 326.267 104.287 329.696C104.451 331.406 104.58 333.552 104.056 335.972C103.8 337.18 103.333 338.427 102.713 339.674C102.101 340.926 101.357 342.192 100.681 343.565C100.013 344.935 99.385 346.432 99.253 348.09C99.077 349.73 99.207 351.478 99.67 353.213C100.533 356.709 102.34 360.16 103.636 364.043C104.267 365.982 104.762 368.073 104.653 370.247C104.622 371.333 104.363 372.414 104.031 373.467C103.656 374.503 103.168 375.488 102.925 376.535C102.408 378.656 103.21 380.858 104.085 382.93C104.525 383.981 104.991 385.044 105.349 386.165C105.721 387.284 105.882 388.477 105.949 389.663C106.033 392.054 105.583 394.371 105.099 396.605C104.616 398.843 104.093 401.033 103.903 403.22C103.822 404.311 103.801 405.399 103.932 406.462C104.036 407.527 104.311 408.561 104.598 409.579C105.185 411.61 105.914 413.611 106.037 415.694C106.164 417.78 105.656 419.758 105.177 421.616C104.692 423.478 104.22 425.293 104.216 427.078C104.207 428.862 104.655 430.559 105.129 432.16C105.61 433.764 106.123 435.304 106.412 436.832C106.718 438.361 106.71 439.857 106.624 441.243C106.534 442.633 106.366 443.933 106.211 445.145C105.903 447.566 105.69 449.667 105.875 451.371C106.049 453.073 106.551 454.336 107.037 455.092C107.522 455.848 107.849 456.202 107.824 456.221C107.824 456.221 107.476 455.889 106.96 455.14C106.443 454.39 105.904 453.114 105.7 451.389C105.485 449.663 105.675 447.539 105.96 445.114C106.102 443.9 106.259 442.603 106.337 441.226C106.41 439.851 106.407 438.386 106.098 436.892C105.805 435.394 105.288 433.87 104.795 432.26C104.31 430.653 103.841 428.926 103.841 427.077C103.838 425.228 104.315 423.378 104.792 421.517C105.265 419.658 105.75 417.719 105.621 415.72C105.499 413.717 104.781 411.748 104.183 409.699C103.891 408.671 103.606 407.614 103.496 406.512C103.359 405.414 103.379 404.298 103.46 403.183C103.651 400.951 104.178 398.741 104.657 396.511C105.139 394.283 105.577 392 105.495 389.681C105.429 388.529 105.276 387.386 104.916 386.301C104.569 385.211 104.11 384.16 103.668 383.103C103.23 382.045 102.796 380.978 102.546 379.853C102.279 378.736 102.231 377.554 102.491 376.434C102.754 375.319 103.253 374.322 103.617 373.317C103.936 372.303 104.188 371.271 104.219 370.224C104.329 368.131 103.856 366.087 103.237 364.171C101.97 360.332 100.166 356.859 99.303 353.302C98.841 351.536 98.712 349.738 98.904 348.049C99.051 346.338 99.709 344.801 100.392 343.424C101.086 342.04 101.837 340.782 102.453 339.547C103.077 338.316 103.543 337.102 103.807 335.918C104.345 333.547 104.246 331.417 104.109 329.714C103.961 328.003 103.736 326.684 103.602 325.789C103.535 325.358 103.484 325.021 103.445 324.77C103.414 324.538 103.401 324.42 103.408 324.418Z" fill="#263238"/>
<path d="M95.968 457.395C93.882 458.423 91.691 455.889 91.398 453.582C91.105 451.275 91.667 448.766 90.557 446.722C89.594 444.949 87.583 443.969 86.497 442.268C84.537 439.2 86.166 434.904 84.528 431.653C83.252 429.119 80.22 427.714 79.277 425.038C78.265 422.166 80.044 418.921 79.233 415.986C78.369 412.861 74.839 411.01 74.049 407.866C73.261 404.733 75.362 400.944 73.355 398.413C72.691 397.576 71.688 397.079 70.938 396.317C69.207 394.559 69.135 391.76 69.586 389.335C70.037 386.909 70.901 384.498 70.648 382.044C70.259 378.272 67.291 375.07 67.201 371.279C67.126 368.124 69.068 364.892 67.906 361.957C70.723 363.613 71.05 367.535 72.958 370.188C74.202 371.918 76.088 373.054 77.659 374.493C80.865 377.428 82.746 381.759 82.703 386.106C82.675 388.978 81.905 392.101 83.398 394.556C85.205 397.527 89.469 398.039 91.669 400.732C94.817 404.585 92.399 410.97 95.423 414.921C96.203 415.94 97.291 416.703 98.008 417.767C100.447 421.39 97.627 426.477 99.062 430.602C100.118 433.638 103.308 435.608 104.165 438.705C104.826 441.093 104.057 443.989 105.682 445.86C106.387 446.671 107.419 447.109 108.266 447.771C109.883 449.035 110.76 451.235 110.308 453.237C109.856 455.239 108.015 456.887 105.965 456.972" fill="#FF725E"/>
<g opacity="0.5">
<path d="M108.265 447.772C107.419 447.11 106.386 446.672 105.681 445.861C104.056 443.99 104.825 441.094 104.164 438.706C103.307 435.608 100.117 433.638 99.061 430.603C97.626 426.478 100.446 421.391 98.007 417.768C97.29 416.703 96.202 415.941 95.422 414.922C92.398 410.97 94.817 404.586 91.668 400.733C89.468 398.04 85.204 397.528 83.397 394.556C81.904 392.102 82.674 388.979 82.702 386.106C82.745 381.76 80.864 377.429 77.658 374.493C76.087 373.054 74.201 371.918 72.957 370.188C71.049 367.535 70.723 363.613 67.905 361.957C69.066 364.892 67.125 368.124 67.2 371.279C67.29 375.07 70.258 378.272 70.647 382.044C70.9 384.498 70.036 386.91 69.585 389.335C69.134 391.76 69.206 394.559 70.937 396.317C71.687 397.078 72.69 397.575 73.354 398.413C75.361 400.944 73.261 404.733 74.048 407.866C74.838 411.011 78.369 412.861 79.232 415.986C80.043 418.921 78.264 422.166 79.276 425.038C80.219 427.714 83.251 429.118 84.527 431.653C86.164 434.905 84.536 439.2 86.496 442.268C87.582 443.968 89.593 444.948 90.556 446.722C91.665 448.766 91.104 451.275 91.397 453.582C91.69 455.889 93.881 458.423 95.967 457.395L105.963 456.972C108.014 456.887 109.854 455.24 110.306 453.237C110.76 451.236 109.882 449.036 108.265 447.772Z" fill="white"/>
</g>
<path d="M104.582 447.387C103.767 446.922 102.44 445.732 102.128 444.818C101.69 443.54 103.087 441.425 102.479 439.183C101.691 436.273 98.032 432.386 97.084 429.536C95.797 425.663 98.141 421.339 96.056 417.942C95.443 416.943 94.066 414.128 93.404 413.172C90.836 409.467 92.815 404.919 90.149 401.307C88.286 398.782 83.693 397.163 82.14 394.376C80.857 392.073 81.385 389.136 81.32 386.436C81.222 382.35 79.568 378.285 76.883 375.536C75.567 374.188 74.006 373.126 72.946 371.503C71.321 369.015 70.937 365.33 68.606 363.782C69.635 366.537 68.162 369.58 68.319 372.546C68.507 376.109 71.007 379.11 71.437 382.654C71.717 384.96 71.091 387.229 70.799 389.51C70.508 391.791 70.651 394.422 72.106 396.069C72.736 396.783 73.563 397.247 74.126 398.032C75.828 400.405 74.243 403.972 74.976 406.915C75.712 409.868 78.626 411.597 79.42 414.532C80.166 417.289 79.625 421.898 80.532 424.595C81.377 427.108 84.265 427.442 85.376 429.82C86.8 432.871 85.834 438.06 87.514 440.938C88.445 442.533 90.083 442.3 90.916 443.964C91.876 445.882 92.379 450.475 92.686 452.642C92.994 454.809 93.803 456.163 95.967 457.397L107.1 456.872C109.964 452.849 107.685 449.157 104.582 447.387Z" fill="#FF725E"/>
<path d="M73.813 378.255C73.82 378.251 73.862 378.314 73.937 378.439C74.023 378.589 74.129 378.774 74.26 379.002C74.535 379.502 74.945 380.238 75.388 381.231C75.822 382.222 76.32 383.484 76.48 385.04C76.68 386.609 76.234 388.363 75.939 390.25C75.807 391.197 75.723 392.206 75.964 393.213C76.176 394.219 76.589 395.231 77.199 396.175C78.388 398.09 80.136 399.802 81.669 401.881C82.425 402.923 83.132 404.086 83.491 405.422C83.685 406.085 83.74 406.79 83.745 407.492C83.721 408.191 83.62 408.871 83.677 409.532C83.775 410.87 84.664 412.018 85.589 413.088C86.055 413.631 86.541 414.179 86.976 414.786C87.419 415.39 87.75 416.08 88.022 416.783C88.539 418.21 88.718 419.691 88.86 421.123C89.003 422.557 89.113 423.965 89.42 425.303C89.721 426.645 90.283 427.86 91.052 428.948C91.792 430.048 92.619 431.109 93.101 432.346C93.585 433.585 93.661 434.875 93.733 436.08C93.801 437.289 93.868 438.46 94.206 439.518C94.905 441.643 96.478 443.189 97.391 444.924C98.333 446.674 98.573 448.461 98.872 449.957C99.151 451.466 99.425 452.762 99.858 453.744C100.285 454.726 100.822 455.385 101.254 455.747C101.685 456.109 101.946 456.262 101.932 456.284C101.932 456.284 101.653 456.163 101.195 455.817C100.736 455.471 100.159 454.811 99.697 453.816C99.229 452.822 98.926 451.512 98.623 450.006C98.302 448.512 98.037 446.75 97.11 445.078C96.213 443.399 94.613 441.873 93.848 439.632C93.098 437.393 93.615 434.837 92.713 432.498C92.258 431.337 91.451 430.302 90.694 429.189C89.909 428.091 89.298 426.784 88.989 425.402C88.335 422.648 88.579 419.678 87.598 416.938C87.338 416.267 87.03 415.621 86.609 415.047C86.194 414.467 85.718 413.928 85.249 413.38C84.326 412.306 83.349 411.076 83.237 409.569C83.178 408.838 83.286 408.142 83.309 407.476C83.304 406.815 83.257 406.158 83.075 405.532C82.741 404.272 82.069 403.148 81.332 402.124C79.84 400.078 78.088 398.343 76.88 396.37C76.261 395.397 75.833 394.336 75.622 393.279C75.379 392.217 75.478 391.161 75.623 390.202C75.945 388.282 76.4 386.583 76.228 385.062C76.097 383.546 75.632 382.292 75.226 381.299C74.812 380.303 74.427 379.555 74.179 379.043C74.064 378.807 73.971 378.615 73.895 378.46C73.835 378.329 73.806 378.259 73.813 378.255Z" fill="#263238"/>
<path d="M141.459 436.832H74.735V448.658H141.459V436.832Z" fill="#455A64"/>
<path d="M79.718 446.312L87.832 481.652H127.599L136.476 446.312H79.718Z" fill="#455A64"/>
<path d="M141.422 448.673C141.422 448.803 126.372 448.908 107.81 448.908C89.242 448.908 74.195 448.803 74.195 448.673C74.195 448.544 89.242 448.439 107.81 448.439C126.372 448.438 141.422 448.543 141.422 448.673Z" fill="#263238"/>
<path d="M443.868 378.467C443.868 378.467 421.294 388.77 399.335 388.77C378.998 388.77 356.251 378.533 356.251 378.533L443.868 378.467Z" fill="#E0E0E0"/>
<path d="M397.036 470.669H405.745V379.448H397.036V470.669Z" fill="#E0E0E0"/>
<path d="M362.346 472.24H439.642V466.892H362.346V472.24Z" fill="#E0E0E0"/>
<path d="M430.58 474.544C430.58 477.802 433.221 480.443 436.479 480.443C439.737 480.443 442.378 477.802 442.378 474.544C442.378 471.286 439.737 468.645 436.479 468.645C433.221 468.646 430.58 471.286 430.58 474.544Z" fill="#263238"/>
<path d="M396.234 474.544C396.234 477.802 398.875 480.443 402.133 480.443C405.391 480.443 408.032 477.802 408.032 474.544C408.032 471.286 405.391 468.645 402.133 468.645C398.875 468.645 396.234 471.286 396.234 474.544Z" fill="#263238"/>
<path d="M356.448 474.544C356.448 477.802 359.089 480.443 362.347 480.443C365.605 480.443 368.246 477.802 368.246 474.544C368.246 471.286 365.605 468.645 362.347 468.645C359.089 468.646 356.448 471.286 356.448 474.544Z" fill="#263238"/>
<path d="M399.334 417.182H411.18V412.28H399.334V417.182Z" fill="#E0E0E0"/>
<path d="M409.024 420.613H413.338V408.848H409.024V420.613Z" fill="#E0E0E0"/>
<path d="M352.365 378.467H451.011C454.627 378.467 457.558 375.536 457.558 371.92C457.558 368.304 454.627 365.373 451.011 365.373H352.365C348.749 365.373 345.818 368.304 345.818 371.92C345.818 375.536 348.749 378.467 352.365 378.467Z" fill="#455A64"/>
<path d="M443.237 206.066C443.237 206.066 451.176 202.97 450.852 196.199C450.528 189.428 441.402 182.732 441.944 172.566C442.452 163.033 428.791 134.704 409.28 144.581C409.28 144.581 404.052 143.81 399.475 145.119C393.188 146.917 391.225 152.937 387.502 158.905C381.765 168.101 377.862 175.345 380.628 181.757C383.394 188.169 384.562 190.049 382.412 195.521C379.605 202.663 376.743 200.592 377.679 206.826L394.698 207.102L396.307 202.945L396.492 207.442L406.497 207.306L443.237 206.066Z" fill="#263238"/>
<path d="M394.715 154.585C394.922 157.211 393.199 159.567 391.461 161.546C389.723 163.525 387.789 165.589 387.424 168.198C386.778 172.822 391.323 177.088 390.413 181.667C389.925 184.121 387.928 186.101 387.583 188.579C387.249 190.976 388.545 193.314 390.145 195.129C391.745 196.944 393.692 198.455 395.109 200.416C395.109 200.416 398.063 205.208 407.068 202.085" fill="#263238"/>
<path d="M402.445 151.235L424.88 155.988C427.05 156.133 428.749 157.914 428.79 160.089L428.52 208.641C428.502 211.958 427.39 215.176 425.358 217.797L423.218 220.557C418.34 226.849 408.458 226.215 404.732 219.18C404.472 218.688 404.292 218.258 404.216 217.909C404.14 217.472 404.025 217.184 404.005 216.813L403.578 212.08C403.359 207.757 403.329 203.365 403.328 203.405C403.328 203.405 394.147 202.244 391.794 190.415C390.624 184.532 390.545 174.815 390.737 166.863C390.91 159.703 395.301 150.759 402.445 151.235Z" fill="#FFBE9D"/>
<path d="M394.15 175.973C394.153 176.78 394.839 177.444 395.682 177.456C396.523 177.468 397.205 176.826 397.202 176.019C397.199 175.212 396.513 174.548 395.672 174.535C394.829 174.522 394.147 175.166 394.15 175.973Z" fill="#263238"/>
<path d="M393.039 171.829C393.236 172.021 394.359 171.12 396.002 171.06C397.642 170.977 398.88 171.775 399.051 171.567C399.135 171.475 398.928 171.123 398.389 170.761C397.857 170.401 396.961 170.065 395.939 170.109C394.916 170.154 394.07 170.565 393.59 170.969C393.099 171.376 392.942 171.743 393.039 171.829Z" fill="#263238"/>
<path d="M408.873 175.604C408.875 176.411 409.562 177.074 410.405 177.087C411.246 177.099 411.928 176.457 411.925 175.65C411.922 174.843 411.236 174.178 410.395 174.166C409.552 174.153 408.87 174.797 408.873 175.604Z" fill="#263238"/>
<path d="M408.637 171.428C408.835 171.62 409.959 170.719 411.601 170.66C413.241 170.577 414.479 171.375 414.65 171.167C414.734 171.074 414.529 170.723 413.987 170.361C413.455 170 412.56 169.664 411.537 169.708C410.514 169.754 409.668 170.164 409.188 170.568C408.699 170.976 408.541 171.343 408.637 171.428Z" fill="#263238"/>
<path d="M403.708 183.921C403.712 183.828 402.684 183.691 401.022 183.543C400.601 183.516 400.2 183.448 400.119 183.165C400.008 182.865 400.166 182.407 400.351 181.911C400.706 180.881 401.077 179.801 401.468 178.669C403.014 174.055 404.116 170.267 403.929 170.207C403.743 170.146 402.338 173.837 400.792 178.451C400.421 179.588 400.066 180.673 399.728 181.71C399.587 182.193 399.336 182.744 399.574 183.365C399.699 183.674 400.016 183.889 400.288 183.952C400.56 184.024 400.796 184.019 401.004 184.023C402.672 184.048 403.706 184.015 403.708 183.921Z" fill="#263238"/>
<path d="M403.328 203.404C403.328 203.404 411.355 203.609 419.103 198.533C419.103 198.533 415.415 206.928 403.459 206.277L403.328 203.404Z" fill="#EB996E"/>
<path d="M404.557 187.853C405.117 187.049 406.136 186.58 407.168 186.651C407.884 186.7 408.618 187.016 409.073 187.58C409.529 188.143 409.651 188.964 409.279 189.533C408.86 190.174 407.939 190.353 407.147 190.161C406.354 189.968 405.66 189.479 404.999 188.99C404.816 188.855 404.629 188.713 404.511 188.522C404.393 188.332 404.359 188.077 404.49 187.911" fill="#EB996E"/>
<path d="M408.587 184.87C408.319 184.865 408.385 186.648 406.908 187.973C405.434 189.302 403.526 189.175 403.522 189.425C403.501 189.538 403.959 189.755 404.762 189.746C405.55 189.743 406.689 189.445 407.593 188.635C408.494 187.823 408.854 186.772 408.887 186.038C408.924 185.289 408.708 184.855 408.587 184.87Z" fill="#263238"/>
<path d="M408.729 166.553C408.908 166.993 410.54 166.718 412.476 166.875C414.416 166.994 415.992 167.497 416.232 167.087C416.339 166.891 416.051 166.481 415.406 166.073C414.766 165.665 413.757 165.294 412.595 165.21C411.433 165.128 410.381 165.353 409.69 165.666C408.994 165.979 408.651 166.343 408.729 166.553Z" fill="#263238"/>
<path d="M393.236 164.627C393.539 164.988 394.656 164.557 396.016 164.486C397.373 164.368 398.539 164.639 398.789 164.239C398.898 164.045 398.702 163.678 398.185 163.345C397.675 163.012 396.834 162.757 395.9 162.821C394.966 162.887 394.169 163.257 393.711 163.657C393.245 164.059 393.102 164.45 393.236 164.627Z" fill="#263238"/>
<path d="M434.799 155.969C433.135 151.081 426.441 145.722 420.134 143.305C416.54 141.928 412.492 142.458 409.281 144.581L401.272 149.877C402.046 153.78 405.138 157.13 408.967 158.213C411.012 158.791 413.462 158.913 414.705 160.636C415.975 162.396 415.305 165.009 416.49 166.827C418.133 169.346 422.481 169.139 423.731 171.874C424.277 173.069 424.033 174.515 424.6 175.7C425.356 177.279 429.43 179.219 431.088 178.657C432.746 178.095 432.694 175.254 433.21 173.754C434.091 171.192 433.681 169.881 433.346 168.466C432.551 165.116 435.909 159.229 434.799 155.969Z" fill="#263238"/>
<path d="M426.192 180.161C426.16 179.275 427.103 177.145 427.973 176.974C430.296 176.519 434.517 176.543 434.787 182.478C435.155 190.591 426.934 189.288 426.909 189.056C426.89 188.875 426.304 183.222 426.192 180.161Z" fill="#FFBE9D"/>
<path d="M429.248 185.87C429.282 185.843 429.394 185.962 429.637 186.061C429.875 186.157 430.279 186.213 430.695 186.035C431.538 185.682 432.198 184.288 432.171 182.824C432.158 182.084 431.972 181.389 431.684 180.818C431.409 180.236 431.007 179.839 430.572 179.782C430.138 179.702 429.845 179.974 429.755 180.207C429.657 180.439 429.716 180.599 429.673 180.614C429.652 180.636 429.493 180.486 429.543 180.149C429.57 179.986 429.656 179.79 429.839 179.626C430.027 179.459 430.309 179.365 430.611 179.384C431.239 179.399 431.828 179.949 432.144 180.575C432.495 181.202 432.722 181.984 432.737 182.814C432.759 184.451 431.992 186.019 430.834 186.411C430.27 186.585 429.786 186.435 429.532 186.255C429.272 186.066 429.221 185.886 429.248 185.87Z" fill="#EB996E"/>
<path d="M373.669 241.393L359.322 278.822L332.322 280.537L328.145 292.273L363.789 299.183C363.789 299.183 374.509 302.298 380.621 288.695L391.068 251.464L373.669 241.393Z" fill="#FFBE9D"/>
<path d="M306.688 286.386C307.013 287.03 307.688 287.45 308.407 287.387C308.55 287.374 308.7 287.346 308.854 287.297C309.875 286.969 309.779 284.89 309.779 284.89L314.672 284.091C314.672 284.091 321.035 288.194 323.298 290.913C325.561 293.632 331.336 291.43 331.336 291.43L333.338 281.002L324.332 272.858C324.332 272.858 324.885 273.343 324.264 271.82C323.643 270.297 320.813 270.873 320.813 270.873C320.373 270.12 318.524 269.85 318.524 269.85L310.625 270.76C308.997 270.948 307.542 271.862 306.667 273.247L303.327 278.535C303.327 278.535 301.563 282.342 301.847 283.227C302.275 284.562 303.688 284.265 303.688 284.265C303.688 284.265 304.076 286.768 304.734 286.855C305.39 286.943 306.688 286.386 306.688 286.386Z" fill="#FFBE9D"/>
<path d="M321.57 289.23C321.559 289.242 321.398 289.118 321.101 288.872C320.763 288.6 320.324 288.248 319.778 287.81C318.611 286.908 316.877 285.624 314.586 284.234L314.698 284.256C313.239 284.504 311.593 284.785 309.811 285.088L309.979 284.881C309.99 285.28 309.967 285.671 309.888 286.076C309.806 286.474 309.679 286.903 309.333 287.252C309.153 287.422 308.896 287.523 308.684 287.55C308.466 287.606 308.23 287.627 307.996 287.591C307.529 287.524 307.091 287.279 306.779 286.917C306.699 286.828 306.63 286.729 306.566 286.628L306.521 286.55L306.499 286.51L306.488 286.49L306.487 286.487C306.424 286.463 307.033 286.686 306.774 286.592L306.769 286.594L306.759 286.598L306.604 286.661C306.398 286.743 306.188 286.817 305.972 286.885C305.756 286.952 305.535 287.011 305.302 287.052C305.185 287.072 305.066 287.089 304.939 287.092C304.82 287.097 304.676 287.101 304.486 287.005C304.21 286.808 304.112 286.577 304.007 286.358C303.909 286.136 303.829 285.912 303.764 285.686C303.629 285.232 303.531 284.776 303.45 284.302L303.736 284.5C303.102 284.612 302.354 284.459 301.913 283.879C301.715 283.609 301.553 283.276 301.577 282.894C301.593 282.552 301.67 282.251 301.75 281.948C302.092 280.748 302.576 279.597 303.099 278.43L303.105 278.416L303.114 278.401C303.682 277.501 304.285 276.546 304.895 275.58C305.274 274.98 305.651 274.384 306.025 273.792C306.401 273.219 306.737 272.576 307.264 272.061C307.772 271.548 308.381 271.147 309.037 270.883C309.689 270.602 310.413 270.532 311.052 270.464C313.669 270.17 316.165 269.889 318.498 269.627L318.53 269.623L318.556 269.627C319.014 269.705 319.441 269.812 319.862 269.971C320.271 270.136 320.706 270.322 320.996 270.764L320.722 270.678C321.558 270.335 322.527 270.331 323.259 270.82C323.995 271.304 324.334 272.086 324.514 272.82L324.454 272.717C327.04 275.043 329.151 276.941 330.66 278.298C331.356 278.939 331.912 279.452 332.332 279.838C332.711 280.195 332.904 280.389 332.892 280.403C332.88 280.417 332.663 280.25 332.261 279.919C331.825 279.551 331.246 279.063 330.523 278.453C328.987 277.126 326.839 275.27 324.207 272.996L324.164 272.959L324.147 272.892C323.981 272.244 323.647 271.531 323.04 271.155C322.45 270.757 321.601 270.77 320.901 271.062L320.728 271.134L320.627 270.976C320.458 270.713 320.083 270.515 319.707 270.377C319.326 270.236 318.905 270.134 318.49 270.067L318.548 270.068C316.216 270.343 313.722 270.638 311.106 270.946C310.439 271.02 309.816 271.081 309.221 271.338C308.628 271.579 308.077 271.943 307.619 272.408C307.153 272.858 306.836 273.462 306.449 274.057C306.076 274.648 305.699 275.245 305.32 275.845C304.709 276.811 304.106 277.766 303.537 278.665L303.552 278.637C303.038 279.778 302.553 280.932 302.224 282.074C302.146 282.357 302.076 282.649 302.065 282.908C302.038 283.132 302.153 283.375 302.298 283.578C302.582 283.979 303.154 284.106 303.636 284.027L303.882 283.987L303.922 284.225C303.996 284.672 304.091 285.124 304.215 285.549C304.333 285.952 304.51 286.442 304.726 286.606C304.737 286.612 304.821 286.638 304.925 286.628C305.02 286.627 305.123 286.613 305.224 286.597C305.428 286.563 305.634 286.509 305.837 286.448C306.04 286.386 306.241 286.317 306.438 286.24L306.584 286.182L306.592 286.179L306.596 286.177C306.338 286.083 306.949 286.304 306.887 286.282L306.888 286.284L306.897 286.3L306.914 286.331L306.948 286.393C306.998 286.473 307.051 286.552 307.114 286.622C307.358 286.91 307.7 287.102 308.057 287.157C308.236 287.187 308.415 287.171 308.595 287.126C308.79 287.099 308.92 287.044 309.042 286.939C309.508 286.454 309.574 285.587 309.577 284.896L309.578 284.715L309.745 284.689C311.531 284.41 313.181 284.152 314.643 283.924L314.706 283.914L314.756 283.945C317.047 285.387 318.752 286.714 319.891 287.665C320.457 288.144 320.883 288.529 321.162 288.798C321.441 289.073 321.581 289.219 321.57 289.23Z" fill="#EB996E"/>
<path d="M319.473 273.655C319.49 273.71 318.553 274.072 316.938 274.412C315.327 274.754 313.022 275.03 310.423 274.885L310.684 274.708C310.551 275.097 310.409 275.507 310.242 275.915C309.159 278.625 307.552 280.77 306.231 282.126C305.57 282.808 304.984 283.306 304.567 283.632C304.144 283.951 303.896 284.107 303.874 284.08C303.819 284.013 304.726 283.277 305.96 281.876C307.189 280.48 308.704 278.359 309.759 275.72C309.921 275.323 310.061 274.924 310.193 274.546L310.259 274.357L310.454 274.369C313.003 274.527 315.27 274.319 316.878 274.071C318.487 273.826 319.453 273.583 319.473 273.655Z" fill="#EB996E"/>
<path d="M311.976 278.259C312.103 278.284 311.587 280.463 310.023 282.689C308.475 284.928 306.61 286.166 306.543 286.055C306.441 285.933 308.104 284.553 309.596 282.391C311.107 280.243 311.826 278.206 311.976 278.259Z" fill="#EB996E"/>
<path d="M332.894 288.256C332.9 288.27 332.814 288.319 332.643 288.402C332.473 288.487 332.211 288.592 331.862 288.703C331.168 288.92 330.102 289.153 328.752 289.061C327.416 288.97 325.774 288.539 324.274 287.44C322.785 286.361 321.45 284.634 320.892 282.471L321.181 282.656C319.418 282.995 317.463 283.118 315.465 282.926C314.749 282.857 314.044 282.751 313.358 282.61C312.681 282.465 311.977 282.325 311.343 281.948C311.047 281.775 310.699 281.489 310.583 281.086C310.458 280.696 310.525 280.279 310.712 279.944C310.902 279.607 311.23 279.353 311.598 279.256C311.905 279.179 312.209 279.104 312.51 279.029C314.91 278.448 317.096 278.032 318.939 277.743C320.783 277.454 322.283 277.284 323.322 277.192C324.361 277.101 324.938 277.082 324.941 277.116C324.945 277.154 324.375 277.241 323.346 277.394C322.317 277.547 320.829 277.773 319.001 278.107C317.173 278.442 315.006 278.893 312.626 279.496C312.329 279.573 312.03 279.651 311.726 279.73C311.483 279.798 311.273 279.963 311.146 280.19C311.022 280.417 310.983 280.695 311.064 280.935C311.136 281.178 311.335 281.35 311.607 281.514C312.133 281.827 312.792 281.967 313.462 282.106C314.131 282.241 314.818 282.344 315.516 282.411C317.463 282.598 319.368 282.485 321.09 282.168L321.322 282.125L321.379 282.353C321.889 284.391 323.132 286.048 324.531 287.099C325.937 288.167 327.492 288.619 328.779 288.75C330.078 288.881 331.123 288.705 331.817 288.543C332.514 288.37 332.88 288.221 332.894 288.256Z" fill="#EB996E"/>
<path d="M323.621 422.122C323.589 422.12 323.558 421.8 323.648 421.228C323.742 420.661 323.975 419.832 324.551 418.954C324.699 418.739 324.847 418.508 325.09 418.297C325.32 418.088 325.718 417.927 326.102 418.069C326.292 418.131 326.483 418.305 326.549 418.518C326.621 418.735 326.584 418.95 326.528 419.125C326.402 419.485 326.215 419.742 326.057 420.038C325.706 420.628 325.417 421.216 324.969 421.881C324.742 422.221 324.233 422.502 323.769 422.421C323.311 422.363 322.942 422.142 322.609 421.907C321.963 421.438 321.394 420.905 320.905 420.337C320.661 420.053 320.437 419.76 320.234 419.462C320.042 419.168 319.815 418.868 319.729 418.458C319.642 418.062 319.792 417.543 320.241 417.363C320.696 417.199 321.067 417.427 321.321 417.607C321.835 418.034 322.145 418.473 322.459 418.897C323.057 419.744 323.388 420.521 323.575 421.062C323.758 421.608 323.801 421.923 323.77 421.933C323.678 421.971 323.371 420.713 322.156 419.122C321.854 418.745 321.48 418.286 321.062 417.967C320.848 417.815 320.582 417.717 320.421 417.798C320.251 417.859 320.156 418.115 320.212 418.361C320.265 418.616 320.457 418.888 320.654 419.172C320.851 419.451 321.067 419.727 321.301 419.994C321.77 420.528 322.314 421.032 322.922 421.474C323.215 421.685 323.534 421.858 323.831 421.894C324.129 421.931 324.363 421.813 324.559 421.558C324.932 421.016 325.289 420.347 325.633 419.79C325.798 419.5 325.997 419.218 326.084 418.976C326.174 418.721 326.124 418.556 325.947 418.484C325.538 418.315 325.14 418.777 324.863 419.17C323.71 420.8 323.725 422.155 323.621 422.122Z" fill="#263238"/>
<path d="M346.798 422.915L358.306 447.856L376.876 439.277L364.973 408.409L346.798 422.915Z" fill="#FFBE9D"/>
<path d="M356.131 446.191L362.855 459.013C362.855 459.013 345.644 476.809 347.26 480.787L387.719 461.388L376.604 435.67L356.131 446.191Z" fill="#455A64"/>
<path d="M374.525 451.262C375.411 451.101 376.374 451.722 376.572 452.6C376.77 453.478 376.146 454.463 375.264 454.64C374.381 454.817 373.202 454.107 373.104 453.212C373.006 452.317 373.801 451.201 374.7 451.241" fill="#E0E0E0"/>
<g opacity="0.6">
<path d="M387.72 461.388L386.037 458.163L347.875 477.968C347.875 477.968 346.449 479.615 347.261 480.787L387.72 461.388Z" fill="white"/>
</g>
<path d="M362.1 459.121C362.201 459.316 363.232 458.931 364.509 459.101C365.79 459.237 366.702 459.852 366.846 459.687C367.01 459.561 366.149 458.522 364.6 458.344C363.052 458.152 361.97 458.961 362.1 459.121Z" fill="#263238"/>
<path d="M358.698 462.911C358.745 463.124 359.761 463.05 360.833 463.564C361.92 464.046 362.522 464.869 362.715 464.766C362.916 464.708 362.498 463.485 361.153 462.872C359.814 462.246 358.612 462.721 358.698 462.911Z" fill="#263238"/>
<path d="M358.723 469.146C358.923 469.102 358.724 467.983 357.698 467.144C356.677 466.298 355.541 466.318 355.537 466.522C355.503 466.738 356.381 467.031 357.213 467.732C358.062 468.414 358.517 469.22 358.723 469.146Z" fill="#263238"/>
<path d="M360.17 454.182C360.339 454.322 361.115 453.615 362.268 453.156C363.412 452.673 364.46 452.631 364.482 452.412C364.528 452.215 363.329 451.89 361.978 452.45C360.624 453 359.999 454.074 360.17 454.182Z" fill="#263238"/>
<path d="M352.34 442.863L322.006 366.947C322.006 366.947 322.688 353.994 325.074 349.904C327.46 345.814 399.722 321.953 399.722 321.953C399.722 321.953 418.128 317.522 430.399 321.953C442.67 326.384 455.524 330.841 454.147 339.422C452.135 351.957 441.273 365.026 441.273 365.026L388.133 366.606L359.169 377.173L378.674 433.074L352.34 442.863Z" fill="#263238"/>
<path d="M325.36 390.987L324.675 418.446L345.126 418.946L348.072 385.994L325.36 390.987Z" fill="#FFBE9D"/>
<path d="M323.459 415.993L323.832 430.466C323.832 430.466 300.533 438.836 300.227 443.119L345.094 443.574L346.474 415.591L323.459 415.993Z" fill="#455A64"/>
<path d="M337.725 428.662C338.591 428.908 339.181 429.891 338.971 430.766C338.76 431.641 337.767 432.25 336.897 432.019C336.027 431.788 335.282 430.631 335.589 429.784C335.896 428.938 337.102 428.287 337.891 428.72" fill="#E0E0E0"/>
<g opacity="0.6">
<path d="M345.094 443.573L345.007 439.936L302.021 440.86C302.021 440.86 300.015 441.709 300.226 443.118L345.094 443.573Z" fill="white"/>
</g>
<path d="M323.107 430.23C323.112 430.449 324.206 430.56 325.277 431.275C326.367 431.962 326.913 432.917 327.115 432.832C327.317 432.791 327.004 431.478 325.692 430.635C324.389 429.78 323.061 430.028 323.107 430.23Z" fill="#263238"/>
<path d="M318.381 432.129C318.329 432.341 319.274 432.723 320.009 433.657C320.771 434.57 320.949 435.574 321.167 435.566C321.373 435.603 321.537 434.321 320.601 433.177C319.676 432.024 318.388 431.92 318.381 432.129Z" fill="#263238"/>
<path d="M315.651 437.734C315.85 437.783 316.166 436.691 315.615 435.486C315.073 434.276 314.045 433.792 313.95 433.974C313.824 434.153 314.483 434.803 314.92 435.8C315.38 436.785 315.434 437.71 315.651 437.734Z" fill="#263238"/>
<path d="M323.555 424.946C323.645 425.147 324.653 424.855 325.891 424.951C327.131 425.023 328.09 425.448 328.206 425.261C328.334 425.104 327.402 424.283 325.943 424.19C324.485 424.086 323.45 424.773 323.555 424.946Z" fill="#263238"/>
<path d="M337.301 314.751C337.301 314.751 325.049 313.772 323.685 327.065C322.322 340.359 320.983 402.396 320.983 402.396L349.615 404.782L354.046 341.382L399.721 321.953C399.721 321.953 345.482 313.047 337.301 314.751Z" fill="#263238"/>
<path d="M387.803 296.812C387.803 296.812 380.367 317.66 381.783 319.984C383.199 322.308 402.321 331.868 402.321 331.868L450.169 350.244C450.169 350.244 455.083 342.427 455.083 330.419C455.083 318.411 438.44 296.811 438.44 296.811H387.803V296.812Z" fill="#263238"/>
<path d="M401.986 320.89C401.989 320.897 401.913 320.938 401.761 321.011C401.586 321.092 401.362 321.196 401.081 321.325C400.45 321.606 399.565 321.999 398.431 322.504C396.082 323.527 392.708 324.997 388.485 326.837C379.951 330.511 367.989 335.66 354.147 341.619L354.302 341.401C353.868 347.663 353.398 354.427 352.913 361.425C351.749 377.783 350.676 392.865 349.827 404.798L349.812 405.014L349.597 404.995C340.889 404.231 333.742 403.603 328.738 403.164C326.278 402.934 324.345 402.754 322.995 402.628C322.359 402.562 321.862 402.51 321.494 402.472C321.156 402.433 320.982 402.408 320.983 402.397C320.984 402.386 321.159 402.39 321.499 402.408C321.868 402.431 322.367 402.463 323.005 402.503C324.358 402.602 326.293 402.744 328.758 402.924C333.766 403.319 340.918 403.884 349.633 404.571L349.403 404.768C350.222 392.833 351.258 377.748 352.381 361.388C352.874 354.391 353.35 347.627 353.791 341.366L353.802 341.209L353.946 341.148C367.818 335.26 379.806 330.171 388.359 326.541C392.607 324.759 396.001 323.337 398.364 322.346C399.512 321.875 400.408 321.507 401.047 321.245C401.335 321.132 401.564 321.041 401.744 320.971C401.901 320.91 401.983 320.883 401.986 320.89Z" fill="#455A64"/>
<path d="M440.039 322.975C440.027 323.01 439.549 322.877 438.696 322.608C437.746 322.302 436.537 321.912 435.093 321.447C432.053 320.483 427.836 319.139 423.036 318.4C418.236 317.66 413.795 317.888 410.693 318.559C407.577 319.203 405.786 320.093 405.747 319.992C405.734 319.964 406.167 319.72 406.992 319.362C407.815 319.002 409.046 318.565 410.613 318.19C413.737 317.414 418.257 317.121 423.117 317.872C427.975 318.62 432.2 320.031 435.215 321.089C436.724 321.624 437.934 322.084 438.766 322.412C439.597 322.742 440.051 322.941 440.039 322.975Z" fill="#455A64"/>
<path d="M433.275 311.986C433.262 312.071 431.673 311.761 429.092 311.962C427.804 312.052 426.27 312.25 424.563 312.447C422.858 312.65 420.987 312.879 419.05 313.246C415.163 313.938 411.818 315.293 409.675 316.724C407.511 318.132 406.498 319.416 406.424 319.343C406.403 319.326 406.622 318.982 407.119 318.443C407.615 317.906 408.384 317.162 409.464 316.411C411.596 314.868 415.015 313.42 418.951 312.721C420.913 312.35 422.798 312.134 424.51 311.957C426.22 311.786 427.764 311.627 429.073 311.584C430.381 311.537 431.445 311.612 432.169 311.722C432.894 311.832 433.282 311.954 433.275 311.986Z" fill="#455A64"/>
<path d="M370.086 237.536C370.086 237.536 378.645 223.266 381.02 220.379C383.247 217.673 386.116 216.076 388.031 215.238C389.096 214.772 390.217 214.452 391.363 214.253L403.672 211.528C403.672 211.528 403.694 219.929 412.496 220.449C421.299 220.969 428.711 208.707 428.711 208.707C428.711 208.707 442.932 210.906 446.334 212.656C449.737 214.406 455.084 216.629 458.026 231.364L460.091 245.778L435.571 248.045L433.224 284.481L421.064 292.95C421.064 292.95 387.352 301.715 385.197 302.294C383.043 302.873 382.329 248.045 382.329 248.045C382.329 248.045 373.67 242.445 370.086 237.536Z" fill="#FF725E"/>
<path d="M386.224 231.409C386.192 231.397 386.025 231.772 385.751 232.46C385.471 233.147 385.113 234.159 384.716 235.424C383.917 237.952 383.041 241.527 382.545 245.551C382.056 249.577 382.044 253.258 382.209 255.904C382.29 257.228 382.392 258.296 382.499 259.03C382.6 259.764 382.671 260.168 382.705 260.164C382.739 260.16 382.731 259.75 382.689 259.012C382.641 258.275 382.592 257.207 382.556 255.889C382.48 253.253 382.547 249.604 383.032 245.61C383.525 241.619 384.34 238.061 385.049 235.522C385.402 234.252 385.707 233.227 385.932 232.523C386.15 231.817 386.256 231.42 386.224 231.409Z" fill="#263238"/>
<path d="M436.462 230.544C436.498 230.547 436.504 230.943 436.484 231.657C436.451 232.483 436.41 233.492 436.362 234.679C436.236 237.353 436.074 240.815 435.894 244.642C435.709 248.535 435.507 252.059 435.313 254.606C435.216 255.88 435.127 256.91 435.05 257.621C434.974 258.332 434.915 258.724 434.879 258.721C434.843 258.719 434.834 258.322 434.847 257.608C434.874 256.782 434.906 255.773 434.945 254.585C435.06 251.91 435.209 248.447 435.373 244.617C435.558 240.725 435.781 237.202 435.993 234.655C436.1 233.382 436.197 232.353 436.28 231.642C436.364 230.933 436.427 230.542 436.462 230.544Z" fill="#263238"/>
<path d="M387.27 291.092L433.437 281.043L435.571 248.044L456.102 246.146C456.102 246.146 454.658 268.659 454.553 275.411C454.25 294.874 447.716 298.219 444.381 300.848C441.046 303.478 385.199 302.292 385.199 302.292L387.27 291.092Z" fill="#FFBE9D"/>
<path d="M361.064 297.074C361.389 297.718 362.064 298.138 362.783 298.075C362.926 298.062 363.076 298.034 363.23 297.985C364.251 297.657 364.155 295.578 364.155 295.578L369.048 294.779C369.048 294.779 375.411 298.882 377.674 301.601C379.938 304.32 385.712 302.118 385.712 302.118L387.714 291.69L378.708 283.546C378.708 283.546 379.261 284.031 378.64 282.508C378.019 280.985 375.189 281.561 375.189 281.561C374.749 280.808 372.9 280.538 372.9 280.538L365.001 281.448C363.373 281.636 361.918 282.55 361.043 283.935L357.703 289.223C357.703 289.223 355.939 293.03 356.222 293.915C356.65 295.25 358.063 294.953 358.063 294.953C358.063 294.953 358.451 297.456 359.109 297.543C359.767 297.63 361.064 297.074 361.064 297.074Z" fill="#FFBE9D"/>
<path d="M377.876 289.584C377.868 289.667 376.817 289.57 375.13 289.643C373.447 289.725 371.118 290.021 368.684 290.85C367.467 291.26 366.345 291.753 365.36 292.271C364.405 292.808 363.41 293.25 363.104 293.945C362.951 294.286 363.019 294.631 363.19 294.886C363.357 295.14 363.585 295.307 363.786 295.39C364.201 295.561 364.469 295.444 364.479 295.492C364.499 295.503 364.234 295.709 363.722 295.575C363.475 295.508 363.189 295.343 362.96 295.048C362.726 294.768 362.59 294.269 362.774 293.812C362.945 293.351 363.337 292.995 363.757 292.702C364.187 292.42 364.637 292.132 365.14 291.862C366.134 291.31 367.278 290.791 368.523 290.372C371.015 289.523 373.411 289.278 375.123 289.287C376.842 289.304 377.885 289.529 377.876 289.584Z" fill="#EB996E"/>
<path d="M378.429 294.621C378.42 294.77 375.205 294.636 371.256 294.868C367.304 295.085 364.126 295.582 364.101 295.435C364.089 295.37 364.871 295.162 366.158 294.936C367.444 294.709 369.237 294.48 371.228 294.366C373.219 294.254 375.026 294.279 376.329 294.359C377.633 294.436 378.433 294.555 378.429 294.621Z" fill="#EB996E"/>
<path d="M361.11 296.873C361.084 296.868 361.049 296.577 361.011 296.031C360.978 295.488 360.945 294.698 361.006 293.718C361.039 293.228 361.092 292.69 361.226 292.116C361.351 291.539 361.627 290.931 362.002 290.395C362.714 289.318 363.703 288.201 364.962 287.364C366.216 286.536 367.47 285.838 368.74 285.454C370 285.073 371.178 284.978 372.152 284.935C373.129 284.901 373.916 284.922 374.459 284.942C375.002 284.964 375.302 284.993 375.303 285.028C375.306 285.109 374.099 285.149 372.174 285.29C371.216 285.378 370.073 285.508 368.878 285.897C367.693 286.277 366.459 286.978 365.247 287.779C364.032 288.591 363.108 289.613 362.384 290.658C361.62 291.654 361.478 292.797 361.36 293.75C361.171 295.662 361.219 296.876 361.11 296.873Z" fill="#EB996E"/>
<path d="M372.52 282.544C372.521 282.619 371.338 282.65 369.451 282.868C367.633 283.147 364.725 283.28 363.068 285.785C361.274 288.064 359.749 290.216 359.081 291.981C358.374 293.734 358.436 294.947 358.333 294.938C358.306 294.939 358.26 294.641 358.287 294.1C358.309 293.56 358.425 292.774 358.747 291.857C359.354 289.994 360.87 287.761 362.675 285.469C363.135 284.893 363.633 284.348 364.21 283.917C364.785 283.478 365.454 283.222 366.069 283.044C367.315 282.692 368.461 282.59 369.417 282.512C371.335 282.385 372.521 282.48 372.52 282.544Z" fill="#EB996E"/>
<path d="M375.947 299.918C375.936 299.93 375.775 299.806 375.478 299.56C375.14 299.288 374.701 298.936 374.155 298.498C372.988 297.596 371.254 296.312 368.963 294.922L369.075 294.944C367.616 295.192 365.97 295.473 364.188 295.776L364.356 295.569C364.367 295.968 364.344 296.359 364.265 296.764C364.183 297.162 364.056 297.591 363.71 297.94C363.53 298.11 363.273 298.211 363.061 298.238C362.843 298.294 362.607 298.315 362.373 298.279C361.906 298.212 361.468 297.967 361.156 297.605C361.076 297.516 361.007 297.417 360.943 297.316L360.898 297.238L360.876 297.198L360.865 297.178L360.864 297.175C360.801 297.151 361.41 297.374 361.151 297.28L361.146 297.282L361.136 297.286L360.981 297.349C360.775 297.431 360.565 297.505 360.349 297.573C360.133 297.64 359.912 297.699 359.679 297.74C359.562 297.76 359.443 297.777 359.316 297.78C359.197 297.785 359.053 297.789 358.863 297.693C358.587 297.496 358.489 297.265 358.384 297.046C358.286 296.824 358.206 296.6 358.141 296.374C358.006 295.92 357.908 295.464 357.827 294.99L358.113 295.188C357.479 295.3 356.731 295.147 356.291 294.567C356.093 294.297 355.931 293.964 355.955 293.582C355.971 293.24 356.048 292.939 356.128 292.636C356.47 291.436 356.954 290.285 357.477 289.118L357.483 289.104L357.492 289.089C358.06 288.189 358.663 287.234 359.273 286.268C359.653 285.668 360.029 285.072 360.403 284.48C360.779 283.907 361.115 283.264 361.642 282.749C362.15 282.236 362.759 281.835 363.415 281.571C364.067 281.29 364.791 281.22 365.43 281.152C368.047 280.858 370.543 280.577 372.876 280.315L372.908 280.311L372.934 280.315C373.391 280.393 373.819 280.5 374.24 280.659C374.649 280.824 375.084 281.01 375.374 281.452L375.1 281.366C375.936 281.023 376.905 281.019 377.637 281.508C378.373 281.992 378.712 282.774 378.892 283.508L378.832 283.405C381.418 285.731 383.529 287.629 385.038 288.986C385.734 289.627 386.29 290.14 386.71 290.526C387.089 290.883 387.282 291.077 387.27 291.091C387.258 291.105 387.041 290.938 386.639 290.607C386.203 290.239 385.624 289.751 384.901 289.141C383.365 287.814 381.217 285.958 378.585 283.684L378.542 283.647L378.525 283.58C378.359 282.932 378.025 282.219 377.418 281.843C376.828 281.445 375.979 281.458 375.279 281.75L375.106 281.822L375.005 281.664C374.836 281.401 374.461 281.203 374.085 281.065C373.704 280.924 373.283 280.822 372.868 280.755L372.926 280.756C370.594 281.031 368.1 281.326 365.485 281.634C364.818 281.708 364.195 281.769 363.6 282.026C363.007 282.267 362.456 282.631 361.998 283.096C361.532 283.546 361.215 284.15 360.828 284.745C360.455 285.336 360.078 285.933 359.699 286.533C359.088 287.499 358.485 288.454 357.916 289.353L357.931 289.325C357.417 290.466 356.932 291.62 356.603 292.762C356.525 293.045 356.455 293.337 356.444 293.596C356.417 293.82 356.532 294.063 356.677 294.266C356.961 294.667 357.534 294.794 358.015 294.715L358.261 294.675L358.301 294.913C358.375 295.36 358.47 295.812 358.594 296.237C358.712 296.64 358.889 297.13 359.105 297.294C359.116 297.3 359.2 297.326 359.304 297.316C359.399 297.315 359.502 297.301 359.603 297.285C359.807 297.251 360.013 297.197 360.216 297.136C360.419 297.074 360.62 297.005 360.817 296.928L360.963 296.87L360.971 296.867L360.975 296.865C360.717 296.771 361.328 296.992 361.266 296.97L361.267 296.972L361.276 296.988L361.293 297.019L361.327 297.081C361.377 297.161 361.43 297.24 361.493 297.31C361.737 297.598 362.079 297.79 362.436 297.845C362.615 297.875 362.794 297.859 362.974 297.814C363.169 297.787 363.299 297.732 363.421 297.627C363.887 297.142 363.954 296.275 363.956 295.584L363.957 295.403L364.124 295.377C365.91 295.098 367.56 294.84 369.022 294.612L369.085 294.602L369.135 294.633C371.426 296.075 373.131 297.402 374.27 298.353C374.836 298.832 375.262 299.217 375.541 299.486C375.818 299.76 375.957 299.906 375.947 299.918Z" fill="#EB996E"/>
<path d="M419.684 314.148H411.917V315.863L428.92 481.688H437.986L419.684 314.148Z" fill="#455A64"/>
<path d="M419.684 314.147C419.684 314.147 419.704 314.45 419.76 315.022C419.819 315.606 419.905 316.451 420.017 317.555C420.252 319.787 420.596 323.056 421.039 327.268C421.942 335.704 423.247 347.902 424.865 363.017C428.138 393.224 432.673 435.076 437.727 481.716L437.986 481.425C435.342 481.425 432.5 481.425 429.642 481.425C429.396 481.425 429.15 481.425 428.92 481.425L429.179 481.66C421.175 403.605 414.328 337.574 411.996 315.854V315.862C411.993 315.066 411.991 314.595 411.989 314.147L411.916 314.22C414.56 314.201 416.491 314.187 417.776 314.178C418.408 314.17 418.879 314.165 419.206 314.161C419.523 314.157 419.684 314.147 419.684 314.147C419.684 314.147 419.54 314.138 419.231 314.132C418.907 314.128 418.442 314.122 417.817 314.115C416.523 314.106 414.578 314.092 411.917 314.073L411.844 314.072V314.146C411.842 314.595 411.84 315.065 411.837 315.861V315.865L411.838 315.87C413.962 337.611 420.659 403.658 428.662 481.713L428.686 481.949H428.921C429.151 481.949 429.397 481.949 429.643 481.949C432.501 481.949 435.344 481.949 437.987 481.949H438.278L438.246 481.658C433.103 434.957 428.488 393.049 425.157 362.802C423.476 347.718 422.119 335.545 421.18 327.126C420.706 322.943 420.339 319.695 420.087 317.478C419.96 316.39 419.863 315.558 419.795 314.982C419.727 314.424 419.684 314.147 419.684 314.147Z" fill="#263238"/>
<path d="M282.448 314.147H274.681V315.905L290.865 481.652H298.842L282.448 314.147Z" fill="#263238"/>
<path d="M452.134 315.862L175.278 316.158L175.178 308.852H452.134V315.862Z" fill="#455A64"/>
<path d="M214.224 314.147H221.992V315.905L205.808 481.652H197.831L214.224 314.147Z" fill="#455A64"/>
<path d="M213.875 316.317C213.875 316.317 213.857 316.614 213.807 317.177C213.755 317.748 213.679 318.581 213.579 319.671C213.371 321.866 213.067 325.089 212.675 329.242C211.877 337.553 210.724 349.578 209.294 364.477C206.403 394.251 202.398 435.504 197.937 481.455L197.722 481.218C200.211 481.218 202.888 481.218 205.58 481.218C205.621 481.218 205.661 481.218 205.699 481.218L205.483 481.414C213.044 404.669 219.449 339.662 221.576 318.07V318.076C221.579 317.262 221.58 316.778 221.582 316.318L221.643 316.379C218.996 316.363 217.063 316.352 215.78 316.344C215.145 316.338 214.674 316.333 214.351 316.33C214.035 316.325 213.875 316.317 213.875 316.317C213.875 316.317 214.021 316.309 214.33 316.305C214.65 316.302 215.117 316.297 215.746 316.291C217.036 316.283 218.98 316.272 221.642 316.256H221.703V316.318C221.705 316.778 221.706 317.262 221.709 318.076V318.079V318.082C219.621 339.678 213.335 404.697 205.914 481.456L205.895 481.652H205.698C205.66 481.652 205.62 481.652 205.579 481.652C202.887 481.652 200.21 481.652 197.721 481.652H197.482L197.505 481.414C202.04 435.41 206.111 394.111 209.05 364.302C210.533 349.429 211.73 337.424 212.557 329.127C212.975 324.998 213.299 321.793 213.52 319.61C213.632 318.533 213.718 317.71 213.777 317.146C213.837 316.592 213.875 316.317 213.875 316.317Z" fill="#263238"/>
<path d="M326.413 314.784H318.645V316.535L334.829 481.652H342.806L326.413 314.784Z" fill="#455A64"/>
<path d="M326.762 316.946C326.762 316.946 326.78 317.241 326.83 317.803C326.882 318.372 326.958 319.202 327.058 320.288C327.266 322.475 327.57 325.686 327.962 329.823C328.76 338.103 329.914 350.082 331.343 364.924C334.234 394.585 338.239 435.681 342.7 481.458L342.915 481.221C340.426 481.221 337.749 481.221 335.057 481.221C335.016 481.221 334.976 481.221 334.938 481.221L335.154 481.416C327.593 404.963 321.188 340.202 319.061 318.692V318.698C319.058 317.887 319.057 317.405 319.055 316.947L318.994 317.008C321.641 316.992 323.574 316.981 324.857 316.973C325.492 316.967 325.963 316.962 326.286 316.959C326.602 316.953 326.762 316.946 326.762 316.946C326.762 316.946 326.616 316.938 326.307 316.934C325.987 316.931 325.52 316.926 324.891 316.92C323.601 316.912 321.657 316.901 318.995 316.885H318.934V316.946C318.932 317.405 318.931 317.886 318.928 318.697V318.7V318.703C321.016 340.217 327.302 404.989 334.723 481.456L334.742 481.651H334.939C334.977 481.651 335.017 481.651 335.058 481.651C337.75 481.651 340.427 481.651 342.916 481.651H343.155L343.132 481.414C338.597 435.585 334.526 394.442 331.587 364.747C330.104 349.93 328.907 337.971 328.08 329.706C327.662 325.592 327.338 322.4 327.117 320.225C327.005 319.152 326.919 318.333 326.86 317.771C326.8 317.22 326.762 316.946 326.762 316.946Z" fill="#263238"/>
<path d="M451.098 315.908C451.098 315.77 395.279 315.658 326.439 315.658C257.575 315.658 201.768 315.77 201.768 315.908C201.768 316.046 257.575 316.158 326.439 316.158C395.279 316.158 451.098 316.046 451.098 315.908Z" fill="#263238"/>
<path d="M277.672 257.51L338.482 258.004C340.455 258.004 342.34 258.952 342.635 260.902L349.281 305.223H380.603C381.611 305.223 382.429 306.041 382.429 307.049C382.429 308.058 381.611 308.875 380.603 308.875H349.828H343.986H280.563L273.726 262.098C273.361 259.684 275.231 257.51 277.672 257.51Z" fill="#E0E0E0"/>
<path d="M277.672 257.51C277.672 257.51 277.341 257.468 276.714 257.6C276.105 257.742 275.147 258.117 274.391 259.14C274.014 259.641 273.728 260.309 273.64 261.081C273.541 261.864 273.765 262.69 273.864 263.582C274.119 265.373 274.412 267.436 274.741 269.754C276.079 279.046 278.008 292.438 280.379 308.901L280.402 309.062H280.565C306.452 309.077 340.47 309.098 377.618 309.12C378.49 309.12 379.361 309.12 380.23 309.12C380.633 309.137 381.194 309.114 381.612 308.857C382.044 308.619 382.379 308.22 382.547 307.759C382.911 306.831 382.476 305.694 381.603 305.234C381.186 304.982 380.631 304.961 380.233 304.977H378.946C375.519 304.978 372.129 304.978 368.781 304.979C362.086 304.981 355.565 304.983 349.281 304.986L349.515 305.188C347.123 289.315 344.891 274.508 342.89 261.225C342.821 260.384 342.44 259.474 341.765 258.909C341.105 258.323 340.269 258.012 339.44 257.883C338.594 257.754 337.789 257.823 336.988 257.797C336.186 257.792 335.39 257.786 334.6 257.781C331.442 257.76 328.388 257.739 325.445 257.719C319.56 257.682 314.117 257.647 309.175 257.616C299.302 257.565 291.431 257.525 286.012 257.497C283.319 257.492 281.239 257.488 279.815 257.486C279.12 257.489 278.588 257.492 278.215 257.494C277.856 257.497 277.672 257.51 277.672 257.51C277.672 257.51 277.855 257.526 278.215 257.535C278.588 257.543 279.12 257.554 279.815 257.569C281.238 257.589 283.319 257.62 286.011 257.658C291.43 257.718 299.3 257.806 309.173 257.916C314.115 257.965 319.558 258.019 325.443 258.077C328.386 258.105 331.44 258.134 334.598 258.164C335.387 258.172 336.183 258.179 336.986 258.186C337.786 258.213 338.609 258.152 339.378 258.273C340.151 258.395 340.917 258.687 341.499 259.208C342.097 259.728 342.413 260.454 342.488 261.284C344.47 274.57 346.679 289.38 349.048 305.257L349.078 305.459H349.282C355.566 305.461 362.087 305.463 368.782 305.466C372.13 305.466 375.52 305.467 378.947 305.468H380.234C380.688 305.455 381.026 305.473 381.367 305.664C382.034 306.017 382.366 306.883 382.087 307.591C381.959 307.942 381.703 308.248 381.373 308.429C381.031 308.623 380.69 308.642 380.23 308.629C379.361 308.629 378.49 308.629 377.618 308.629C340.47 308.651 306.451 308.672 280.565 308.687L280.751 308.848C278.311 292.394 276.326 279.011 274.949 269.724C274.601 267.408 274.292 265.348 274.023 263.559C273.915 262.663 273.686 261.842 273.775 261.095C273.852 260.349 274.121 259.697 274.481 259.204C275.202 258.198 276.132 257.811 276.728 257.654C277.342 257.506 277.674 257.534 277.672 257.51Z" fill="#263238"/>
<path d="M314.464 282.629C314.464 284.732 312.759 286.436 310.657 286.436C308.554 286.436 306.85 284.732 306.85 282.629C306.85 280.526 308.555 278.822 310.657 278.822C312.759 278.822 314.464 280.526 314.464 282.629Z" fill="white"/>
<path d="M346.817 308.466C346.731 308.48 344.795 297.194 342.494 283.262C340.192 269.325 338.396 258.018 338.482 258.004C338.568 257.99 340.503 269.273 342.805 283.211C345.107 297.143 346.903 308.452 346.817 308.466Z" fill="#263238"/>
<path d="M146 90C146 88.9 146.9 88 148 88C149.1 88 150 88.9 150 90V98C150 99.1 149.1 100 148 100C146.9 100 146 99.1 146 98V95C146 94.4 146.4 94 147 94C147.6 94 148 94.4 148 95V98" fill="#F5F5F5"/>
<path d="M146 90C146 88.9 146.9 88 148 88C149.1 88 150 88.9 150 90V98C150 99.1 149.1 100 148 100C146.9 100 146 99.1 146 98V95C146 94.4 146.4 94 147 94C147.6 94 148 94.4 148 95V98" stroke="#455A64" stroke-miterlimit="10" stroke-linecap="round" stroke-linejoin="round"/>
<path d="M183 138V141.5C183 142.9 181.9 144 180.5 144H177" fill="#F5F5F5"/>
<path d="M183 138V141.5C183 142.9 181.9 144 180.5 144H177" stroke="#455A64" stroke-miterlimit="10" stroke-linecap="round" stroke-linejoin="round"/>
<path d="M161.6 148.5H147.5C146.1 148.5 145 147.4 145 146" fill="#F5F5F5"/>
<path d="M161.6 148.5H147.5C146.1 148.5 145 147.4 145 146" stroke="#455A64" stroke-miterlimit="10" stroke-linecap="round" stroke-linejoin="round"/>
<path d="M187.5 133.5V146C187.5 147.4 186.4 148.5 185 148.5H172.5" fill="#F5F5F5"/>
<path d="M187.5 133.5V146C187.5 147.4 186.4 148.5 185 148.5H172.5" stroke="#455A64" stroke-miterlimit="10" stroke-linecap="round" stroke-linejoin="round"/>
<path d="M185 96.5C186.4 96.5 187.5 97.6 187.5 99V119.6" fill="#F5F5F5"/>
<path d="M185 96.5C186.4 96.5 187.5 97.6 187.5 99V119.6" stroke="#455A64" stroke-miterlimit="10" stroke-linecap="round" stroke-linejoin="round"/>
<path d="M163.1 144H143.5C142.1 144 141 142.9 141 141.5V94.5C141 93.1 142.1 92 143.5 92H180.5C181.9 92 183 93.1 183 94.5V121" fill="#F5F5F5"/>
<path d="M163.1 144H143.5C142.1 144 141 142.9 141 141.5V94.5C141 93.1 142.1 92 143.5 92H180.5C181.9 92 183 93.1 183 94.5V121" stroke="#455A64" stroke-miterlimit="10" stroke-linecap="round" stroke-linejoin="round"/>
<path d="M177 111H167C166.4 111 166 110.6 166 110V98C166 97.4 166.4 97 167 97H177C177.6 97 178 97.4 178 98V110C178 110.5 177.6 111 177 111Z" fill="#F5F5F5" stroke="#455A64" stroke-miterlimit="10" stroke-linecap="round" stroke-linejoin="round"/>
<path d="M172 106.7C173.491 106.7 174.7 105.491 174.7 104C174.7 102.509 173.491 101.3 172 101.3C170.509 101.3 169.3 102.509 169.3 104C169.3 105.491 170.509 106.7 172 106.7Z" fill="#F5F5F5" stroke="#455A64" stroke-miterlimit="10" stroke-linecap="round" stroke-linejoin="round"/>
<path d="M176 111H168V110.7C168 108.5 169.8 106.7 172 106.7C174.2 106.7 176 108.5 176 110.7V111Z" fill="#F5F5F5" stroke="#455A64" stroke-miterlimit="10" stroke-linecap="round" stroke-linejoin="round"/>
<path d="M146 111H154" stroke="#455A64" stroke-miterlimit="10" stroke-linecap="round" stroke-linejoin="round"/>
<path d="M146 103H154" stroke="#455A64" stroke-miterlimit="10" stroke-linecap="round" stroke-linejoin="round"/>
<path d="M146 106H162" stroke="#455A64" stroke-miterlimit="10" stroke-linecap="round" stroke-linejoin="round"/>
<path d="M146 116H178" stroke="#455A64" stroke-miterlimit="10" stroke-linecap="round" stroke-linejoin="round"/>
<path d="M146 121H162" stroke="#455A64" stroke-miterlimit="10" stroke-linecap="round" stroke-linejoin="round"/>
<path d="M146 126H162" stroke="#455A64" stroke-miterlimit="10" stroke-linecap="round" stroke-linejoin="round"/>
<path d="M146 131H162" stroke="#455A64" stroke-miterlimit="10" stroke-linecap="round" stroke-linejoin="round"/>
<path d="M146 136H154" stroke="#455A64" stroke-miterlimit="10" stroke-linecap="round" stroke-linejoin="round"/>
<path d="M170 88H175" stroke="#455A64" stroke-miterlimit="10" stroke-linecap="round" stroke-linejoin="round"/>
<path d="M177 88H178" stroke="#455A64" stroke-miterlimit="10" stroke-linecap="round" stroke-linejoin="round"/>
<path d="M191.5 107V112" stroke="#455A64" stroke-miterlimit="10" stroke-linecap="round" stroke-linejoin="round"/>
<path d="M191.5 114V115" stroke="#455A64" stroke-miterlimit="10" stroke-linecap="round" stroke-linejoin="round"/>
<path d="M191.6 121.7L192.3 122.4C193.3 123.4 193.3 125 192.3 125.9L172.8 145.3L168.6 141.1L188 121.7C189 120.7 190.6 120.7 191.6 121.7Z" fill="#FF725E" stroke="#455A64" stroke-miterlimit="10" stroke-linecap="round" stroke-linejoin="round"/>
<path d="M168.6 141.1L172.8 145.3L169.3 148.9L162.9 151L165 144.6L168.6 141.1Z" fill="#FF725E" stroke="#455A64" stroke-miterlimit="10" stroke-linecap="round" stroke-linejoin="round"/>
<path d="M164.3 146.8L162.9 151L167.2 149.6L164.3 146.8Z" fill="#FF725E" stroke="#455A64" stroke-miterlimit="10" stroke-linecap="round" stroke-linejoin="round"/>
<path d="M184.8 122L177.8 129.1" stroke="#455A64" stroke-miterlimit="10" stroke-linecap="round" stroke-linejoin="round"/>
<path d="M192.3 125.9L188 121.7" stroke="#455A64" stroke-miterlimit="10" stroke-linecap="round" stroke-linejoin="round"/>
<defs>
<clipPath id="clip0_10_5366">
<rect width="96.9623" height="92.1242" fill="white" transform="translate(308.708 94.0086)"/>
</clipPath>
</defs>
</svg>
