<?xml version="1.0" encoding="utf-8" ?>
<svg xmlns="http://www.w3.org/2000/svg" xmlns:xlink="http://www.w3.org/1999/xlink" width="20" height="20" viewBox="0 0 20 20">
	<path transform="matrix(1 0 0 1 0 0)" d="M17.7778 0C18.3914 0 18.9152 0.216958 19.3491 0.650874C19.783 1.08479 20 1.60857 20 2.22222L20 17.7778C20 18.3914 19.783 18.9152 19.3491 19.3491C18.9152 19.783 18.3914 20 17.7778 20L2.22222 20C1.60857 20 1.08479 19.783 0.650874 19.3491C0.216958 18.9152 0 18.3914 0 17.7778L0 2.22222C0 1.60857 0.216958 1.08479 0.650874 0.650874C1.08479 0.216958 1.60857 0 2.22222 0L17.7778 0ZM17.2222 17.2222L17.2222 11.3333C17.2222 10.3331 16.8686 9.47932 16.1613 8.77203C15.454 8.06475 14.6002 7.71111 13.6 7.71111C12.6556 7.71111 11.5556 8.28889 11.0222 9.15556L11.0222 7.92222L7.92222 7.92222L7.92222 17.2222L11.0222 17.2222L11.0222 11.7444C11.0222 10.8889 11.7111 10.1889 12.5667 10.1889C12.9962 10.1889 13.3629 10.3408 13.6666 10.6445C13.9704 10.9482 14.1222 11.3149 14.1222 11.7444L14.1222 17.2222L17.2222 17.2222ZM4.31111 6.17778C4.82658 6.17778 5.26655 5.99553 5.63104 5.63104C5.99553 5.26655 6.17778 4.82658 6.17778 4.31111C6.17778 3.27778 5.34445 2.43333 4.31111 2.43333C3.79258 2.43333 3.34998 2.61666 2.98332 2.98332C2.61666 3.34998 2.43333 3.79258 2.43333 4.31111C2.43333 5.34445 3.27778 6.17778 4.31111 6.17778ZM5.85556 17.2222L5.85556 7.92222L2.77778 7.92222L2.77778 17.2222L5.85556 17.2222Z" fill-rule="nonzero" fill="rgb(25, 50, 56)"/>
</svg>
