<svg width="20" height="19" viewBox="0 0 20 19" fill="none" xmlns="http://www.w3.org/2000/svg">
<path d="M1.69026 16.5924L1.16878 16.3757C0.645339 16.153 0.293776 15.776 0.114089 15.2448C-0.0616925 14.7096 -0.0343487 14.1862 0.19612 13.6745L1.69026 10.4518V16.5924ZM6.07307 18.485C5.52229 18.485 5.05159 18.2897 4.66096 17.8991C4.27034 17.5046 4.07503 17.0319 4.07503 16.4811V11.5007L6.36018 17.8346C6.41096 17.9557 6.45979 18.069 6.50667 18.1745C6.55745 18.2799 6.62581 18.3835 6.71175 18.485H6.07307ZM10.5907 17.9811C10.1922 18.1374 9.80354 18.1178 9.42464 17.9225C9.04573 17.7233 8.77815 17.4225 8.6219 17.0202L4.17464 4.82096C4.01839 4.42253 4.0301 4.0319 4.20979 3.64909C4.39339 3.26237 4.68635 2.99674 5.0887 2.85221L12.6356 0.104167C13.034 -0.0520833 13.4188 -0.0325521 13.7899 0.16276C14.1649 0.358073 14.4285 0.658854 14.5809 1.0651L19.034 13.2467C19.1864 13.653 19.1766 14.0495 19.0047 14.4362C18.8328 14.819 18.5438 15.0827 18.1375 15.2272L10.5907 17.9811ZM8.61018 6.54362C8.89534 6.54362 9.13362 6.44792 9.32503 6.25651C9.51643 6.0651 9.61214 5.82682 9.61214 5.54167C9.61214 5.25651 9.51643 5.01823 9.32503 4.82682C9.13362 4.63542 8.89534 4.53971 8.61018 4.53971C8.32893 4.53971 8.0926 4.63542 7.9012 4.82682C7.70979 5.01823 7.61409 5.25651 7.61409 5.54167C7.61409 5.82682 7.70979 6.0651 7.9012 6.25651C8.0926 6.44792 8.32893 6.54362 8.61018 6.54362ZM10.0633 16.5397L17.6102 13.7917L13.1629 1.53971L5.61018 4.29362L10.0633 16.5397Z" fill="#FF725E"/>
</svg>
